<svg width="22" height="23" viewBox="0 0 22 23" fill="none" xmlns="http://www.w3.org/2000/svg">
<path d="M2.05 12.5H0V10.5H2.05C2.5 6.33 5.83 3 10 2.55V0.5H12V2.55C16.17 3 19.5 6.33 19.95 10.5H22V12.5H19.95C19.5 16.67 16.17 20 12 20.45V22.5H10V20.45C5.83 20 2.5 16.67 2.05 12.5ZM11 4.5C9.14348 4.5 7.36301 5.2375 6.05025 6.55025C4.7375 7.86301 4 9.64348 4 11.5C4 13.3565 4.7375 15.137 6.05025 16.4497C7.36301 17.7625 9.14348 18.5 11 18.5C12.8565 18.5 14.637 17.7625 15.9497 16.4497C17.2625 15.137 18 13.3565 18 11.5C18 9.64348 17.2625 7.86301 15.9497 6.55025C14.637 5.2375 12.8565 4.5 11 4.5Z" fill="#FF812E"/>
</svg>
