<svg viewBox="0 0 45 48" fill="none" xmlns="http://www.w3.org/2000/svg">
<path fill-rule="evenodd" clip-rule="evenodd" d="M43.126 46.0785C42.3078 46.8577 41.2213 47.2923 40.0915 47.2923C38.9617 47.2923 37.8752 46.8577 37.057 46.0785L27.47 36.8006L27.113 37.1465C26.9098 37.3399 26.6479 37.46 26.3688 37.4877C26.0896 37.5154 25.8093 37.4492 25.572 37.2995L23.21 35.7995C22.9585 35.6313 22.7469 35.4098 22.5904 35.1507C22.4339 34.8917 22.3362 34.6014 22.3042 34.3005C22.2722 33.9995 22.3068 33.6952 22.4055 33.409C22.5041 33.1229 22.6644 32.8619 22.875 32.6446L23.019 32.5055L3.875 13.9816C3.66193 13.7761 3.377 13.662 3.08099 13.6636C2.68322 13.6762 2.28697 13.6087 1.91577 13.4653C1.54457 13.3218 1.20601 13.1052 0.920166 12.8283C0.634322 12.5514 0.407044 12.2198 0.251831 11.8534C0.0966178 11.4869 0.0166016 11.093 0.0166016 10.6951C0.0166016 10.2971 0.0966178 9.90319 0.251831 9.53673C0.407044 9.17028 0.634322 8.83872 0.920166 8.56182C1.20601 8.28492 1.54457 8.06828 1.91577 7.92479C2.28697 7.7813 2.68322 7.7139 3.08099 7.72655C3.15599 7.72655 3.78099 7.80654 4.33899 7.88854C4.65399 7.93454 4.93901 7.97657 5.03101 7.98857C5.08682 7.9957 5.14224 8.00568 5.19702 8.01854L12.933 0.532582C13.1238 0.351708 13.3665 0.235141 13.6269 0.199269C13.8873 0.163396 14.1524 0.210009 14.385 0.332569C14.763 0.532569 23.714 5.34056 31.246 18.7186C31.3724 18.9429 31.4204 19.203 31.3824 19.4576C31.3443 19.7123 31.2225 19.947 31.036 20.1246L25.075 25.8946L27.467 28.2096L29.623 26.1236C29.8347 25.919 30.0899 25.7648 30.3696 25.6725C30.6492 25.5802 30.946 25.5522 31.238 25.5906C31.5287 25.6245 31.808 25.7242 32.0544 25.8823C32.3008 26.0403 32.5079 26.2524 32.66 26.5026L34.195 29.0516C34.3051 29.2322 34.3629 29.4399 34.362 29.6515C34.3598 29.8158 34.3226 29.9778 34.253 30.1266L35.662 30.3545C36.4908 30.4869 37.2589 30.8709 37.862 31.4546L38.098 31.6836C38.5816 32.1486 38.9355 32.7317 39.1249 33.3753C39.3143 34.0189 39.3326 34.7007 39.178 35.3536C39.1168 35.6114 39.1241 35.8808 39.1992 36.135C39.2743 36.3892 39.4145 36.6193 39.606 36.8025L43.133 40.2145C43.528 40.5941 43.8421 41.0497 44.0564 41.5538C44.2707 42.0579 44.3809 42.6003 44.3802 43.1481C44.3796 43.6959 44.2682 44.2378 44.0526 44.7414C43.8371 45.2451 43.5218 45.6999 43.126 46.0785ZM13.982 2.87255L7.49402 9.15056L7.53998 9.17559L7.909 9.38353C7.97403 9.41961 8.03591 9.46111 8.09399 9.50756C8.25899 9.64156 8.42199 9.78157 8.57599 9.93157L8.59802 9.95354L15.118 3.64458C14.669 3.32458 14.282 3.06455 13.982 2.87255ZM17.05 5.13054L10.332 11.6305L11.607 12.8646L18.398 6.29253C17.927 5.87153 17.475 5.47854 17.05 5.13054ZM20.15 7.95653L13.345 14.5436L13.69 14.8776C13.6995 14.8857 13.7085 14.8944 13.717 14.9036L14.617 15.7765L21.379 9.23253C20.96 8.78653 20.548 8.35553 20.147 7.95653H20.15ZM22.986 11.0356L16.354 17.4546L16.532 17.6266L16.57 17.6645L17.628 18.6885L24.109 12.4166C23.73 11.9426 23.353 11.4726 22.983 11.0356H22.986ZM19.362 20.3666L20.215 21.1905C20.224 21.1995 20.232 21.2086 20.242 21.2176L20.637 21.5995L26.596 15.8326C26.256 15.3326 25.916 14.8225 25.576 14.3525L19.362 20.3666ZM28.652 19.0726C28.412 18.6626 28.169 18.2926 27.927 17.9006L22.371 23.2776L23.339 24.2136L28.652 19.0726ZM6.84003 11.6066C6.76203 11.5296 6.68002 11.4596 6.59802 11.3906L6.29797 11.2215C5.92497 11.0095 4.97 10.4666 4.62 10.3216C4.456 10.3006 4.22 10.2676 3.974 10.2316C3.574 10.1726 3.12502 10.1056 2.99402 10.0926C2.84486 10.1155 2.70982 10.1939 2.61584 10.3119C2.52187 10.43 2.47584 10.5792 2.48694 10.7297C2.49804 10.8802 2.56544 11.021 2.67572 11.124C2.786 11.227 2.93106 11.2847 3.08197 11.2856C4.02431 11.2806 4.93138 11.6437 5.60999 12.2975L24.754 30.8235L25.728 29.8816L6.84003 11.6066ZM30.875 28.2596L28.331 30.7215L24.907 34.0345L26.085 34.7826L31.595 29.4506L30.875 28.2596ZM41.389 41.8826L37.862 38.4706C37.3772 38.0064 37.0224 37.4234 36.8328 36.7795C36.6431 36.1357 36.6253 35.4535 36.781 34.8006C36.8426 34.5429 36.8357 34.2735 36.761 34.0193C36.6863 33.7651 36.5463 33.5349 36.355 33.3516L36.118 33.1225C35.8796 32.8927 35.5762 32.7418 35.249 32.6905L32.223 32.2006L29.203 35.1225L38.789 44.3996C39.1395 44.7334 39.605 44.9195 40.089 44.9195C40.573 44.9195 41.0385 44.7334 41.389 44.3996C41.7225 44.0658 41.91 43.6133 41.9104 43.1415C41.9108 42.6696 41.724 42.2169 41.391 41.8826H41.389Z" fill="currentColor"/>
</svg>
