<svg viewBox="0 0 15 14" fill="none" xmlns="http://www.w3.org/2000/svg">
<path d="M12.8817 3.13516H10.2143L9.4986 0.5328C9.36849 0.142447 8.97813 -0.0527302 8.65284 0.0773876C8.26248 0.207506 8.06731 0.597859 8.19742 0.923154L8.84801 3.13516H5.33483L5.98542 0.923154C6.05048 0.5328 5.8553 0.142447 5.46495 0.0123287C5.0746 -0.0527302 4.68424 0.142447 4.61918 0.5328L3.90354 3.13516H1.17106C0.520471 3.13516 0 3.65563 0 4.30622V5.67246C0 6.25799 0.455413 6.77846 1.04094 6.84352L2.27706 13.0241C2.40718 13.6096 2.86259 14 3.44812 14H10.6046C11.1901 14 11.7106 13.5446 11.7757 12.9591L12.8817 6.77846C13.5323 6.77846 14.0527 6.25799 14.0527 5.6074V4.30622C14.0527 3.65563 13.5323 3.13516 12.8817 3.13516ZM10.4745 12.6338H3.6433L2.5373 6.84352H11.5154L10.4745 12.6338ZM12.6865 5.41222H1.4313V4.56645H12.6865V5.41222ZM5.20471 11.0073C5.59507 11.0073 5.92036 10.682 5.92036 10.2916V8.20976C5.92036 7.8194 5.59507 7.49411 5.20471 7.49411C4.81436 7.49411 4.48907 7.8194 4.48907 8.20976V10.2916C4.48907 10.682 4.81436 11.0073 5.20471 11.0073ZM7.02636 11.0073C7.41672 11.0073 7.74201 10.682 7.74201 10.2916V8.20976C7.74201 7.8194 7.41672 7.49411 7.02636 7.49411C6.63601 7.49411 6.31072 7.8194 6.31072 8.20976V10.2916C6.31072 10.682 6.63601 11.0073 7.02636 11.0073ZM8.84801 11.0073C9.23837 11.0073 9.56366 10.682 9.56366 10.2916V8.20976C9.56366 7.8194 9.23837 7.49411 8.84801 7.49411C8.45766 7.49411 8.13237 7.8194 8.13237 8.20976V10.2916C8.13237 10.682 8.45766 11.0073 8.84801 11.0073Z" fill="currentColor"/>
</svg>
