<svg fill="none" xmlns="http://www.w3.org/2000/svg">
<path d="M13.8553 3.13516H11.1879L10.4722 0.5328C10.3421 0.142447 9.95177 -0.0527302 9.62647 0.0773876C9.23612 0.207506 9.04094 0.597859 9.17106 0.923154L9.82165 3.13516H6.30847L6.95905 0.923154C7.02411 0.5328 6.82894 0.142447 6.43858 0.0123287C6.04823 -0.0527302 5.65788 0.142447 5.59282 0.5328L4.87717 3.13516H2.14469C1.4941 3.13516 0.973633 3.65563 0.973633 4.30622V5.67246C0.973633 6.25799 1.42905 6.77846 2.01458 6.84352L3.2507 13.0241C3.38081 13.6096 3.83623 14 4.42176 14H11.5782C12.1638 14 12.6842 13.5446 12.7493 12.9591L13.8553 6.77846C14.5059 6.77846 15.0264 6.25799 15.0264 5.6074V4.30622C15.0264 3.65563 14.5059 3.13516 13.8553 3.13516ZM11.4481 12.6338H4.61693L3.51093 6.84352H12.4891L11.4481 12.6338ZM13.6601 5.41222H2.40493V4.56645H13.6601V5.41222ZM6.17835 11.0073C6.5687 11.0073 6.894 10.682 6.894 10.2916V8.20976C6.894 7.8194 6.5687 7.49411 6.17835 7.49411C5.78799 7.49411 5.4627 7.8194 5.4627 8.20976V10.2916C5.4627 10.682 5.78799 11.0073 6.17835 11.0073ZM8 11.0073C8.39035 11.0073 8.71565 10.682 8.71565 10.2916V8.20976C8.71565 7.8194 8.39035 7.49411 8 7.49411C7.60964 7.49411 7.28435 7.8194 7.28435 8.20976V10.2916C7.28435 10.682 7.60964 11.0073 8 11.0073ZM9.82165 11.0073C10.212 11.0073 10.5373 10.682 10.5373 10.2916V8.20976C10.5373 7.8194 10.212 7.49411 9.82165 7.49411C9.43129 7.49411 9.106 7.8194 9.106 8.20976V10.2916C9.106 10.682 9.43129 11.0073 9.82165 11.0073Z" fill="currentColor"/>
</svg>
