<svg viewBox="0 0 47 46" fill="none" xmlns="http://www.w3.org/2000/svg">
<path fill-rule="evenodd" clip-rule="evenodd" d="M45.3181 24.6155C41.2822 25.4407 37.1377 25.5934 33.0521 25.0676C36.6252 26.5243 40.4147 27.3799 44.2671 27.5996C44.5952 27.6099 44.9065 27.7475 45.1351 27.9832C45.3637 28.2189 45.4917 28.5342 45.4921 28.8626V28.9026C45.4865 29.0687 45.4483 29.232 45.3796 29.3832C45.3109 29.5345 45.2131 29.6708 45.0917 29.7843C44.9703 29.8978 44.8278 29.9862 44.6722 30.0446C44.5167 30.103 44.3511 30.1302 44.1851 30.1246C40.0647 29.8979 36.0101 28.992 32.1851 27.4436C35.2756 29.7619 38.7287 31.5529 42.4041 32.7436C42.5636 32.7906 42.7122 32.8687 42.8415 32.9733C42.9707 33.0779 43.078 33.207 43.1573 33.3532C43.2365 33.4993 43.2861 33.6597 43.3032 33.8251C43.3203 33.9905 43.3045 34.1577 43.2569 34.317C43.2092 34.4763 43.1306 34.6247 43.0255 34.7535C42.9203 34.8823 42.7908 34.9891 42.6443 35.0678C42.4978 35.1464 42.3372 35.1954 42.1717 35.2118C42.0063 35.2282 41.8392 35.2119 41.6801 35.1636C37.7623 33.9028 34.0794 32.0039 30.7801 29.5436C33.1737 32.5625 36.0506 35.1644 39.2941 37.2436C39.4394 37.3284 39.5663 37.4413 39.6674 37.5758C39.7685 37.7102 39.8418 37.8634 39.8829 38.0266C39.9241 38.1897 39.9323 38.3594 39.9071 38.5257C39.8819 38.692 39.8238 38.8516 39.7361 38.9952C39.6485 39.1388 39.533 39.2634 39.3966 39.3619C39.2602 39.4603 39.1055 39.5306 38.9416 39.5685C38.7777 39.6064 38.6079 39.6113 38.4421 39.5828C38.2763 39.5543 38.1179 39.4931 37.9761 39.4026C34.5095 37.1888 31.4318 34.4182 28.8671 31.2026C30.4118 34.7308 32.5309 37.9785 35.1381 40.8135C35.2533 40.933 35.3439 41.074 35.4047 41.2285C35.4654 41.383 35.4951 41.548 35.492 41.7139C35.4889 41.8799 35.4532 42.0436 35.3868 42.1957C35.3204 42.3479 35.2247 42.4855 35.1051 42.6006C34.8626 42.8329 34.538 42.9596 34.2023 42.953C33.8666 42.9464 33.5473 42.8071 33.3141 42.5656C30.5254 39.5457 28.256 36.0849 26.5981 32.3236C27.1906 36.1256 28.4109 39.8027 30.2091 43.2046C30.2937 43.35 30.3486 43.5107 30.3704 43.6776C30.3922 43.8444 30.3805 44.0138 30.336 44.1761C30.2916 44.3383 30.2153 44.4902 30.1115 44.6226C30.0077 44.755 29.8786 44.8654 29.7316 44.9473C29.5847 45.0293 29.4229 45.0811 29.2557 45.0998C29.0886 45.1185 28.9193 45.1037 28.7579 45.0562C28.5965 45.0088 28.4462 44.9296 28.3157 44.8234C28.1852 44.7172 28.0773 44.586 27.9981 44.4376C26.076 40.8151 24.7654 36.9001 24.1191 32.8506C23.725 36.67 23.9666 40.5282 24.8341 44.2686C24.8605 44.3722 24.874 44.4787 24.8741 44.5856C24.8734 44.8938 24.7604 45.1912 24.5562 45.4221C24.352 45.653 24.0707 45.8015 23.7649 45.8399C23.459 45.8782 23.1497 45.8038 22.8948 45.6306C22.6399 45.4573 22.4569 45.1971 22.3801 44.8986C21.4461 40.8957 21.1806 36.7661 21.5941 32.6766C20.2333 36.2788 19.4793 40.0817 19.3631 43.9305C19.3621 44.2663 19.2279 44.588 18.9898 44.8247C18.7517 45.0615 18.4293 45.194 18.0936 45.1931C17.7578 45.1921 17.4362 45.0578 17.1994 44.8198C16.9626 44.5817 16.8302 44.2594 16.8311 43.9236V43.9166C16.9478 39.8023 17.7456 35.7359 19.1921 31.8826C16.953 35.024 15.2521 38.516 14.1591 42.2156C14.0722 42.5399 13.8601 42.8165 13.5693 42.9844C13.2785 43.1524 12.9329 43.1979 12.6086 43.1111C12.2842 43.0242 12.0076 42.8121 11.8397 42.5213C11.6718 42.2305 11.6262 41.8849 11.7131 41.5606C12.8724 37.6171 14.6765 33.8928 17.0521 30.5386C14.0937 33.0051 11.5648 35.9449 9.56809 39.2386C9.4018 39.5303 9.1264 39.7441 8.80252 39.8328C8.47865 39.9215 8.13281 39.8778 7.84107 39.7116C7.54933 39.5453 7.33559 39.2699 7.24689 38.9461C7.15819 38.6222 7.20178 38.2763 7.36808 37.9846C9.49319 34.4647 12.1855 31.3204 15.3361 28.6786C11.8464 30.3122 8.65181 32.513 5.88208 35.1916C5.76567 35.3102 5.62703 35.4047 5.47409 35.4697C5.32116 35.5347 5.15693 35.5689 4.99076 35.5704C4.82459 35.572 4.65973 35.5408 4.50562 35.4786C4.35151 35.4164 4.21115 35.3245 4.09256 35.2081C3.97398 35.0917 3.87949 34.953 3.81449 34.8001C3.74948 34.6471 3.71525 34.4829 3.71372 34.3167C3.71219 34.1505 3.7434 33.9857 3.80558 33.8316C3.86775 33.6775 3.95967 33.5372 4.07608 33.4186C7.02958 30.5545 10.4353 28.1972 14.1561 26.4416C10.3641 27.1346 6.71331 28.4514 3.35208 30.3386C3.06393 30.511 2.71909 30.5618 2.39344 30.48C2.06778 30.3981 1.78796 30.1902 1.61557 29.902C1.44318 29.6139 1.39233 29.2691 1.47419 28.9434C1.55604 28.6178 1.76391 28.338 2.05207 28.1656C5.63225 26.1476 9.52078 24.7339 13.5611 23.9816C9.72266 23.6916 5.86273 24.0376 2.13709 25.0056C1.97672 25.0541 1.8083 25.0702 1.64164 25.0531C1.47497 25.036 1.31336 24.986 1.1662 24.9059C1.01904 24.8258 0.889245 24.7173 0.784366 24.5866C0.679486 24.456 0.601599 24.3058 0.55524 24.1448C0.50888 23.9838 0.494979 23.8152 0.514316 23.6488C0.533652 23.4823 0.585841 23.3214 0.66788 23.1753C0.74992 23.0292 0.860179 22.9009 0.992221 22.7978C1.12426 22.6947 1.27547 22.6188 1.43708 22.5746C5.42314 21.5338 9.55345 21.1567 13.6621 21.4586C10.0142 20.1975 6.18273 19.5491 2.32306 19.5396C2.15549 19.5462 1.98831 19.5194 1.83121 19.4607C1.67411 19.402 1.53027 19.3126 1.40808 19.1978C1.2859 19.0829 1.18783 18.9448 1.11957 18.7916C1.05131 18.6385 1.01422 18.4732 1.0105 18.3055C1.00678 18.1379 1.0365 17.9712 1.0979 17.8151C1.15931 17.6591 1.25117 17.5168 1.36814 17.3966C1.48511 17.2764 1.62484 17.1808 1.77918 17.1152C1.93352 17.0496 2.09936 17.0154 2.26706 17.0146C6.45778 17.0164 10.6187 17.7197 14.5771 19.0956C14.6521 18.9266 14.7621 18.7756 14.8461 18.6116C11.7287 16.2024 8.22865 14.3344 4.49207 13.0856C4.33038 13.0391 4.17959 12.961 4.0485 12.8555C3.9174 12.7501 3.80862 12.6196 3.72858 12.4716C3.64853 12.3237 3.59881 12.1612 3.58231 11.9938C3.5658 11.8264 3.58287 11.6574 3.63248 11.4967C3.68209 11.3359 3.76326 11.1867 3.87125 11.0577C3.97924 10.9287 4.11187 10.8225 4.26139 10.7454C4.4109 10.6683 4.57427 10.6218 4.74198 10.6086C4.90968 10.5954 5.07834 10.6158 5.23807 10.6686C9.22 11.9924 12.9522 13.9734 16.2801 16.5295C16.3651 16.4355 16.4311 16.3295 16.5201 16.2355C14.2688 13.0219 11.4934 10.2095 8.31006 7.9156C8.16969 7.82307 8.04918 7.70346 7.9556 7.56379C7.86202 7.42412 7.79726 7.2672 7.76508 7.10218C7.7329 6.93717 7.73395 6.76733 7.76819 6.60273C7.80243 6.43813 7.86916 6.28205 7.96448 6.14356C8.0598 6.00507 8.18179 5.88697 8.32331 5.79621C8.46483 5.70545 8.62304 5.6438 8.78867 5.61494C8.9543 5.58607 9.12403 5.59058 9.28791 5.62812C9.45179 5.66566 9.60652 5.73549 9.74308 5.83357C13.0852 8.22998 16.0074 11.1634 18.3911 14.5146C17.0413 10.9093 15.103 7.55269 12.6551 4.58155C12.5417 4.45649 12.4545 4.31005 12.3987 4.15076C12.3428 3.99148 12.3193 3.8226 12.3297 3.65412C12.3401 3.48564 12.3841 3.32096 12.4591 3.16975C12.5342 3.01854 12.6387 2.88388 12.7666 2.77369C12.8944 2.6635 13.0431 2.58 13.2037 2.52815C13.3643 2.47629 13.5337 2.45713 13.7019 2.47175C13.87 2.48637 14.0336 2.53449 14.1829 2.61329C14.3321 2.69209 14.4641 2.79995 14.5711 2.93055C17.1862 6.09114 19.2608 9.66231 20.7111 13.4996C20.3285 9.67879 19.3151 5.94786 17.7121 2.45856C17.5699 2.15754 17.552 1.81261 17.6622 1.49848C17.7725 1.18435 18.0021 0.926313 18.3012 0.78022C18.6004 0.634128 18.9451 0.611777 19.2606 0.717964C19.5761 0.824152 19.8371 1.05031 19.9871 1.34754C21.7091 5.06859 22.8048 9.04851 23.2301 13.1266C23.8315 9.33536 23.8004 5.47065 23.1381 1.68958C23.0761 1.36195 23.1459 1.02309 23.3321 0.746529C23.5184 0.469966 23.8062 0.277962 24.133 0.212166C24.4599 0.14637 24.7995 0.212125 25.0783 0.395089C25.357 0.578052 25.5524 0.86351 25.6221 1.18958C26.0152 3.23253 26.2065 5.30921 26.1931 7.3896C26.1826 9.41389 26.0322 11.435 25.7431 13.4385C27.2971 9.91587 28.2564 6.15998 28.5821 2.32356C28.6006 1.99431 28.7469 1.68529 28.9897 1.46223C29.2326 1.23917 29.553 1.11971 29.8826 1.12922C30.2122 1.13873 30.5251 1.2765 30.7548 1.51319C30.9844 1.74988 31.1126 2.06679 31.1121 2.39655C31.1121 2.42255 31.1121 2.44758 31.1121 2.47358C30.7747 6.5688 29.7609 10.5798 28.1121 14.3436C30.5115 11.3327 32.3951 7.94473 33.6861 4.31757C33.7351 4.15637 33.8158 4.00657 33.9234 3.87696C34.0311 3.74735 34.1635 3.64052 34.313 3.56275C34.4625 3.48498 34.6259 3.43785 34.7939 3.42408C34.9618 3.41031 35.1308 3.43017 35.2909 3.48255C35.4511 3.53493 35.5991 3.61879 35.7264 3.72913C35.8538 3.83948 35.9578 3.97413 36.0324 4.12519C36.107 4.27626 36.1507 4.44066 36.161 4.60883C36.1712 4.77701 36.1478 4.94556 36.0921 5.10456C34.7209 8.97918 32.7189 12.6006 30.1671 15.8226C33.2558 13.5201 35.9406 10.7207 38.1121 7.53858C38.2609 7.30963 38.4798 7.13486 38.736 7.04029C38.9922 6.94572 39.2721 6.93637 39.534 7.01368C39.796 7.09099 40.0259 7.25083 40.1897 7.46937C40.3535 7.6879 40.4424 7.95347 40.4431 8.22657C40.4439 8.4691 40.3744 8.70668 40.2431 8.91059C37.9312 12.3095 35.0733 15.3028 31.7851 17.7696C35.3569 16.3279 38.6651 14.3042 41.5751 11.7806C41.8234 11.5546 42.1511 11.4364 42.4865 11.4517C42.8219 11.4671 43.1375 11.6148 43.3641 11.8626C43.4762 11.985 43.563 12.1284 43.6196 12.2844C43.6762 12.4405 43.7014 12.6063 43.6938 12.7721C43.6862 12.9379 43.6459 13.1006 43.5752 13.2509C43.5046 13.4011 43.405 13.536 43.2821 13.6476C40.1772 16.3478 36.6482 18.5172 32.8371 20.0686C36.6613 19.581 40.3783 18.4632 43.8371 16.7606C43.9846 16.6779 44.1472 16.6257 44.3153 16.6069C44.4833 16.5882 44.6534 16.6033 44.8156 16.6514C44.9777 16.6996 45.1285 16.7797 45.2591 16.8872C45.3897 16.9946 45.4974 17.1271 45.5759 17.2769C45.6544 17.4266 45.7021 17.5906 45.7161 17.7592C45.7301 17.9277 45.7102 18.0973 45.6576 18.258C45.6049 18.4187 45.5206 18.5672 45.4095 18.6948C45.2985 18.8223 45.163 18.9263 45.0111 19.0006C41.3283 20.821 37.3705 22.0218 33.2971 22.5546C37.1127 23.0521 40.9844 22.9169 44.7561 22.1545C44.92 22.1108 45.0911 22.1006 45.2592 22.1245C45.4272 22.1483 45.5886 22.2058 45.734 22.2935C45.8793 22.3811 46.0054 22.4972 46.1049 22.6347C46.2043 22.7721 46.275 22.9283 46.3128 23.0938C46.3506 23.2592 46.3547 23.4305 46.3247 23.5975C46.2948 23.7646 46.2316 23.9239 46.1387 24.0659C46.0459 24.208 45.9253 24.3299 45.7843 24.4243C45.6433 24.5188 45.4848 24.5838 45.3181 24.6155ZM30.1841 20.7566C29.7431 19.4142 28.9136 18.2328 27.8007 17.3622C26.6877 16.4916 25.3415 15.9708 23.9323 15.866C22.5232 15.7611 21.1147 16.0768 19.8852 16.7731C18.6556 17.4694 17.6604 18.515 17.0256 19.7774C16.3907 21.0397 16.1449 22.4621 16.3191 23.8643C16.4933 25.2666 17.0798 26.5855 18.0042 27.6542C18.9286 28.7228 20.1494 29.4931 21.512 29.8673C22.8745 30.2416 24.3175 30.2031 25.6581 29.7566C27.4475 29.1573 28.9274 27.8749 29.7752 26.189C30.6231 24.5031 30.77 22.5504 30.1841 20.7566ZM25.5181 27.0476C24.6348 27.5057 23.6261 27.6624 22.6455 27.4938C21.6649 27.3253 20.7663 26.8407 20.0867 26.114C19.4072 25.3873 18.9839 24.4583 18.8814 23.4686C18.7788 22.479 19.0028 21.483 19.519 20.6324C20.0352 19.7818 20.8154 19.1234 21.7406 18.7575C22.6658 18.3915 23.6853 18.3382 24.6437 18.6055C25.6021 18.8729 26.4467 19.4463 27.0489 20.2383C27.6511 21.0304 27.9777 21.9976 27.9791 22.9926C27.982 23.8295 27.7538 24.6511 27.3195 25.3666C26.8853 26.0821 26.2619 26.6638 25.5181 27.0476ZM25.2181 22.0606C25.0328 21.7023 24.7454 21.4071 24.3922 21.2123C24.0391 21.0176 23.636 20.9319 23.2342 20.9663C22.8324 21.0007 22.4498 21.1535 22.1348 21.4055C21.8199 21.6574 21.5868 21.9971 21.465 22.3816C21.3432 22.7661 21.3383 23.1781 21.4508 23.5654C21.5633 23.9527 21.7882 24.2979 22.097 24.5573C22.4058 24.8167 22.7846 24.9787 23.1855 25.0227C23.5864 25.0667 23.9913 24.9908 24.3491 24.8046C24.8267 24.5544 25.1861 24.1255 25.3487 23.6115C25.5113 23.0974 25.464 22.5399 25.2171 22.0606H25.2181Z" fill="currentColor"/>
</svg>
