<svg viewBox="0 0 46 46" fill="none" xmlns="http://www.w3.org/2000/svg">
<path fill-rule="evenodd" clip-rule="evenodd" d="M45.2031 22.737C45.1737 27.5342 43.6174 32.1974 40.7596 36.0506C37.9019 39.9039 33.8913 42.7469 29.3092 44.1676C24.7271 45.5884 19.8116 45.5129 15.2753 43.9523C10.7389 42.3917 6.81744 39.4269 4.07928 35.4878C1.34111 31.5487 -0.0714382 26.84 0.0463635 22.0441C0.164165 17.2483 1.8062 12.6145 4.73446 8.81462C7.66272 5.0147 11.725 2.24605 16.3325 0.910014C20.94 -0.426017 25.8533 -0.260023 30.3601 1.38395C34.7201 2.99944 38.4802 5.91225 41.1341 9.73008C43.7879 13.5479 45.208 18.0874 45.2031 22.737ZM2.49612 22.724C2.49903 25.6605 3.14195 28.5612 4.38012 31.224C6.04471 34.8424 8.74848 37.8835 12.1471 39.9602C15.5458 42.037 19.4856 43.0552 23.4649 42.8855C27.4442 42.7157 31.2829 41.3656 34.4924 39.0069C37.7018 36.6483 40.1367 33.388 41.4871 29.641C42.5007 26.8812 42.8969 23.9328 42.6478 21.0034C42.3987 18.074 41.5104 15.2347 40.0454 12.6857C38.5805 10.1367 36.5745 7.93986 34.1687 6.24992C31.7629 4.55998 29.0159 3.41806 26.1211 2.90452C23.2263 2.39098 20.2541 2.51833 17.4139 3.27763C14.5736 4.03693 11.9344 5.40968 9.682 7.29924C7.42963 9.18879 5.61892 11.5492 4.37739 14.2142C3.13585 16.8792 2.49368 19.784 2.49612 22.724ZM26.8931 22.719C26.8919 23.5371 26.6583 24.3381 26.2194 25.0286C25.7805 25.7191 25.1544 26.2707 24.4141 26.619C23.9044 26.8589 23.3521 26.9949 22.7893 27.0191C22.2265 27.0433 21.6645 26.9552 21.1361 26.76C20.0631 26.3699 19.1889 25.5694 18.706 24.5348C18.2231 23.5001 18.171 22.316 18.5611 21.243C18.9513 20.1699 19.7517 19.2958 20.7863 18.8128C21.821 18.3299 23.0051 18.2778 24.0781 18.6679C24.9052 18.9744 25.6184 19.5271 26.1218 20.2514C26.6251 20.9758 26.8943 21.8369 26.8931 22.719ZM20.8161 22.713C20.8154 23.0815 20.9278 23.4413 21.1381 23.7439C21.3484 24.0465 21.6465 24.2772 21.9921 24.4049C22.2135 24.4868 22.4489 24.524 22.6847 24.5143C22.9206 24.5046 23.1521 24.4483 23.3661 24.3485C23.58 24.2487 23.7719 24.1074 23.9309 23.933C24.0899 23.7585 24.2126 23.5542 24.2921 23.332C24.3829 23.0862 24.4187 22.8235 24.3969 22.5624C24.3752 22.3012 24.2964 22.048 24.1662 21.8207C24.036 21.5933 23.8576 21.3972 23.6434 21.2463C23.4292 21.0953 23.1845 20.9932 22.9266 20.9471C22.6686 20.9009 22.4037 20.9119 22.1505 20.9793C21.8973 21.0466 21.6619 21.1687 21.4609 21.3369C21.26 21.5051 21.0984 21.7153 20.9875 21.9527C20.8766 22.1901 20.8191 22.449 20.8191 22.711L20.8161 22.713ZM23.2761 39.464C23.2761 39.478 23.2761 39.494 23.2761 39.508C23.2708 39.6721 23.2332 39.8335 23.1656 39.9831C23.0979 40.1326 23.0013 40.2674 22.8816 40.3797C22.7618 40.492 22.621 40.5796 22.4674 40.6374C22.3138 40.6953 22.1502 40.7223 21.9861 40.717C17.6647 40.5602 13.5453 38.8478 10.3861 35.895C10.1441 35.6675 10.0018 35.3535 9.99038 35.0215C9.97895 34.6896 10.0993 34.3666 10.3251 34.123C10.4365 34.0027 10.5706 33.9056 10.7196 33.8373C10.8686 33.7689 11.0297 33.7308 11.1935 33.7249C11.3574 33.719 11.5207 33.7456 11.6743 33.8031C11.8278 33.8606 11.9684 33.9479 12.0881 34.06C14.8074 36.5994 18.351 38.0735 22.0691 38.212C22.3931 38.2234 22.6999 38.3601 22.9251 38.5932C23.1502 38.8264 23.2761 39.1378 23.2761 39.462V39.464Z" fill="currentColor"/>
</svg>
