<svg width="24" height="12" viewBox="0 0 24 12" fill="none" xmlns="http://www.w3.org/2000/svg">
<path fill-rule="evenodd" clip-rule="evenodd" d="M22.6238 2.41919C22.573 2.2954 22.4866 2.18949 22.3755 2.11487C22.2644 2.04024 22.1336 2.00026 21.9998 2H19.3358V0.666407C19.3346 0.489088 19.2631 0.319466 19.1372 0.194605C19.0113 0.0697441 18.8411 -0.000215386 18.6638 4.98158e-07H7.42383C7.33646 0.000105384 7.24991 0.0174207 7.16924 0.0509771C7.08857 0.0845334 7.01538 0.133666 6.95371 0.195557C6.89204 0.257449 6.84313 0.330905 6.80986 0.411695C6.7766 0.492485 6.75955 0.579037 6.75977 0.666407V2H3.31982C3.14698 2.00599 2.98315 2.07885 2.86299 2.20325C2.74283 2.32764 2.67568 2.49384 2.67568 2.6668C2.67568 2.83975 2.74283 3.00595 2.86299 3.13035C2.98315 3.25474 3.14698 3.32761 3.31982 3.33359H6.75977V4.66641H1.98379C1.81094 4.67239 1.64721 4.74526 1.52705 4.86965C1.40689 4.99405 1.33975 5.16025 1.33975 5.3332C1.33975 5.50616 1.40689 5.67236 1.52705 5.79675C1.64721 5.92115 1.81094 5.99401 1.98379 6H6.75977V10C6.75955 10.0874 6.7766 10.1739 6.80986 10.2547C6.84313 10.3355 6.89204 10.4089 6.95371 10.4708C7.01538 10.5327 7.08857 10.5818 7.16924 10.6154C7.24991 10.649 7.33646 10.6663 7.42383 10.6664H8.86377C8.99267 11.0546 9.24064 11.3924 9.57236 11.6318C9.90408 11.8712 10.3027 12 10.7118 12C11.1209 12 11.5196 11.8712 11.8513 11.6318C12.183 11.3924 12.4309 11.0546 12.5598 10.6664H18.2078C18.3367 11.0546 18.5846 11.3924 18.9163 11.6318C19.248 11.8712 19.6467 12 20.0558 12C20.4648 12 20.8636 11.8712 21.1953 11.6318C21.527 11.3924 21.7749 11.0546 21.9038 10.6664H23.3358C23.5132 10.6666 23.6834 10.5967 23.8093 10.4718C23.9352 10.3469 24.0065 10.1773 24.0078 10V6C24.004 5.91543 23.9878 5.83189 23.9598 5.752L22.6238 2.41919ZM10.7118 10.6664C10.5905 10.6659 10.4721 10.6295 10.3715 10.5618C10.2709 10.494 10.1926 10.398 10.1466 10.2858C10.1005 10.1736 10.0888 10.0502 10.1128 9.93132C10.1368 9.81243 10.1955 9.70334 10.2814 9.6178C10.3674 9.53226 10.4769 9.47412 10.5959 9.45073C10.7149 9.42734 10.8381 9.43974 10.9501 9.48638C11.0621 9.53301 11.1577 9.61179 11.2249 9.71274C11.2921 9.8137 11.328 9.9323 11.3278 10.0536C11.3268 10.2163 11.2614 10.3721 11.146 10.4869C11.0306 10.6017 10.8746 10.6662 10.7118 10.6664ZM17.9998 9.33359H12.5198C12.3759 8.97158 12.1266 8.66111 11.8043 8.44236C11.4819 8.22361 11.1014 8.10667 10.7118 8.10667C10.3223 8.10667 9.94168 8.22361 9.61934 8.44236C9.29699 8.66111 9.04771 8.97158 8.90381 9.33359H8.0958V6H9.9918C10.1646 5.99401 10.3285 5.92115 10.4486 5.79675C10.5688 5.67236 10.6359 5.50616 10.6359 5.3332C10.6359 5.16025 10.5688 4.99405 10.4486 4.86965C10.3285 4.74526 10.1646 4.67239 9.9918 4.66641H8.0958V3.33359H12.6558C12.8286 3.32761 12.9924 3.25474 13.1126 3.13035C13.2328 3.00595 13.2999 2.83975 13.2999 2.6668C13.2999 2.49384 13.2328 2.32764 13.1126 2.20325C12.9924 2.07885 12.8286 2.00599 12.6558 2H8.0958V1.33359H17.9998V9.33359ZM20.0558 10.6664C19.9341 10.6675 19.8149 10.6325 19.7133 10.5657C19.6116 10.4989 19.5321 10.4034 19.4849 10.2913C19.4376 10.1793 19.4246 10.0557 19.4478 9.93628C19.4709 9.81686 19.529 9.707 19.6146 9.62065C19.7003 9.53431 19.8097 9.47539 19.9289 9.45134C20.0481 9.4273 20.1718 9.43922 20.2843 9.48562C20.3967 9.53202 20.4928 9.61078 20.5604 9.71191C20.6279 9.81304 20.6639 9.93196 20.6638 10.0536C20.664 10.2153 20.6002 10.3706 20.4862 10.4854C20.3723 10.6003 20.2175 10.6653 20.0558 10.6664ZM22.6718 9.33359H21.8638C21.7189 8.97223 21.4695 8.66237 21.1474 8.44373C20.8252 8.22508 20.4451 8.10761 20.0558 8.1064C19.8089 8.10567 19.5644 8.15324 19.3358 8.24641V3.33359H21.5518L21.8158 4H20.6638C20.5764 4.0001 20.4899 4.01742 20.4093 4.05098C20.3286 4.08453 20.2553 4.13367 20.1937 4.19556C20.132 4.25745 20.0832 4.3309 20.0499 4.41169C20.0166 4.49248 19.9996 4.57904 19.9998 4.66641V6C19.9996 6.08737 20.0166 6.17392 20.0499 6.25471C20.0832 6.3355 20.132 6.40893 20.1937 6.47083C20.2553 6.53272 20.3286 6.58185 20.4093 6.61541C20.4899 6.64896 20.5764 6.6663 20.6638 6.66641H22.6718V9.33359ZM5.31982 7.33359H0.647852C0.471111 7.33359 0.301537 7.40381 0.176562 7.52878C0.0515883 7.65376 -0.0185547 7.82326 -0.0185547 8C-0.0185547 8.17674 0.0515883 8.34624 0.176562 8.47122C0.301537 8.59619 0.471111 8.66641 0.647852 8.66641H5.31982C5.49656 8.66641 5.66604 8.59619 5.79102 8.47122C5.91599 8.34624 5.98623 8.17674 5.98623 8C5.98623 7.82326 5.91599 7.65376 5.79102 7.52878C5.66604 7.40381 5.49656 7.33359 5.31982 7.33359Z" fill="black"/>
</svg>
