<svg viewBox="0 0 45 46" fill="none" xmlns="http://www.w3.org/2000/svg">
<path fill-rule="evenodd" clip-rule="evenodd" d="M43.884 41.1306L39.554 45.5956C39.4419 45.7136 39.307 45.8076 39.1574 45.8718C39.0078 45.936 38.8468 45.9691 38.684 45.9691C38.5213 45.9691 38.3601 45.936 38.2106 45.8718C38.061 45.8076 37.9261 45.7136 37.814 45.5956L21.394 28.6516C20.8472 28.4727 20.3587 28.1497 19.98 27.7166C19.4097 27.0487 19.117 26.1876 19.162 25.3105L19.178 25.0106C19.1937 24.7448 19.2298 24.4808 19.286 24.2206C17.9873 24.0996 16.7749 23.517 15.869 22.5786L11.781 18.3605C11.6643 18.2373 11.5733 18.092 11.5134 17.9332C11.4535 17.7743 11.4258 17.6052 11.432 17.4355C9.69302 16.3163 8.34023 14.6895 7.55701 12.7756C6.54562 12.5321 5.62421 12.0064 4.90002 11.2596L0.813965 7.04358C0.747367 6.97028 0.689638 6.88936 0.641968 6.80255C0.548954 6.73916 0.461021 6.66861 0.378967 6.59155C0.132137 6.33658 -0.00712573 5.99641 -0.0100098 5.64154L0.065979 1.44159C0.0672461 1.11411 0.196902 0.800165 0.427063 0.5672C0.657224 0.334234 0.969553 0.20079 1.297 0.195557H5.29401C5.45678 0.196162 5.61776 0.229501 5.7674 0.293579C5.91703 0.357657 6.05222 0.451153 6.16498 0.568542L9.50397 4.01355C9.73686 4.25513 9.86639 4.57802 9.86499 4.91357V4.93854L9.854 5.55554C10.7121 5.68029 11.5053 6.08412 12.111 6.70459L16.533 11.2696C16.6675 11.4154 16.7658 11.5907 16.82 11.7816C18.22 12.9926 19.978 14.8886 20.086 16.7896L20.561 16.8286C21.5161 16.9076 22.4098 17.3316 23.075 18.0215L23.119 18.0676L27.433 22.4846C27.7522 22.6635 28.0395 22.8943 28.283 23.1675C28.4391 23.3536 28.5764 23.5546 28.693 23.7676L43.873 39.3256C43.9912 39.4436 44.0847 39.584 44.1483 39.7385C44.2118 39.893 44.2439 40.0585 44.243 40.2256C44.2451 40.5624 44.1163 40.8868 43.884 41.1306ZM26.614 25.2256L26.124 24.7256L21.785 24.4146C21.7029 24.6532 21.6528 24.9017 21.636 25.1536L21.62 25.4536C21.6108 25.6583 21.6807 25.8588 21.815 26.0136C21.9493 26.1684 22.138 26.2658 22.342 26.2856L25.814 26.4855C25.9162 26.4908 26.0185 26.4756 26.1148 26.4409C26.2111 26.4062 26.2996 26.3526 26.375 26.2834C26.4504 26.2141 26.5113 26.1306 26.554 26.0375C26.5968 25.9445 26.6206 25.8439 26.624 25.7416L26.644 25.4416C26.6394 25.3689 26.6294 25.2967 26.614 25.2256ZM4.77997 2.73755H2.505L2.46497 4.92554L2.50702 4.93756L7.28699 5.32355L4.77997 2.73755ZM10.367 8.50159C10.111 8.2358 9.76679 8.07254 9.39899 8.04254L8.53497 7.97253C7.70097 7.99153 6.43502 7.99255 5.12402 7.89655L6.64099 9.46356C7.15554 9.99515 7.84568 10.3217 8.58301 10.3826L12.183 10.3716L10.367 8.50159ZM14.817 13.3785L10.463 13.0656C11.3167 14.2127 12.4083 15.1616 13.663 15.8475C13.8582 15.9554 14.0204 16.1144 14.132 16.3076L17.571 16.5845C16.9148 15.3162 15.9719 14.2185 14.817 13.3785ZM20.364 19.3575L15.881 18.9976L17.609 20.7816C18.1284 21.3194 18.8274 21.6475 19.573 21.7036L23.286 21.9706C23.317 21.9576 23.343 21.9365 23.376 21.9255L21.335 19.8206C21.0777 19.5543 20.7329 19.3899 20.364 19.3575ZM28.664 27.3226C28.3779 27.8579 27.9464 28.3016 27.4192 28.6024C26.8919 28.9031 26.2905 29.0488 25.684 29.0226L25.204 28.9955L38.684 42.9045L41.264 40.2405L28.664 27.3226Z" fill="currentColor"/>
</svg>
