<svg width="21" height="16" viewBox="0 0 21 16" fill="none" xmlns="http://www.w3.org/2000/svg">
<path d="M18.5 14H2.5V4H18.5V14ZM18.5 2H10.5L8.5 0H2.5C1.96957 0 1.46086 0.210714 1.08579 0.585786C0.710714 0.960859 0.5 1.46957 0.5 2V14C0.5 14.5304 0.710714 15.0391 1.08579 15.4142C1.46086 15.7893 1.96957 16 2.5 16H18.5C19.0304 16 19.5391 15.7893 19.9142 15.4142C20.2893 15.0391 20.5 14.5304 20.5 14V4C20.5 3.46957 20.2893 2.96086 19.9142 2.58579C19.5391 2.21071 19.0304 2 18.5 2ZM14.5 13H12.5V9H9.5L13.5 5L17.5 9H14.5V13Z"/>
</svg>
