<svg width="21" height="16" viewBox="0 0 21 16" fill="none" xmlns="http://www.w3.org/2000/svg">
<path d="M18.5 14.5H19V14V4V3.5H18.5H2.5H2V4V14V14.5H2.5H18.5ZM10.1464 2.35355L10.2929 2.5H10.5H18.5C18.8978 2.5 19.2794 2.65804 19.5607 2.93934C19.842 3.22064 20 3.60218 20 4V14C20 14.3978 19.842 14.7794 19.5607 15.0607C19.2794 15.342 18.8978 15.5 18.5 15.5H2.5C2.10218 15.5 1.72064 15.342 1.43934 15.0607C1.15804 14.7794 1 14.3978 1 14V2C1 1.60218 1.15804 1.22064 1.43934 0.93934C1.72064 0.658035 2.10218 0.5 2.5 0.5H8.29289L10.1464 2.35355ZM12.5 8.5H10.7071L13.5 5.70711L16.2929 8.5H14.5H14V9V12.5H13V9V8.5H12.5Z" fill="#828282" stroke="#828282"/>
</svg>
