<svg viewBox="0 0 50 51" fill="none" xmlns="http://www.w3.org/2000/svg">
<path fill-rule="evenodd" clip-rule="evenodd" d="M49.6167 46.4896C49.6399 46.98 49.5647 47.4702 49.3957 47.9312C49.2266 48.3922 48.9671 48.8148 48.6324 49.174C47.8917 49.9296 46.0892 50.9437 42.3687 49.2376C39.612 47.8669 37.1179 46.022 35.0004 43.7872C32.4443 41.3212 30.4544 38.3295 29.1681 35.019C29.0965 34.8112 27.5465 30.4454 22.8537 30.4812H22.8477H22.8417C22.7202 30.4741 22.6004 30.4496 22.4858 30.4086C22.2678 30.3524 22.0678 30.2412 21.9051 30.0855L0.909671 8.70923C0.659827 8.45315 0.52002 8.10954 0.52002 7.75176C0.52002 7.39399 0.659827 7.05044 0.909671 6.79435L7.0263 0.567401C7.14844 0.441636 7.29453 0.34166 7.456 0.273388C7.61748 0.205116 7.79104 0.169922 7.96635 0.169922C8.14167 0.169922 8.31517 0.205116 8.47665 0.273388C8.63812 0.34166 8.78427 0.441636 8.90641 0.567401L29.9028 21.9437C30.1503 22.2004 30.2892 22.5426 30.2906 22.8991C30.2886 22.9239 30.2886 22.9488 30.2906 22.9736C30.3034 24.3608 30.7364 25.7114 31.5325 26.8474C32.3286 27.9834 33.4503 28.8514 34.7498 29.3368C34.7677 29.3438 34.7816 29.3577 34.7995 29.3647C38.044 30.6996 40.961 32.7211 43.35 35.2903C47.153 39.1719 49.6167 43.5695 49.6167 46.4896ZM29.3023 30.4245C29.4173 30.2375 29.5505 30.0623 29.7 29.9016C29.8588 29.741 30.0341 29.5977 30.223 29.474C29.2047 28.4267 28.4501 27.1521 28.0218 25.7556L25.6356 28.1805C27.0215 28.6211 28.2798 29.3915 29.3023 30.4256V30.4245ZM7.95689 3.43878L3.72243 7.75079L22.8368 27.2151L27.0722 22.9021L7.95689 3.43878ZM31.5861 31.8224C31.4303 32.0477 31.3579 32.3202 31.3813 32.593C31.402 33.125 31.5025 33.6508 31.6795 34.1529C32.827 37.073 34.5995 39.7067 36.8725 41.8693C38.7628 43.873 40.9894 45.5303 43.4514 46.766C45.2411 47.5852 46.4143 47.5941 46.7464 47.2571C46.9024 47.0324 46.9749 46.7601 46.9512 46.4875C46.9512 44.7108 45.2321 41.048 41.456 37.2033C36.7572 32.417 32.3944 30.9962 31.5861 31.8175V31.8224ZM42.3697 44.9674C42.066 44.6756 41.8884 44.2767 41.8747 43.8558C41.8609 43.4349 42.0122 43.0254 42.2961 42.7144C42.5935 42.4288 42.9899 42.2692 43.4022 42.2692C43.8146 42.2692 44.2109 42.4288 44.5083 42.7144C44.8019 43.0159 44.9662 43.4201 44.9662 43.8409C44.9662 44.2617 44.8019 44.6659 44.5083 44.9674C44.2205 45.2429 43.8374 45.3968 43.439 45.3968C43.0405 45.3968 42.6575 45.2429 42.3697 44.9674Z" fill="currentColor"/>
</svg>
