<svg viewBox="0 0 45 45" fill="none" xmlns="http://www.w3.org/2000/svg">
<path fill-rule="evenodd" clip-rule="evenodd" d="M25.567 22.4446C25.5661 23.1663 25.3191 23.866 24.8668 24.4284C24.4145 24.9907 23.784 25.3821 23.0793 25.5378C22.3746 25.6934 21.638 25.6042 20.9909 25.2848C20.3437 24.9653 19.8249 24.4347 19.52 23.7806C19.3219 23.3507 19.2225 22.8818 19.2294 22.4084C19.2362 21.935 19.349 21.4692 19.5595 21.0451C19.77 20.6211 20.0728 20.2496 20.4457 19.9579C20.8186 19.6663 21.2521 19.4618 21.7144 19.3597C22.1766 19.2576 22.6559 19.2603 23.117 19.3677C23.5781 19.4751 24.0092 19.6845 24.3788 19.9804C24.7483 20.2763 25.0469 20.6512 25.2525 21.0777C25.4581 21.5041 25.5656 21.9712 25.567 22.4446ZM21.698 22.4446C21.6985 22.5452 21.7207 22.6444 21.763 22.7356C21.8353 22.8903 21.9622 23.0128 22.1194 23.0796C22.2766 23.1464 22.4529 23.1527 22.6144 23.0973C22.7759 23.0419 22.9113 22.9288 22.9944 22.7796C23.0776 22.6305 23.1026 22.4559 23.0648 22.2893C23.0269 22.1228 22.9289 21.9762 22.7894 21.8777C22.65 21.7791 22.479 21.7355 22.3094 21.7554C22.1398 21.7753 21.9835 21.8572 21.8707 21.9853C21.7578 22.1135 21.6963 22.2789 21.698 22.4496V22.4446ZM15.98 32.0086C15.9772 32.7287 15.7293 33.4264 15.2773 33.987C14.8253 34.5476 14.1959 34.9377 13.4928 35.0932C12.7896 35.2486 12.0545 35.1602 11.4083 34.8424C10.762 34.5247 10.2432 33.9964 9.93702 33.3446C9.58335 32.5821 9.54707 31.7104 9.83616 30.9211C10.1252 30.1319 10.716 29.4897 11.4785 29.1361C12.241 28.7824 13.1128 28.7462 13.902 29.0352C14.6913 29.3243 15.3334 29.9151 15.687 30.6776C15.881 31.0962 15.981 31.5522 15.98 32.0136V32.0086ZM12.111 32.0086C12.1122 32.1251 12.1425 32.2396 12.1991 32.3415C12.2557 32.4434 12.3368 32.5295 12.4352 32.5921C12.5335 32.6547 12.6459 32.6917 12.7622 32.6998C12.8785 32.7079 12.9949 32.6869 13.101 32.6386C13.2676 32.56 13.3965 32.419 13.4597 32.246C13.523 32.073 13.5156 31.8821 13.439 31.7146C13.3695 31.5733 13.2543 31.4596 13.1122 31.3919C12.9701 31.3241 12.8093 31.3062 12.6558 31.3412C12.5022 31.3761 12.365 31.4618 12.2661 31.5843C12.1673 31.7069 12.1126 31.8591 12.111 32.0166V32.0086ZM26.628 35.8676C26.6269 36.319 26.5295 36.7649 26.3422 37.1756C26.1548 37.5863 25.8819 37.9523 25.5418 38.249C25.2016 38.5457 24.802 38.7663 24.3696 38.8961C23.9373 39.026 23.4822 39.062 23.0349 39.0017C22.5875 38.9415 22.1582 38.7864 21.7756 38.5468C21.393 38.3072 21.066 37.9887 20.8165 37.6125C20.5669 37.2364 20.4006 36.8113 20.3286 36.3657C20.2566 35.9201 20.2806 35.4642 20.399 35.0286C20.6023 34.2876 21.0677 33.6456 21.7088 33.222C22.3498 32.7984 23.1229 32.6219 23.8843 32.7254C24.6457 32.829 25.3435 33.2055 25.8482 33.7849C26.3529 34.3643 26.63 35.1072 26.628 35.8756V35.8676ZM22.76 35.8676C22.7608 35.9882 22.7925 36.1067 22.852 36.2116C22.9318 36.3527 23.058 36.4619 23.2092 36.5203C23.3605 36.5787 23.5273 36.5828 23.6812 36.5319C23.8351 36.481 23.9666 36.3783 24.0532 36.2412C24.1398 36.1042 24.1762 35.9414 24.1561 35.7805C24.136 35.6196 24.0606 35.4707 23.943 35.3592C23.8253 35.2477 23.6726 35.1805 23.5108 35.169C23.3491 35.1576 23.1885 35.2026 23.0563 35.2965C22.9241 35.3903 22.8286 35.5272 22.786 35.6836C22.7685 35.7454 22.7598 35.8094 22.76 35.8736V35.8676ZM36.46 30.2366C36.4599 30.4328 36.4418 30.6287 36.406 30.8216C36.2609 31.6175 35.8146 32.3269 35.16 32.8022C34.5054 33.2776 33.6928 33.4824 32.8911 33.3741C32.0893 33.2658 31.3601 32.8527 30.8551 32.2207C30.3501 31.5887 30.108 30.7864 30.1793 29.9805C30.2505 29.1746 30.6295 28.4272 31.2376 27.8936C31.8456 27.36 32.6359 27.0811 33.4442 27.1151C34.2525 27.1492 35.0166 27.4933 35.5777 28.0761C36.1388 28.659 36.4538 29.4356 36.457 30.2446L36.46 30.2366ZM32.593 30.2446C32.5931 30.3846 32.6357 30.5213 32.715 30.6366C32.8101 30.7724 32.9507 30.8696 33.1113 30.9104C33.272 30.9513 33.442 30.9331 33.5903 30.8592C33.7387 30.7853 33.8556 30.6607 33.9199 30.5078C33.9841 30.355 33.9913 30.1843 33.9403 30.0266C33.8892 29.8689 33.7832 29.7348 33.6416 29.6486C33.5 29.5624 33.3322 29.53 33.1686 29.5571C33.0051 29.5842 32.8568 29.6691 32.7506 29.7964C32.6444 29.9237 32.5874 30.0848 32.59 30.2506L32.593 30.2446ZM38.505 19.1226C38.503 19.7759 38.2993 20.4127 37.9217 20.9459C37.5441 21.4791 37.0111 21.8827 36.3955 22.1015C35.7799 22.3204 35.1118 22.3438 34.4824 22.1686C33.853 21.9933 33.293 21.628 32.879 21.1226C32.6131 20.8024 32.4141 20.432 32.2939 20.0335C32.1737 19.635 32.1346 19.2164 32.179 18.8026C32.2554 17.9885 32.6434 17.2354 33.2619 16.7007C33.8805 16.1659 34.6817 15.8908 35.4983 15.9329C36.3149 15.975 37.0836 16.331 37.6439 16.9265C38.2042 17.522 38.5127 18.3109 38.505 19.1286V19.1226ZM34.639 19.1226C34.6386 19.2823 34.6937 19.4371 34.795 19.5606C34.9124 19.7029 35.0814 19.7932 35.265 19.8116C35.4016 19.825 35.539 19.7975 35.6599 19.7328C35.7809 19.6681 35.88 19.569 35.9446 19.448C36.0093 19.327 36.0366 19.1895 36.0232 19.053C36.0098 18.9165 35.9562 18.787 35.8693 18.6809C35.7823 18.5748 35.6659 18.4969 35.5346 18.4569C35.4034 18.417 35.2632 18.4168 35.1319 18.4565C35.0006 18.4962 34.8839 18.5739 34.7968 18.6798C34.7096 18.7857 34.6557 18.9151 34.642 19.0516C34.637 19.0846 34.637 19.1076 34.637 19.1316L34.639 19.1226ZM31.323 10.3756C31.323 10.3936 31.323 10.4126 31.323 10.4336C31.3164 10.8493 31.2275 11.2595 31.0613 11.6405C30.8952 12.0216 30.6552 12.3659 30.355 12.6536C29.7496 13.237 28.9374 13.5564 28.0967 13.5416C27.256 13.5268 26.4555 13.179 25.871 12.5746C25.579 12.278 25.3498 11.9254 25.1972 11.5381C25.0447 11.1508 24.9718 10.7367 24.983 10.3206C25.0104 9.49267 25.3607 8.70837 25.959 8.13541C26.5573 7.56244 27.3559 7.24631 28.1843 7.25467C29.0126 7.26303 29.8048 7.59522 30.3914 8.18015C30.9779 8.76507 31.3123 9.55631 31.323 10.3846V10.3756ZM27.456 10.3756C27.458 10.5112 27.4994 10.6434 27.5751 10.756C27.6509 10.8686 27.7577 10.9567 27.8826 11.0097C28.0075 11.0626 28.1452 11.0782 28.2788 11.0544C28.4123 11.0306 28.5361 10.9684 28.635 10.8756C28.7011 10.8122 28.754 10.7364 28.7905 10.6524C28.8271 10.5685 28.8466 10.4782 28.848 10.3866C28.8513 10.2955 28.8357 10.2047 28.8023 10.1199C28.7689 10.0351 28.7184 9.95805 28.654 9.89359C28.5253 9.76059 28.3491 9.684 28.164 9.68057C28.0727 9.67885 27.982 9.69514 27.897 9.72849C27.8121 9.76183 27.7345 9.81158 27.6687 9.87491C27.603 9.93824 27.5504 10.014 27.5139 10.0976C27.4774 10.1813 27.4577 10.2713 27.456 10.3626V10.3746V10.3756ZM19.994 10.2056C19.9914 11.0272 19.6698 11.8157 19.0971 12.4049C18.5244 12.994 17.7453 13.3378 16.9241 13.3637C16.1029 13.3897 15.3037 13.0958 14.695 12.5439C14.0862 11.9921 13.7155 11.2254 13.661 10.4056C13.6306 9.99055 13.6841 9.57361 13.8183 9.17966C13.9525 8.78571 14.1646 8.42279 14.442 8.11258C14.8556 7.64194 15.3992 7.30437 16.0045 7.14243C16.6097 6.98048 17.2493 7.00144 17.8426 7.20267C18.4359 7.4039 18.9563 7.77639 19.3382 8.2731C19.72 8.76982 19.9461 9.36852 19.988 9.99362C19.993 10.0746 19.994 10.1446 19.994 10.2156V10.2056ZM16.128 10.1986C16.128 10.2146 16.128 10.2296 16.128 10.2466C16.1385 10.3833 16.1889 10.514 16.273 10.6223C16.357 10.7306 16.471 10.8119 16.6009 10.856C16.7307 10.9001 16.8706 10.9051 17.0033 10.8703C17.1359 10.8356 17.2555 10.7627 17.347 10.6606C17.4089 10.5926 17.456 10.5125 17.4854 10.4254C17.5148 10.3384 17.5259 10.2461 17.518 10.1546C17.5124 10.0638 17.4886 9.97513 17.448 9.89371C17.4075 9.81229 17.3511 9.73979 17.282 9.68057C17.143 9.55976 16.9619 9.49862 16.7781 9.51041C16.5943 9.5222 16.4225 9.60603 16.3 9.74362C16.1862 9.87145 16.1248 10.0375 16.128 10.2086V10.1986ZM44.789 22.5886C44.7858 28.3821 42.5374 33.9489 38.5162 38.1195C34.495 42.2902 29.014 44.7402 23.2245 44.9547C17.435 45.1693 11.7876 43.1318 7.46867 39.2703C3.14977 35.4087 0.495488 30.0237 0.0633923 24.2463C-0.368704 18.469 1.45502 12.749 5.15147 8.28794C8.84791 3.82691 14.1294 0.97203 19.8864 0.32303C25.6434 -0.325969 31.4279 1.28142 36.0248 4.80753C40.6216 8.33364 43.673 13.504 44.538 19.2326C44.7054 20.3468 44.7892 21.4719 44.789 22.5986V22.5886ZM2.45301 22.5156C2.44262 25.9214 3.30515 29.2731 4.95832 32.2508C6.61149 35.2285 9.00014 37.7329 11.8963 39.5251C14.7925 41.3172 18.0997 42.3372 21.5022 42.4879C24.9047 42.6386 28.289 41.9148 31.3323 40.3857C34.3756 38.8566 36.9763 36.5732 38.8862 33.7533C40.7961 30.9333 41.9515 27.671 42.2422 24.2776C42.5329 20.8842 41.9492 17.4729 40.5467 14.3692C39.1442 11.2656 36.9699 8.57306 34.231 6.54862C31.2688 4.35268 27.7551 3.02218 24.0813 2.70535C20.4075 2.38853 16.7179 3.09777 13.4234 4.75412C10.129 6.41048 7.35903 8.94892 5.4221 12.0866C3.48516 15.2244 2.45729 18.8382 2.45301 22.5256V22.5156ZM12.544 20.4656C12.544 21.1787 12.3037 21.871 11.8617 22.4306C11.4197 22.9902 10.8019 23.3844 10.1082 23.5495C9.41449 23.7147 8.68538 23.6411 8.03864 23.3407C7.39191 23.0403 6.86534 22.5307 6.54404 21.8941C6.22274 21.2575 6.12545 20.5311 6.26792 19.8324C6.4104 19.1337 6.78432 18.5034 7.32923 18.0434C7.87414 17.5834 8.55819 17.3206 9.27091 17.2974C9.98363 17.2742 10.6834 17.492 11.257 17.9156C11.5922 18.1615 11.8752 18.4714 12.0898 18.8274C12.3044 19.1834 12.4462 19.5784 12.507 19.9896C12.5313 20.1505 12.5436 20.3129 12.544 20.4756V20.4656ZM8.67701 20.4596C8.67536 20.5798 8.70471 20.6984 8.76218 20.8039C8.81966 20.9095 8.90335 20.9985 9.0052 21.0623C9.10704 21.1261 9.22361 21.1627 9.34367 21.1684C9.46373 21.1741 9.58323 21.1488 9.69068 21.0949C9.79813 21.0411 9.88988 20.9604 9.95713 20.8608C10.0244 20.7612 10.0648 20.646 10.0746 20.5262C10.0844 20.4064 10.0632 20.2861 10.013 20.1769C9.96278 20.0676 9.88532 19.9732 9.78803 19.9026C9.68402 19.8249 9.5603 19.7778 9.43092 19.7668C9.30154 19.7558 9.17166 19.7812 9.05601 19.8402C8.94035 19.8993 8.84354 19.9895 8.77656 20.1007C8.70957 20.212 8.67508 20.3397 8.67701 20.4696V20.4596Z" fill="currentColor"/>
</svg>
