<svg width="24" height="21" viewBox="0 0 24 21" xmlns="http://www.w3.org/2000/svg">
<path d="M17.4872 1.79999C15.1872 1.79999 13.1872 3.38822 12.3872 5.50587C12.3872 5.50587 12.3872 5.50587 12.3872 5.39999C12.3872 5.39999 12.3872 5.39999 12.3872 5.50587C11.5872 3.38822 9.58721 1.79999 7.28721 1.79999C4.28721 1.79999 1.88721 4.34116 1.88721 7.41175C1.88721 9.31764 3.78721 11.9647 5.28721 13.6588C6.18721 14.7176 7.18721 15.6706 8.18721 16.4118L12.2872 19.8L16.3872 16.4118C17.3872 15.5647 18.3872 14.6118 19.2872 13.6588C20.9872 11.8588 22.8872 9.31764 22.8872 7.41175C22.8872 4.34116 20.4872 1.79999 17.4872 1.79999Z" stroke-width="2" fill="currentColor" stroke-linejoin="round"/>
</svg>
