<svg viewBox="0 0 21 15" fill="none" xmlns="http://www.w3.org/2000/svg">
<path d="M8.30005 10.4082L13.49 7.4082L8.30005 4.4082V10.4082ZM19.86 2.5782C19.99 3.0482 20.08 3.6782 20.14 4.4782C20.21 5.2782 20.24 5.9682 20.24 6.5682L20.3 7.4082C20.3 9.5982 20.14 11.2082 19.86 12.2382C19.61 13.1382 19.03 13.7182 18.13 13.9682C17.66 14.0982 16.8 14.1882 15.48 14.2482C14.18 14.3182 12.99 14.3482 11.89 14.3482L10.3 14.4082C6.11005 14.4082 3.50005 14.2482 2.47005 13.9682C1.57005 13.7182 0.990049 13.1382 0.740049 12.2382C0.610049 11.7682 0.520049 11.1382 0.460049 10.3382C0.390049 9.5382 0.360049 8.8482 0.360049 8.2482L0.300049 7.4082C0.300049 5.2182 0.460049 3.6082 0.740049 2.5782C0.990049 1.6782 1.57005 1.0982 2.47005 0.848203C2.94005 0.718203 3.80005 0.628203 5.12005 0.568203C6.42005 0.498203 7.61005 0.468203 8.71005 0.468203L10.3 0.408203C14.49 0.408203 17.1 0.568203 18.13 0.848203C19.03 1.0982 19.61 1.6782 19.86 2.5782Z" fill="#FF812E"/>
</svg>
