<svg width="21" height="21" viewBox="0 0 21 21" fill="none" xmlns="http://www.w3.org/2000/svg">
<path d="M6.60005 0.408203H15C18.2001 0.408203 20.8 3.0082 20.8 6.2082V14.6082C20.8 16.1465 20.189 17.6217 19.1013 18.7094C18.0136 19.7971 16.5383 20.4082 15 20.4082H6.60005C3.40005 20.4082 0.800049 17.8082 0.800049 14.6082V6.2082C0.800049 4.66995 1.41112 3.19469 2.49883 2.10698C3.58654 1.01927 5.06179 0.408203 6.60005 0.408203ZM6.40005 2.4082C5.44527 2.4082 4.5296 2.78749 3.85446 3.46262C3.17933 4.13775 2.80005 5.05342 2.80005 6.0082V14.8082C2.80005 16.7982 4.41005 18.4082 6.40005 18.4082H15.2C16.1548 18.4082 17.0705 18.0289 17.7456 17.3538C18.4208 16.6787 18.8 15.763 18.8 14.8082V6.0082C18.8 4.0182 17.19 2.4082 15.2 2.4082H6.40005ZM16.05 3.9082C16.3816 3.9082 16.6995 4.0399 16.9339 4.27432C17.1684 4.50874 17.3 4.82668 17.3 5.1582C17.3 5.48972 17.1684 5.80767 16.9339 6.04209C16.6995 6.27651 16.3816 6.4082 16.05 6.4082C15.7185 6.4082 15.4006 6.27651 15.1662 6.04209C14.9317 5.80767 14.8 5.48972 14.8 5.1582C14.8 4.82668 14.9317 4.50874 15.1662 4.27432C15.4006 4.0399 15.7185 3.9082 16.05 3.9082ZM10.8 5.4082C12.1261 5.4082 13.3979 5.93499 14.3356 6.87267C15.2733 7.81035 15.8 9.08212 15.8 10.4082C15.8 11.7343 15.2733 13.0061 14.3356 13.9437C13.3979 14.8814 12.1261 15.4082 10.8 15.4082C9.47397 15.4082 8.2022 14.8814 7.26451 13.9437C6.32683 13.0061 5.80005 11.7343 5.80005 10.4082C5.80005 9.08212 6.32683 7.81035 7.26451 6.87267C8.2022 5.93499 9.47397 5.4082 10.8 5.4082ZM10.8 7.4082C10.0044 7.4082 9.24134 7.72427 8.67873 8.28688C8.11612 8.84949 7.80005 9.61255 7.80005 10.4082C7.80005 11.2039 8.11612 11.9669 8.67873 12.5295C9.24134 13.0921 10.0044 13.4082 10.8 13.4082C11.5957 13.4082 12.3588 13.0921 12.9214 12.5295C13.484 11.9669 13.8 11.2039 13.8 10.4082C13.8 9.61255 13.484 8.84949 12.9214 8.28688C12.3588 7.72427 11.5957 7.4082 10.8 7.4082Z" fill="#FF812E"/>
</svg>
