<svg width="21" height="21" viewBox="0 0 21 21" fill="none" xmlns="http://www.w3.org/2000/svg">
<path d="M13.77 0.408203H7.62995C2.02995 0.408203 0.699951 1.7382 0.699951 7.3382V13.4782C0.699951 19.0782 2.02995 20.4082 7.62995 20.4082H13.77C19.37 20.4082 20.7 19.0782 20.7 13.4782V7.3382C20.7 1.7382 19.37 0.408203 13.77 0.408203ZM16.85 14.6782H15.39C14.84 14.6782 14.67 14.2282 13.7 13.2382C12.82 12.4082 12.44 12.2882 12.23 12.2882C11.94 12.2882 11.85 12.3682 11.85 12.7882V14.0982C11.85 14.4482 11.74 14.6682 10.81 14.6682C9.26995 14.6682 7.55995 13.7282 6.35995 11.9982C4.54995 9.4582 4.05995 7.5382 4.05995 7.1582C4.05995 6.9482 4.12995 6.7482 4.54995 6.7482H6.01995C6.38995 6.7482 6.52995 6.9082 6.66995 7.3082C7.38995 9.4082 8.58995 11.2082 9.07995 11.2082C9.26995 11.2082 9.34995 11.1182 9.34995 10.6582V8.5082C9.29995 7.5282 8.76995 7.4382 8.76995 7.0882C8.76995 6.9082 8.90995 6.7482 9.13995 6.7482H11.43C11.74 6.7482 11.85 6.9082 11.85 7.2882V10.1782C11.85 10.4882 11.98 10.5982 12.08 10.5982C12.26 10.5982 12.42 10.4882 12.75 10.1482C13.8 8.9782 14.55 7.1682 14.55 7.1682C14.65 6.9582 14.81 6.7582 15.2 6.7582H16.63C17.07 6.7582 17.17 6.9882 17.07 7.2982C16.89 8.1482 15.11 10.6582 15.13 10.6582C14.97 10.9082 14.91 11.0182 15.13 11.3082C15.28 11.5182 15.79 11.9582 16.13 12.3482C16.75 13.0582 17.23 13.6482 17.36 14.0582C17.47 14.4682 17.27 14.6782 16.85 14.6782Z" fill="#FF812E"/>
</svg>
