<svg width="21" height="21" viewBox="0 0 21 21" fill="none" xmlns="http://www.w3.org/2000/svg">
<path d="M10.29 0.408203C4.83005 0.408203 0.380049 4.8582 0.380049 10.3182C0.380049 12.0682 0.840049 13.7682 1.70005 15.2682L0.300049 20.4082L5.55005 19.0282C7.00005 19.8182 8.63005 20.2382 10.29 20.2382C15.75 20.2382 20.2001 15.7882 20.2001 10.3282C20.2001 7.6782 19.17 5.1882 17.3 3.3182C15.43 1.4382 12.94 0.408203 10.29 0.408203ZM10.3 2.0782C12.5 2.0782 14.56 2.9382 16.12 4.4982C17.67 6.0582 18.5301 8.1282 18.5301 10.3282C18.5301 14.8682 14.83 18.5582 10.29 18.5582C8.81005 18.5582 7.36005 18.1682 6.10005 17.4082L5.80005 17.2382L2.68005 18.0582L3.51005 15.0182L3.31005 14.6982C2.49005 13.4082 2.05005 11.8782 2.05005 10.3182C2.06005 5.7782 5.75005 2.0782 10.3 2.0782ZM6.78005 5.7382C6.62005 5.7382 6.35005 5.7982 6.12005 6.0482C5.90005 6.2982 5.25005 6.9082 5.25005 8.1182C5.25005 9.3382 6.14005 10.5082 6.25005 10.6782C6.39005 10.8482 8.01005 13.3482 10.5 14.4082C11.09 14.6782 11.55 14.8282 11.91 14.9382C12.5 15.1282 13.04 15.0982 13.47 15.0382C13.95 14.9682 14.93 14.4382 15.14 13.8582C15.35 13.2782 15.35 12.7882 15.29 12.6782C15.22 12.5782 15.06 12.5182 14.81 12.4082C14.56 12.2682 13.34 11.6682 13.12 11.5882C12.89 11.5082 12.75 11.4682 12.56 11.7082C12.4 11.9582 11.92 12.5182 11.78 12.6782C11.63 12.8482 11.49 12.8682 11.25 12.7482C10.99 12.6182 10.19 12.3582 9.25005 11.5182C8.51005 10.8582 8.02005 10.0482 7.87005 9.7982C7.75005 9.5582 7.86005 9.4082 7.98005 9.2982C8.09005 9.1882 8.25005 9.0082 8.35005 8.8582C8.48005 8.7182 8.52005 8.6082 8.60005 8.4482C8.68005 8.2782 8.64005 8.1382 8.58005 8.0182C8.52005 7.9082 8.02005 6.6682 7.81005 6.1782C7.61005 5.6982 7.41005 5.7582 7.25005 5.7482C7.11005 5.7482 6.95005 5.7382 6.78005 5.7382Z" fill="#FF812E"/>
</svg>
