<svg width="20" height="21" viewBox="0 0 20 21" fill="none" xmlns="http://www.w3.org/2000/svg">
<path d="M10 13.5C10.81 13.5 11.5 13.2 12.11 12.61C12.7 12 13 11.31 13 10.5C13 9.69 12.7 9 12.11 8.39C11.5 7.8 10.81 7.5 10 7.5C9.19 7.5 8.5 7.8 7.89 8.39C7.3 9 7 9.69 7 10.5C7 11.31 7.3 12 7.89 12.61C8.5 13.2 9.19 13.5 10 13.5ZM10 0.5C12.75 0.5 15.1 1.5 17.05 3.45C19 5.4 20 7.75 20 10.5V11.95C20 12.95 19.65 13.8 19 14.5C18.3 15.17 17.5 15.5 16.5 15.5C15.3 15.5 14.31 15 13.56 14C12.56 15 11.38 15.5 10 15.5C8.63 15.5 7.45 15 6.46 14.04C5.5 13.05 5 11.88 5 10.5C5 9.13 5.5 7.95 6.46 6.96C7.45 6 8.63 5.5 10 5.5C11.38 5.5 12.55 6 13.54 6.96C14.5 7.95 15 9.13 15 10.5V11.95C15 12.36 15.16 12.72 15.46 13.03C15.76 13.34 16.11 13.5 16.5 13.5C16.92 13.5 17.27 13.34 17.57 13.03C17.87 12.72 18 12.36 18 11.95V10.5C18 8.31 17.23 6.43 15.65 4.85C14.07 3.27 12.19 2.5 10 2.5C7.81 2.5 5.93 3.27 4.35 4.85C2.77 6.43 2 8.31 2 10.5C2 12.69 2.77 14.57 4.35 16.15C5.93 17.73 7.81 18.5 10 18.5H15V20.5H10C7.25 20.5 4.9 19.5 2.95 17.55C1 15.6 0 13.25 0 10.5C0 7.75 1 5.4 2.95 3.45C4.9 1.5 7.25 0.5 10 0.5Z" fill="#FF812E"/>
</svg>
