<svg viewBox="0 0 34 45" fill="none" xmlns="http://www.w3.org/2000/svg">
<path fill-rule="evenodd" clip-rule="evenodd" d="M30.78 44.5636H2.80005C2.06842 44.5762 1.36164 44.2981 0.834839 43.7902C0.308039 43.2823 0.00418313 42.5862 -0.0100098 41.8546V15.2546C-0.00313689 13.9226 0.297072 12.6085 0.869141 11.4056C1.44121 10.2027 2.27116 9.14054 3.30005 8.29461C3.11813 8.19193 2.96612 8.04354 2.85913 7.86412C2.75215 7.6847 2.6939 7.48046 2.69006 7.2716V1.40563C2.69716 1.07249 2.83564 0.755647 3.07544 0.524281C3.31524 0.292914 3.63691 0.165815 3.97009 0.170643H29.61C29.7752 0.167463 29.9395 0.196868 30.0933 0.257252C30.2471 0.317636 30.3874 0.407787 30.5063 0.522511C30.6253 0.637235 30.7203 0.774292 30.7861 0.925831C30.852 1.07737 30.8873 1.24042 30.89 1.40563V7.2716C30.8863 7.48063 30.8282 7.68512 30.7212 7.86473C30.6142 8.04435 30.4621 8.19289 30.28 8.29564C31.309 9.14129 32.1391 10.2032 32.7112 11.406C33.2833 12.6088 33.5833 13.9228 33.5901 15.2546V41.8546C33.5759 42.5862 33.272 43.2823 32.7452 43.7902C32.2184 44.2981 31.5117 44.5762 30.78 44.5636ZM2.55005 41.8546C2.5507 41.8867 2.55774 41.9183 2.57068 41.9477C2.58362 41.977 2.60224 42.0036 2.62549 42.0257C2.64873 42.0479 2.67609 42.0652 2.70605 42.0766C2.73602 42.0881 2.76797 42.0936 2.80005 42.0926H30.78C30.8121 42.0936 30.8441 42.0881 30.874 42.0766C30.904 42.0652 30.9313 42.0479 30.9546 42.0257C30.9778 42.0036 30.9965 41.977 31.0094 41.9477C31.0223 41.9183 31.0294 41.8867 31.03 41.8546V36.9256H2.55005V41.8546ZM2.55005 34.4546H31.03V30.2826H24.49C24.3822 30.2812 24.2749 30.2677 24.17 30.2426C24.0687 30.2684 23.9646 30.2818 23.86 30.2826H17.1C16.8968 30.2293 16.6832 30.2293 16.48 30.2826H9.72009C9.61553 30.2818 9.51138 30.2684 9.41003 30.2426C9.30856 30.2677 9.20449 30.2812 9.09998 30.2826H2.55005V34.4546ZM29.03 27.8116L27.87 25.8586L26.7001 27.8116H29.03ZM21.65 27.8116L20.48 25.8586L19.3201 27.8116H21.65ZM14.26 27.8116L13.1 25.8586L11.9301 27.8116H14.26ZM6.88 27.8116L5.71008 25.8586L4.55005 27.8116H6.88ZM28.3301 2.64464H5.25V6.0396H28.3301V2.64464ZM31.03 15.2576C30.9966 13.4381 30.2431 11.7061 28.9347 10.4413C27.6262 9.17656 25.8696 8.48224 24.05 8.51061H9.53003C7.71045 8.48224 5.95384 9.17656 4.64539 10.4413C3.33694 11.7061 2.58345 13.4381 2.55005 15.2576V16.9696H31.03V15.2616V15.2576ZM2.55005 19.4366V26.2086L4.60999 22.7696C4.73466 22.5924 4.90021 22.4477 5.09253 22.3479C5.28485 22.248 5.49839 22.1959 5.71509 22.1959C5.93178 22.1959 6.14521 22.248 6.33752 22.3479C6.52984 22.4477 6.69539 22.5924 6.82007 22.7696L9.41003 27.0956L11.99 22.7696C12.1069 22.5805 12.2703 22.4243 12.4646 22.316C12.6589 22.2077 12.8776 22.1509 13.1 22.1509C13.3224 22.1509 13.5412 22.2077 13.7355 22.316C13.9297 22.4243 14.0931 22.5805 14.2101 22.7696L16.79 27.0946L19.38 22.7686C19.4938 22.5788 19.6551 22.422 19.848 22.3136C20.0409 22.2053 20.2587 22.1491 20.48 22.1506C20.7028 22.1489 20.9223 22.205 21.1168 22.3135C21.3114 22.422 21.4745 22.5792 21.5901 22.7696L24.17 27.0936L26.76 22.7696C26.8845 22.5922 27.05 22.4473 27.2423 22.3473C27.4346 22.2474 27.6482 22.1952 27.865 22.1952C28.0818 22.1952 28.2955 22.2474 28.4878 22.3473C28.6801 22.4473 28.8456 22.5922 28.9701 22.7696L31.03 26.2086V19.4366H2.55005Z" fill="currentColor"/>
</svg>
