<svg viewBox="0 0 43 43" fill="none" xmlns="http://www.w3.org/2000/svg">
<path fill-rule="evenodd" clip-rule="evenodd" d="M42.26 36.3497C42.1766 36.4318 42.0824 36.5022 41.9799 36.5587L31.3099 42.4277C31.2999 42.4277 31.2999 42.4277 31.2999 42.4277C29.8999 43.4277 27.4599 42.7367 23.6299 40.2177C19.5363 37.3962 15.7222 34.1893 12.2399 30.6407C10.6899 29.0917 -2.59011 15.6267 0.449894 11.5847L6.3299 1.00368C6.36551 0.954655 6.40568 0.909131 6.44989 0.867695C6.47538 0.818275 6.50548 0.771381 6.53986 0.72768C6.55986 0.71168 6.57992 0.707707 6.59992 0.692707C6.69363 0.607263 6.802 0.53949 6.91986 0.492695C10.5899 -1.69431 22.8399 8.07673 28.8599 14.0747C34.2899 19.4937 42.8499 30.0107 42.8499 34.6967C42.8676 34.9977 42.8245 35.2993 42.7231 35.5833C42.6217 35.8673 42.4643 36.1279 42.26 36.3497ZM14.01 28.8837C22.06 36.9087 28.25 40.4837 29.77 40.4107C29.778 40.3957 29.7814 40.3787 29.7799 40.3617C29.7799 38.7617 26.1799 32.6337 18.2199 24.6897C10.1699 16.6647 3.96989 13.0897 2.44989 13.1637V13.2117C2.44989 14.8067 6.03995 20.9397 14.01 28.8837ZM27.0899 15.8407C18.5399 7.31672 10.2099 2.50467 8.30988 2.59267L3.69989 10.8817C5.44639 11.4511 7.09548 12.2844 8.58991 13.3527C16.7239 19.0911 23.8247 26.1687 29.5899 34.2837C30.6586 35.7764 31.4947 37.4224 32.0699 39.1657L40.4 34.5787C40.4038 34.5755 40.4068 34.5713 40.4085 34.5665C40.4103 34.5618 40.4107 34.5567 40.4099 34.5517C40.4099 32.5627 35.5699 24.2967 27.0899 15.8407ZM36.8099 32.3157C36.5227 32.481 36.1819 32.5261 35.8616 32.4413C35.5414 32.3565 35.2676 32.1485 35.0999 31.8627C34.2312 30.4008 33.2727 28.9941 32.2299 27.6507C31.6499 26.8877 31.0199 26.0987 30.3499 25.2827C30.2401 25.1573 30.1565 25.0112 30.1042 24.853C30.0519 24.6948 30.0319 24.5278 30.0452 24.3617C30.0586 24.1956 30.1051 24.0339 30.1821 23.8861C30.259 23.7383 30.3649 23.6075 30.4934 23.5013C30.6218 23.3951 30.7702 23.3158 30.9299 23.268C31.0895 23.2202 31.257 23.205 31.4227 23.2231C31.5883 23.2412 31.7487 23.2924 31.8942 23.3736C32.0397 23.4547 32.1675 23.5643 32.27 23.6957C32.97 24.5384 33.6199 25.3547 34.2199 26.1447C35.3274 27.57 36.346 29.0621 37.27 30.6127C37.3787 30.8025 37.4371 31.0169 37.4399 31.2357C37.4387 31.4551 37.3799 31.6704 37.2694 31.8599C37.1588 32.0495 37.0003 32.2067 36.8099 32.3157ZM16.77 26.1317C18.54 27.8987 19.6799 29.6237 19.3199 29.9847C18.9599 30.3457 17.2299 29.2077 15.4599 27.4417C13.6899 25.6757 12.5399 23.9507 12.9099 23.5887C13.2799 23.2267 15 24.3657 16.77 26.1327V26.1317Z" fill="currentColor"/>
</svg>
