<svg viewBox="0 0 38 36" fill="none" xmlns="http://www.w3.org/2000/svg">
<path d="M3.8607 35.9847L0.76001 32.8117L32.7402 0.52002L37.7876 5.56033L34.3949 6.15L34.4783 8.04539L32.1145 8.45254L32.1841 10.3479L29.8203 10.7551L29.9594 12.6645L27.5956 13.0717L27.679 14.967L25.3153 15.3742L25.3987 17.2696L23.0349 17.6767L23.0071 19.5721L20.6434 19.9793L20.7268 21.8746L18.363 22.2818L18.4326 24.1772L16.0827 24.5843L16.1661 26.4797L13.8024 26.8869L13.8719 28.7963L10.3541 29.3719L3.8607 35.9847ZM3.5409 32.8117L3.90242 33.1627L9.4642 27.5468L11.8836 27.1115V25.2302L14.2334 24.823L14.1639 22.9276L16.5138 22.5205V20.6251L18.8636 20.2179L18.7941 18.3226L21.1578 17.9014L21.0744 16.006L23.4382 15.5988L23.2157 13.7035L25.5795 13.2963L25.5099 11.4571L27.8598 11.0499L27.7764 9.15453L30.1401 8.6491L30.0706 6.75372L32.4344 6.33252L32.3509 4.43714L33.7414 4.2125L32.7681 3.22971L3.5409 32.8117Z" fill="currentColor"/>
</svg>
