<svg width="20" height="21" viewBox="0 0 20 21" fill="none" xmlns="http://www.w3.org/2000/svg">
<path d="M10 18.8164C14.42 18.8164 18 15.2364 18 10.8164C18 6.39641 14.42 2.81641 10 2.81641C5.58 2.81641 2 6.39641 2 10.8164C2 15.2364 5.58 18.8164 10 18.8164ZM10 0.816406C15.5 0.816406 20 5.31641 20 10.8164C20 16.3164 15.5 20.8164 10 20.8164C4.47 20.8164 0 16.3164 0 10.8164C0 5.31641 4.5 0.816406 10 0.816406ZM10.5 11.8164H9V5.81641H10.5V10.0764L14.2 7.94641L14.95 9.24641L10.5 11.8164Z" fill="#FF812E"/>
</svg>
