<svg viewBox="0 0 51 46" fill="none" xmlns="http://www.w3.org/2000/svg">
<path fill-rule="evenodd" clip-rule="evenodd" d="M50.2222 3.56835C50.0098 3.82595 49.706 3.9914 49.3744 4.03016C49.0428 4.06891 48.7089 3.97791 48.4428 3.77622C48.4229 3.75723 45.8837 1.91092 44.7741 2.99153L42.275 5.43065L44.6043 7.70284C44.8321 7.92388 44.9648 8.22506 44.9741 8.54239C44.9835 8.85972 44.8687 9.1682 44.6542 9.40224L26.3108 29.2971L36.767 39.4844C36.884 39.5976 36.977 39.7332 37.0406 39.8831C37.1041 40.0331 37.1369 40.1943 37.1369 40.3571C37.1369 40.5199 37.1041 40.6811 37.0406 40.831C36.977 40.9809 36.884 41.1165 36.767 41.2298L33.4883 44.4286C33.2486 44.6613 32.9276 44.7914 32.5936 44.7914C32.2595 44.7914 31.9386 44.6613 31.6989 44.4286L26.0909 38.9665C25.3557 40.5728 24.3286 42.0287 23.062 43.26L22.1723 44.1347L20.4329 42.4423C18.0645 44.3021 15.1034 45.2426 12.0959 45.0905C9.08847 44.9384 6.23748 43.7039 4.06881 41.6146C1.93841 39.5572 0.666459 36.7691 0.508809 33.8116C0.351159 30.8541 1.31954 27.9466 3.21914 25.6743L1.47977 23.983L2.37947 23.1103C4.27761 21.2952 6.62036 20.0123 9.17195 19.3906C11.7235 18.7688 14.3938 18.8302 16.9142 19.5686L36.6272 1.62502C36.8696 1.40616 37.1859 1.28742 37.5125 1.2928C37.839 1.29818 38.1515 1.42727 38.3865 1.654L40.4757 3.69226L42.9848 1.25216C45.1641 -0.87407 48.4328 0.623408 50.0122 1.84497C50.1618 1.95774 50.2831 2.10378 50.3663 2.27157C50.4496 2.43937 50.4928 2.62427 50.4922 2.8116C50.4943 3.08779 50.3987 3.35584 50.2222 3.56835ZM32.5886 41.8035L34.078 40.3551L24.6514 31.1724L23.9316 31.8721L23.5318 32.312C23.4573 32.4288 23.4256 32.5678 23.442 32.7054C23.4584 32.843 23.522 32.9706 23.6218 33.0667L32.5886 41.8035ZM21.3726 39.8612L22.1224 40.587C22.9929 39.5341 23.6729 38.3372 24.1316 37.0502L21.8224 34.8071C21.6511 34.6362 21.5002 34.446 21.3726 34.2403L17.9138 36.4845L21.3726 39.8612ZM19.4633 32.5119L13.4254 26.628L10.0366 32.0361L14.0952 35.9906L19.4633 32.5119ZM5.8582 39.8622C7.54491 41.4881 9.75426 42.462 12.0923 42.6103C14.4303 42.7586 16.745 42.0717 18.6236 40.672L15.7547 37.88L14.6351 38.6057C14.3901 38.764 14.0987 38.8348 13.8083 38.8067C13.518 38.7786 13.2456 38.6531 13.0355 38.4507L7.53753 33.0947C7.33642 32.9025 7.20775 32.6468 7.17316 32.3707C7.13856 32.0947 7.2002 31.8152 7.34765 31.5793L8.08738 30.4077L5.02842 27.4317C3.5998 29.2373 2.89362 31.5096 3.04696 33.807C3.2003 36.1043 4.20228 38.2625 5.8582 39.8622ZM5.11848 24.022L9.44687 28.2395L12.106 24.002C12.1652 23.9075 12.2357 23.8206 12.3158 23.743L14.695 21.5829C13.0168 21.3103 11.3004 21.3862 9.65285 21.8058C8.00528 22.2254 6.46182 22.9798 5.11848 24.022ZM37.4568 4.23711L15.0049 24.6757L21.4125 30.9115L21.5625 30.7455C21.6409 30.634 21.7278 30.5287 21.8224 30.4306L22.0823 30.1767L29.4897 22.1436L27.0106 19.7275C26.8944 19.6138 26.8019 19.4781 26.7389 19.3282C26.6758 19.1784 26.6433 19.0174 26.6433 18.8548C26.6433 18.6922 26.6758 18.5313 26.7389 18.3814C26.8019 18.2316 26.8944 18.0958 27.0106 17.9822C27.2526 17.75 27.5749 17.6204 27.9102 17.6204C28.2455 17.6204 28.5679 17.75 28.8099 17.9822L31.189 20.3043L32.4986 18.8818L30.1894 16.6306C30.0732 16.5169 29.9808 16.3812 29.9178 16.2313C29.8547 16.0815 29.8222 15.9205 29.8222 15.7579C29.8222 15.5953 29.8547 15.4344 29.9178 15.2845C29.9808 15.1347 30.0732 14.9989 30.1894 14.8853C30.4294 14.6531 30.7502 14.5232 31.0841 14.5232C31.418 14.5232 31.7389 14.6531 31.9788 14.8853L34.198 17.0425L35.5076 15.62L33.3683 13.5357C33.2521 13.422 33.1596 13.2863 33.0966 13.1364C33.0335 12.9866 33.001 12.8256 33.001 12.663C33.001 12.5004 33.0335 12.3395 33.0966 12.1896C33.1596 12.0398 33.2521 11.904 33.3683 11.7904C33.6083 11.5582 33.9291 11.4284 34.263 11.4284C34.5969 11.4284 34.9176 11.5582 35.1576 11.7904L37.2069 13.7807L41.9652 8.62152L37.4568 4.23711Z" fill="currentColor"/>
</svg>
