<svg xmlns="http://www.w3.org/2000/svg" xmlns:xlink="http://www.w3.org/1999/xlink"><symbol id="arrow" viewBox="0 0 24 21"><g fill="none"><path d="M2 10.815h20m0 0L13.613 2M22 10.815 13.613 19" stroke="currentColor" stroke-width="3" stroke-linecap="round" stroke-linejoin="round"/></g></symbol><symbol id="brushing" viewBox="0 0 45 48"><g fill="none"><path fill-rule="evenodd" clip-rule="evenodd" d="M43.126 46.078a4.4 4.4 0 0 1-6.069 0l-9.587-9.277-.357.346a1.26 1.26 0 0 1-1.541.153l-2.362-1.5a2.065 2.065 0 0 1-.335-3.155l.144-.14L3.875 13.982a1.135 1.135 0 0 0-.794-.318 2.972 2.972 0 0 1-3.064-2.969A2.97 2.97 0 0 1 3.08 7.727c.075 0 .7.08 1.258.162.315.046.6.088.692.1.056.007.111.017.166.03L12.933.533a1.258 1.258 0 0 1 1.452-.2c.378.2 9.329 5.008 16.861 18.386a1.157 1.157 0 0 1-.21 1.406l-5.961 5.77 2.392 2.315 2.156-2.086a1.957 1.957 0 0 1 1.615-.533 1.925 1.925 0 0 1 1.422.912l1.535 2.549c.11.18.168.388.167.6-.002.164-.04.326-.109.475l1.409.228a4.091 4.091 0 0 1 2.2 1.1l.236.229a3.858 3.858 0 0 1 1.08 3.67 1.52 1.52 0 0 0 .428 1.449l3.527 3.412a4.061 4.061 0 0 1-.007 5.863ZM13.982 2.873 7.494 9.15l.046.025.369.208c.065.036.127.077.185.124.165.134.328.274.482.424l.022.022 6.52-6.31c-.449-.32-.836-.58-1.136-.771ZM17.05 5.13l-6.718 6.5 1.275 1.234 6.791-6.572A41.753 41.753 0 0 0 17.05 5.13Zm3.1 2.826-6.805 6.587.345.334c.01.008.019.016.027.026l.9.873 6.762-6.544a53.224 53.224 0 0 0-1.232-1.276h.003Zm2.836 3.079-6.632 6.419.178.172.038.038 1.058 1.024 6.481-6.272a64.5 64.5 0 0 0-1.126-1.381h.003Zm-3.624 9.33.853.825.027.027.395.381 5.959-5.766c-.34-.5-.68-1.01-1.02-1.48l-6.214 6.014Zm9.29-1.293c-.24-.41-.483-.78-.725-1.172l-5.556 5.377.968.936 5.313-5.141ZM6.84 11.607a4.065 4.065 0 0 0-.242-.216l-.3-.17c-.373-.212-1.328-.754-1.678-.9-.164-.02-.4-.053-.646-.09-.4-.058-.849-.125-.98-.138a.6.6 0 0 0 .088 1.193 3.616 3.616 0 0 1 2.528 1.011l19.144 18.526.974-.941L6.84 11.607ZM30.875 28.26l-2.544 2.461-3.424 3.314 1.178.748 5.51-5.332-.72-1.191Zm10.514 13.623-3.527-3.412a3.845 3.845 0 0 1-1.081-3.67 1.519 1.519 0 0 0-.426-1.45l-.237-.228a1.612 1.612 0 0 0-.869-.432l-3.026-.49-3.02 2.922 9.586 9.277a1.885 1.885 0 0 0 2.6 0 1.782 1.782 0 0 0 .002-2.517h-.002Z" fill="currentColor"/></g></symbol><symbol id="cart" viewBox="0 0 15 14"><g fill="none"><path d="M12.882 3.135h-2.668L9.5.533c-.13-.39-.52-.586-.846-.456-.39.13-.586.52-.456.846l.651 2.212H5.335l.65-2.212c.065-.39-.13-.78-.52-.91-.39-.066-.78.13-.846.52l-.715 2.602H1.17C.521 3.135 0 3.655 0 4.306v1.366c0 .586.455 1.106 1.04 1.172l1.237 6.18c.13.586.586.976 1.171.976h7.157c.585 0 1.106-.455 1.17-1.04l1.107-6.182c.65 0 1.17-.52 1.17-1.17V4.305c0-.65-.52-1.17-1.17-1.17Zm-2.407 9.499H3.643l-1.106-5.79h8.978l-1.04 5.79Zm2.212-7.222H1.43v-.846h11.256v.846Zm-7.482 5.595c.39 0 .715-.325.715-.715V8.21a.722.722 0 0 0-.715-.716.722.722 0 0 0-.716.716v2.082c0 .39.325.715.716.715Zm1.821 0c.39 0 .716-.325.716-.715V8.21a.722.722 0 0 0-.716-.716.722.722 0 0 0-.715.716v2.082c0 .39.325.715.715.715Zm1.822 0c.39 0 .716-.325.716-.715V8.21a.722.722 0 0 0-.716-.716.722.722 0 0 0-.716.716v2.082c0 .39.326.715.716.715Z" fill="currentColor"/></g></symbol><symbol id="cleaning" viewBox="0 0 47 46"><g fill="none"><path fill-rule="evenodd" clip-rule="evenodd" d="M45.318 24.616a37.4 37.4 0 0 1-12.266.452A34.983 34.983 0 0 0 44.267 27.6a1.265 1.265 0 0 1 1.225 1.263v.04a1.265 1.265 0 0 1-1.307 1.222 37.465 37.465 0 0 1-12-2.681 35.012 35.012 0 0 0 10.22 5.3 1.263 1.263 0 1 1-.725 2.42 37.4 37.4 0 0 1-10.9-5.62 34.906 34.906 0 0 0 8.514 7.7 1.264 1.264 0 1 1-1.318 2.159 37.398 37.398 0 0 1-9.109-8.2 34.84 34.84 0 0 0 6.271 9.61 1.266 1.266 0 0 1-.033 1.788 1.269 1.269 0 0 1-1.79-.035 37.232 37.232 0 0 1-6.717-10.242 34.726 34.726 0 0 0 3.611 10.88A1.267 1.267 0 1 1 28 44.439a37.245 37.245 0 0 1-3.88-11.587 34.75 34.75 0 0 0 .715 11.418 1.267 1.267 0 0 1-2.454.63 37.281 37.281 0 0 1-.786-12.222 34.819 34.819 0 0 0-2.23 11.254 1.266 1.266 0 0 1-2.533-.007v-.007c.117-4.115.915-8.181 2.361-12.034a34.78 34.78 0 0 0-5.033 10.333 1.266 1.266 0 0 1-2.446-.655 37.246 37.246 0 0 1 5.34-11.022 34.846 34.846 0 0 0-7.485 8.7 1.266 1.266 0 0 1-2.2-1.254 37.31 37.31 0 0 1 7.968-9.306 34.858 34.858 0 0 0-9.454 6.513 1.265 1.265 0 1 1-1.806-1.773 37.411 37.411 0 0 1 10.08-6.977 34.874 34.874 0 0 0-10.804 3.897 1.266 1.266 0 0 1-1.3-2.173 37.37 37.37 0 0 1 11.51-4.184 34.956 34.956 0 0 0-11.425 1.024 1.265 1.265 0 1 1-.7-2.431 37.51 37.51 0 0 1 12.225-1.116 34.968 34.968 0 0 0-11.339-1.92 1.263 1.263 0 1 1-.056-2.524c4.19.001 8.352.705 12.31 2.08.075-.168.185-.32.27-.483a35.155 35.155 0 0 0-10.355-5.526 1.265 1.265 0 1 1 .746-2.417 37.6 37.6 0 0 1 11.042 5.86c.085-.093.151-.2.24-.294a35.026 35.026 0 0 0-8.21-8.32 1.264 1.264 0 1 1 1.433-2.081 37.25 37.25 0 0 1 8.648 8.68 34.823 34.823 0 0 0-5.736-9.932 1.263 1.263 0 0 1 .112-1.808 1.264 1.264 0 0 1 1.804.157 37.222 37.222 0 0 1 6.14 10.569 34.74 34.74 0 0 0-2.999-11.041 1.266 1.266 0 0 1 2.275-1.111 37.246 37.246 0 0 1 3.243 11.779c.601-3.792.57-7.656-.092-11.437a1.267 1.267 0 0 1 2.484-.5c.393 2.043.584 4.12.571 6.2a43.95 43.95 0 0 1-.45 6.048 34.84 34.84 0 0 0 2.84-11.114 1.266 1.266 0 0 1 2.53.073v.077a37.193 37.193 0 0 1-3 11.87 34.825 34.825 0 0 0 5.573-10.026 1.266 1.266 0 1 1 2.406.787 37.314 37.314 0 0 1-5.925 10.718 34.795 34.795 0 0 0 7.945-8.284 1.268 1.268 0 0 1 2.131 1.372 37.3 37.3 0 0 1-8.458 8.859 34.855 34.855 0 0 0 9.79-5.99 1.268 1.268 0 0 1 2.119.992 1.26 1.26 0 0 1-.412.876 37.412 37.412 0 0 1-10.445 6.42 34.903 34.903 0 0 0 11-3.307A1.265 1.265 0 1 1 45.011 19a37.375 37.375 0 0 1-11.714 3.554c3.816.497 7.687.362 11.46-.4a1.263 1.263 0 1 1 .561 2.46Zm-15.134-3.86a7.138 7.138 0 1 0-4.526 9 7.15 7.15 0 0 0 4.526-9Zm-4.666 6.292a4.56 4.56 0 1 1 2.461-4.055 4.545 4.545 0 0 1-2.46 4.055Zm-.3-4.987a2.038 2.038 0 1 0-3.618 1.872 2.038 2.038 0 0 0 3.617-1.872h.001Z" fill="currentColor"/></g></symbol><symbol id="cutting" viewBox="0 0 46 46"><g fill="none"><path fill-rule="evenodd" clip-rule="evenodd" d="M45.203 22.737A22.581 22.581 0 1 1 30.36 1.384a22.746 22.746 0 0 1 14.843 21.353Zm-42.707-.013a20.207 20.207 0 0 0 1.884 8.5 20.066 20.066 0 0 0 37.107-1.583 20.111 20.111 0 1 0-38.99-6.917Zm24.397-.005a4.317 4.317 0 0 1-2.479 3.9 4.243 4.243 0 0 1-3.278.141 4.305 4.305 0 0 1 2.942-8.092 4.315 4.315 0 0 1 2.815 4.051Zm-6.077-.006a1.8 1.8 0 0 0 1.869 1.801 1.785 1.785 0 0 0 1.607-1.182 1.79 1.79 0 1 0-3.473-.621l-.003.002Zm2.46 16.751v.044a1.252 1.252 0 0 1-1.29 1.209 17.94 17.94 0 0 1-11.6-4.822 1.258 1.258 0 0 1 .334-2.058 1.243 1.243 0 0 1 1.368.223 15.467 15.467 0 0 0 9.981 4.152 1.251 1.251 0 0 1 1.207 1.25v.002Z" fill="currentColor"/></g></symbol><symbol id="delivery"><g fill="none"><path fill-rule="evenodd" clip-rule="evenodd" d="M22.624 2.42A.675.675 0 0 0 22 2h-2.664V.666A.671.671 0 0 0 18.664 0H7.424a.665.665 0 0 0-.664.666V2H3.32a.667.667 0 0 0 0 1.334h3.44v1.332H1.984a.667.667 0 0 0 0 1.334H6.76v4a.665.665 0 0 0 .664.666h1.44a1.948 1.948 0 0 0 3.696 0h5.648a1.947 1.947 0 0 0 3.696 0h1.432a.671.671 0 0 0 .672-.666V6a.868.868 0 0 0-.048-.248l-1.336-3.333Zm-11.912 8.246a.614.614 0 1 1 .005-1.228.614.614 0 0 1-.005 1.228ZM18 9.334h-5.48a1.946 1.946 0 0 0-3.616 0h-.808V6h1.896a.667.667 0 0 0 0-1.334H8.096V3.334h4.56a.667.667 0 0 0 0-1.334h-4.56v-.666H18v8Zm2.056 1.332a.613.613 0 1 1-.012-1.226.613.613 0 0 1 .012 1.226Zm2.616-1.332h-.808a1.955 1.955 0 0 0-1.808-1.228c-.247 0-.492.047-.72.14V3.334h2.216l.264.666h-1.152a.664.664 0 0 0-.664.666V6a.664.664 0 0 0 .664.666h2.008v2.668Zm-17.352-2H.648a.667.667 0 0 0 0 1.332H5.32a.666.666 0 0 0 0-1.332Z" fill="#000"/></g></symbol><symbol id="drilling" viewBox="0 0 45 46"><g fill="none"><path fill-rule="evenodd" clip-rule="evenodd" d="m43.884 41.13-4.33 4.466a1.2 1.2 0 0 1-1.74 0l-16.42-16.944a3.2 3.2 0 0 1-1.414-.935 3.434 3.434 0 0 1-.818-2.406l.016-.3c.016-.266.052-.53.108-.79a5.453 5.453 0 0 1-3.417-1.642l-4.088-4.219a1.277 1.277 0 0 1-.349-.924 10.083 10.083 0 0 1-3.875-4.66A5.492 5.492 0 0 1 4.9 11.26L.814 7.044a1.261 1.261 0 0 1-.172-.241 2.166 2.166 0 0 1-.263-.211 1.382 1.382 0 0 1-.389-.95l.076-4.2A1.251 1.251 0 0 1 1.297.196h3.997a1.214 1.214 0 0 1 .871.373l3.339 3.445c.233.241.362.564.361.9v.025l-.011.617a3.948 3.948 0 0 1 2.257 1.149l4.422 4.565c.134.145.233.32.287.512 1.4 1.21 3.158 3.107 3.266 5.008l.475.039a3.944 3.944 0 0 1 2.514 1.192l.044.047 4.314 4.417c.32.178.607.41.85.683.156.186.293.387.41.6l15.18 15.558a1.262 1.262 0 0 1 .37.9 1.3 1.3 0 0 1-.359.905Zm-17.27-15.904-.49-.5-4.339-.311a2.855 2.855 0 0 0-.149.739l-.016.3a.8.8 0 0 0 .722.832l3.472.2a.77.77 0 0 0 .81-.744l.02-.3a1.454 1.454 0 0 0-.03-.216ZM4.78 2.738H2.505l-.04 2.188.042.012 4.78.386L4.78 2.738Zm5.587 5.764c-.256-.266-.6-.43-.968-.46l-.864-.07c-.834.02-2.1.02-3.411-.075l1.517 1.567a3.052 3.052 0 0 0 1.942.919l3.6-.011-1.816-1.87Zm4.45 4.877-4.354-.313a9.92 9.92 0 0 0 3.2 2.781c.195.108.357.267.469.46l3.439.277a9.181 9.181 0 0 0-2.754-3.205Zm5.547 5.979-4.483-.36 1.728 1.784c.52.537 1.218.866 1.964.922l3.713.267c.031-.013.057-.035.09-.046l-2.041-2.104a1.537 1.537 0 0 0-.971-.463Zm8.3 7.965a3.222 3.222 0 0 1-2.98 1.7l-.48-.027 13.48 13.909 2.58-2.665-12.6-12.917Z" fill="currentColor"/></g></symbol><symbol id="filing" viewBox="0 0 50 51"><g fill="none"><path fill-rule="evenodd" clip-rule="evenodd" d="M49.617 46.49a3.683 3.683 0 0 1-.985 2.684c-.74.756-2.543 1.77-6.263.064A26.252 26.252 0 0 1 35 43.788a24.526 24.526 0 0 1-5.832-8.769c-.072-.208-1.621-4.574-6.314-4.538h-.012a1.278 1.278 0 0 1-.356-.072 1.314 1.314 0 0 1-.58-.323L.91 8.709a1.371 1.371 0 0 1 0-1.915L7.026.567a1.31 1.31 0 0 1 1.88 0l20.997 21.377a1.384 1.384 0 0 1 .388 1.03 6.86 6.86 0 0 0 4.459 6.363c.018.007.032.02.05.028a24.303 24.303 0 0 1 8.55 5.925c3.803 3.882 6.267 8.28 6.267 11.2ZM29.302 30.424c.115-.186.248-.362.398-.522.159-.161.334-.304.523-.428a9.207 9.207 0 0 1-2.201-3.718l-2.386 2.424a8.985 8.985 0 0 1 3.666 2.246v-.002ZM7.957 3.44 3.722 7.75l19.115 19.464 4.235-4.313L7.957 3.44Zm23.63 28.383a1.178 1.178 0 0 0-.206.771c.021.532.122 1.058.299 1.56a21.51 21.51 0 0 0 5.193 7.716 23.596 23.596 0 0 0 6.578 4.897c1.79.82 2.963.828 3.295.491.156-.225.229-.497.205-.77 0-1.776-1.719-5.439-5.495-9.284-4.699-4.786-9.062-6.207-9.87-5.386v.005ZM42.37 44.967a1.614 1.614 0 0 1-.074-2.253 1.597 1.597 0 0 1 2.212 0 1.615 1.615 0 0 1 0 2.253 1.547 1.547 0 0 1-2.138 0Z" fill="currentColor"/></g></symbol><symbol id="grinding" viewBox="0 0 45 45"><g fill="none"><path fill-rule="evenodd" clip-rule="evenodd" d="M25.567 22.445a3.172 3.172 0 0 1-6.047 1.336 3.169 3.169 0 1 1 6.047-1.336Zm-3.869 0a.692.692 0 1 0 .173-.46.692.692 0 0 0-.173.465v-.005Zm-5.718 9.564a3.172 3.172 0 0 1-6.043 1.336 3.17 3.17 0 1 1 6.043-1.331v-.005Zm-3.869 0a.7.7 0 0 0 .99.63.7.7 0 0 0 .338-.924.7.7 0 0 0-1.328.302v-.008Zm14.517 3.859a3.17 3.17 0 1 1-6.229-.84 3.17 3.17 0 0 1 6.229.848v-.008Zm-3.868 0a.707.707 0 0 0 .45.652.7.7 0 1 0-.45-.646v-.006Zm13.7-5.631c0 .196-.018.392-.054.585a3.145 3.145 0 1 1 .051-.577l.003-.008Zm-3.867.008c0 .14.043.276.122.392a.692.692 0 1 0-.125-.386l.003-.006Zm5.912-11.122a3.172 3.172 0 0 1-5.626 2 3.111 3.111 0 0 1-.7-2.32 3.17 3.17 0 0 1 6.326.326v-.006Zm-3.866 0a.688.688 0 0 0 .626.689.693.693 0 1 0-.623-.76c-.005.033-.005.056-.005.08l.002-.01Zm-3.316-8.747v.058a3.143 3.143 0 0 1-.968 2.22 3.174 3.174 0 0 1-4.484-.08 3.094 3.094 0 0 1-.888-2.253 3.17 3.17 0 0 1 6.34.064v-.01Zm-3.867 0a.7.7 0 0 0 1.179.5.69.69 0 0 0 .213-.49.662.662 0 0 0-.194-.492.7.7 0 0 0-.985-.02.696.696 0 0 0-.213.489v.012Zm-7.462-.17a3.17 3.17 0 0 1-6.333.2 3.1 3.1 0 0 1 .781-2.293 3.171 3.171 0 0 1 5.552 2.103v-.01Zm-3.866-.007v.048a.7.7 0 0 0 1.357.178c.03-.087.04-.179.033-.27a.678.678 0 0 0-.236-.474.7.7 0 0 0-.982.063.68.68 0 0 0-.172.465v-.01Zm28.661 12.39a22.394 22.394 0 1 1-44.787-.045 22.394 22.394 0 0 1 44.787.055v-.01Zm-42.336-.073A19.931 19.931 0 1 0 34.231 6.549 19.917 19.917 0 0 0 2.453 22.526v-.01Zm10.091-2.05a3.17 3.17 0 1 1-.037-.476c.024.16.037.323.037.486v-.01Zm-3.867-.006a.7.7 0 1 0 1.111-.557.695.695 0 0 0-1.111.567v-.01Z" fill="currentColor"/></g></symbol><symbol id="heart"><g fill="none"><path d="M16.6 1c-2.3 0-4.3 1.588-5.1 3.706V4.6v.106C10.7 2.588 8.7 1 6.4 1 3.4 1 1 3.541 1 6.612c0 1.906 1.9 4.553 3.4 6.247.9 1.059 1.9 2.012 2.9 2.753L11.4 19l4.1-3.388c1-.847 2-1.8 2.9-2.753 1.7-1.8 3.6-4.341 3.6-6.247C22 3.542 19.6 1 16.6 1Z" stroke="#000" stroke-width="2" stroke-linejoin="round"/></g></symbol><symbol id="materials" viewBox="0 0 34 45"><g fill="none"><path fill-rule="evenodd" clip-rule="evenodd" d="M30.78 44.564H2.8a2.763 2.763 0 0 1-2.81-2.71v-26.6a9.071 9.071 0 0 1 3.31-6.96 1.2 1.2 0 0 1-.61-1.022V1.406A1.262 1.262 0 0 1 3.97.17h25.64a1.256 1.256 0 0 1 1.28 1.235v5.866a1.2 1.2 0 0 1-.61 1.024 9.067 9.067 0 0 1 3.31 6.959v26.6a2.763 2.763 0 0 1-2.81 2.709Zm-28.23-2.71a.243.243 0 0 0 .25.239h27.98a.241.241 0 0 0 .23-.145.243.243 0 0 0 .02-.093v-4.93H2.55v4.93Zm0-7.4h28.48v-4.171h-6.54a1.456 1.456 0 0 1-.32-.04c-.101.025-.205.039-.31.04H17.1a1.222 1.222 0 0 0-.62 0H9.72c-.104-.001-.209-.015-.31-.04a1.368 1.368 0 0 1-.31.04H2.55v4.172Zm26.48-6.642-1.16-1.953-1.17 1.953h2.33Zm-7.38 0-1.17-1.953-1.16 1.953h2.33Zm-7.39 0-1.16-1.953-1.17 1.953h2.33Zm-7.38 0-1.17-1.953-1.16 1.953h2.33ZM28.33 2.645H5.25V6.04h23.08V2.645Zm2.7 12.613a6.874 6.874 0 0 0-6.98-6.747H9.53a6.874 6.874 0 0 0-6.98 6.747v1.712h28.48v-1.712ZM2.55 19.437v6.772l2.06-3.44a1.35 1.35 0 0 1 2.21 0l2.59 4.327 2.58-4.326a1.305 1.305 0 0 1 2.22 0l2.58 4.325 2.59-4.326a1.273 1.273 0 0 1 1.1-.618 1.287 1.287 0 0 1 1.11.619l2.58 4.324 2.59-4.324a1.35 1.35 0 0 1 2.21 0l2.06 3.439v-6.772H2.55Z" fill="currentColor"/></g></symbol><symbol id="polishing" viewBox="0 0 43 43"><g fill="none"><path fill-rule="evenodd" clip-rule="evenodd" d="M42.26 36.35a1.28 1.28 0 0 1-.28.209l-10.67 5.869h-.01c-1.4 1-3.84.309-7.67-2.21a77.886 77.886 0 0 1-11.39-9.577C10.69 29.09-2.59 15.627.45 11.585L6.33 1.004a.958.958 0 0 1 .12-.136.875.875 0 0 1 .09-.14c.02-.016.04-.02.06-.035a1.05 1.05 0 0 1 .32-.2c3.67-2.187 15.92 7.584 21.94 13.582 5.43 5.419 13.99 15.936 13.99 20.622a2.245 2.245 0 0 1-.59 1.653Zm-28.25-7.466c8.05 8.025 14.24 11.6 15.76 11.527a.088.088 0 0 0 .01-.05c0-1.6-3.6-7.727-11.56-15.671-8.05-8.025-14.25-11.6-15.77-11.526v.048c0 1.595 3.59 7.728 11.56 15.672ZM27.09 15.84C18.54 7.317 10.21 2.505 8.31 2.593L3.7 10.882a18.006 18.006 0 0 1 4.89 2.47 87.959 87.959 0 0 1 21 20.932 18.162 18.162 0 0 1 2.48 4.882l8.33-4.587a.028.028 0 0 0 .008-.013.029.029 0 0 0 .002-.014c0-1.99-4.84-10.255-13.32-18.711Zm9.72 16.475a1.256 1.256 0 0 1-1.71-.453 41.156 41.156 0 0 0-2.87-4.212 81.15 81.15 0 0 0-1.88-2.368 1.246 1.246 0 1 1 1.92-1.587c.7.842 1.35 1.659 1.95 2.449a43.945 43.945 0 0 1 3.05 4.468c.109.19.167.404.17.623a1.253 1.253 0 0 1-.63 1.08Zm-20.04-6.184c1.77 1.767 2.91 3.492 2.55 3.853-.36.36-2.09-.777-3.86-2.543s-2.92-3.491-2.55-3.853c.37-.362 2.09.777 3.86 2.544v-.001Z" fill="currentColor"/></g></symbol><symbol id="separator" viewBox="0 0 5 17"><g fill="none"><path d="m3.931 1-2.93 3.06 2.93 3.062-2.93 3.06 2.93 3.062-2.93 3.178" stroke="#FF812E" stroke-miterlimit="10"/></g></symbol><symbol id="tool" viewBox="0 0 51 46"><g fill="none"><path fill-rule="evenodd" clip-rule="evenodd" d="M50.222 3.568a1.293 1.293 0 0 1-1.78.208c-.02-.019-2.558-1.865-3.668-.784L42.275 5.43l2.33 2.272a1.22 1.22 0 0 1 .05 1.7L26.31 29.296l10.456 10.187a1.215 1.215 0 0 1 0 1.746l-3.279 3.199a1.285 1.285 0 0 1-1.79 0l-5.607-5.462a14.272 14.272 0 0 1-3.029 4.293l-.89.875-1.74-1.693a12.478 12.478 0 0 1-16.363-.827 11.715 11.715 0 0 1-.85-15.94l-1.74-1.692.9-.873a14.948 14.948 0 0 1 14.535-3.541L36.627 1.625a1.29 1.29 0 0 1 1.76.029l2.089 2.038 2.509-2.44c2.18-2.126 5.448-.629 7.027.593a1.204 1.204 0 0 1 .48.967 1.17 1.17 0 0 1-.27.756ZM32.59 41.803l1.489-1.448-9.427-9.183-.72.7-.4.44a.6.6 0 0 0 .09.755l8.968 8.736Zm-11.216-1.942.75.726c.87-1.053 1.55-2.25 2.009-3.537l-2.31-2.243a3.135 3.135 0 0 1-.45-.567l-3.458 2.244 3.459 3.377Zm-1.91-7.35-6.038-5.883-3.388 5.408 4.058 3.955 5.368-3.48ZM5.858 39.863a9.884 9.884 0 0 0 12.766.81l-2.87-2.792-1.119.726a1.294 1.294 0 0 1-1.6-.155l-5.497-5.356a1.21 1.21 0 0 1-.19-1.516l.74-1.171-3.06-2.976a9.279 9.279 0 0 0 .83 12.43Zm-.74-15.84 4.329 4.218 2.659-4.238c.06-.095.13-.181.21-.259l2.379-2.16a12.385 12.385 0 0 0-9.577 2.439ZM37.457 4.237 15.005 24.676l6.408 6.236.15-.166c.078-.112.165-.217.26-.315l.26-.254 7.407-8.033-2.48-2.416a1.22 1.22 0 0 1 0-1.746 1.3 1.3 0 0 1 1.8 0l2.379 2.322 1.31-1.422-2.31-2.251a1.22 1.22 0 0 1 0-1.746 1.287 1.287 0 0 1 1.79 0l2.219 2.158 1.31-1.423-2.14-2.084a1.22 1.22 0 0 1 0-1.746 1.287 1.287 0 0 1 1.79 0l2.049 1.99 4.758-5.158-4.508-4.385Z" fill="currentColor"/></g></symbol></svg>