<svg xmlns="http://www.w3.org/2000/svg" xmlns:xlink="http://www.w3.org/1999/xlink"><symbol id="abraforce"><g fill="none"><path fill-rule="evenodd" clip-rule="evenodd" d="M106.854 5.619H64.216v11.225c0 3.112 2.55 5.674 5.648 5.674h42.881V11.475c0-3.172-2.672-5.856-5.891-5.856Zm-30.005 5.918h-4.19c-.061 0-.061 0-.122.06-.06.062-.06.062-.06.123v1.708h3.218v1.098h-3.28v3.172h-1.397v-6.284c0-.121 0-.244.061-.366.06-.122.122-.244.243-.366.122-.122.243-.183.364-.244.122 0 .243-.06.365-.06h4.737v1.159h.061Zm7.653 3.294c0 .244-.06.549-.121.793s-.122.488-.243.732a2.191 2.191 0 0 1-.425.61c-.183.183-.426.366-.668.427a3.415 3.415 0 0 1-.73.244c-.242.061-.546.061-.789.061h-1.397c-.243 0-.486-.06-.79-.06a3.415 3.415 0 0 1-.728-.245c-.243-.122-.486-.244-.669-.427a2.711 2.711 0 0 1-.485-.67c-.122-.245-.183-.55-.243-.794-.061-.244-.061-.549-.122-.793v-1.464c0-.244.06-.55.122-.793.06-.244.121-.488.243-.732.121-.245.243-.428.486-.672.182-.183.425-.366.668-.427a3.41 3.41 0 0 1 .728-.244c.243-.06.486-.06.79-.06h1.458c.243 0 .486.06.79.06.242.061.485.122.728.244s.486.244.668.427c.183.184.365.367.425.61.122.245.183.489.243.733.061.244.122.549.122.793v.732c0 .427 0 .67-.06.915Zm6.074 2.867-2.369-2.379c-.06-.061-.182-.183-.243-.305-.06-.122-.121-.244-.121-.305v-.183c0-.122.06-.244.182-.366.121-.122.243-.122.486-.122h1.397c.121 0 .243 0 .364-.061.122-.061.243-.122.365-.244.06-.061.06-.122.06-.244 0-.061.061-.183.061-.305V12.635c0-.305 0-.488-.06-.671-.061-.184-.122-.245-.183-.367-.121-.121-.243-.182-.364-.182h-2.794c-.06 0-.122.06-.182.122-.061.06-.122.121-.122.182v5.918h-1.397v-6.04c0-.182 0-.304.06-.488 0-.183.122-.305.244-.488.121-.122.303-.183.425-.244.182-.06.304-.06.425-.06h3.827c.121 0 .303.06.425.06.121.061.243.122.425.183.121.061.243.244.364.366.183.244.304.489.304.793.06.306.06.55.06.794s0 .549-.06.793c-.06.305-.121.549-.243.854-.06.06-.121.183-.182.244l-.243.244-.364.183c-.183.061-.304.061-.547.061h-.911v.061l2.733 2.562h-1.822v.183Zm8.564 0h-3.584a2.15 2.15 0 0 1-.607-.122c-.182-.06-.425-.122-.607-.244-.183-.122-.365-.244-.547-.427-.182-.183-.304-.427-.425-.61-.122-.244-.182-.488-.243-.67-.06-.245-.06-.489-.122-.733v-1.464c0-.244.061-.488.122-.732.06-.244.121-.488.243-.671.121-.245.243-.428.364-.61.183-.245.365-.367.608-.489s.425-.183.668-.305c.243-.06.425-.122.607-.122h3.401v1.098h-2.915c-.182 0-.364.062-.547.062-.182.06-.303.121-.425.182-.121.062-.243.184-.364.367-.122.183-.182.366-.304.67-.06.306-.121.733-.121 1.282 0 .244 0 .488.06.732 0 .183.061.366.061.488.06.122.06.244.122.366.06.061.06.183.121.244.182.305.425.488.79.55.303.06.729.121 1.154.121h2.49v1.037Zm6.742 0h-5.163c-.121 0-.243-.06-.364-.183a.972.972 0 0 1-.243-.427c0-.183-.061-.305-.061-.427v-5.186c0-.121 0-.305.061-.427l.182-.366a.976.976 0 0 1 .425-.244c.182 0 .304-.06.425-.06h4.677v1.098h-4.13c-.061 0-.122.06-.182.06-.061.062-.061.123-.122.184v1.647h4.313v1.098h-4.313v1.708c0 .122.061.244.122.305.06.061.121.061.182.061h4.191v1.16Zm-22.898-5.002c-.061-.183-.061-.305-.122-.366a.84.84 0 0 0-.182-.244c-.243-.245-.486-.428-.85-.489a5.327 5.327 0 0 0-1.033-.121c-.364 0-.729.06-1.032.121a1.35 1.35 0 0 0-.79.489 2.04 2.04 0 0 0-.304.732c-.06.305-.121.732-.121 1.28 0 .306 0 .55.06.794 0 .244.061.427.122.549.06.183.06.305.122.427.06.122.121.183.182.305.121.122.243.244.364.305.122.061.304.122.425.183.183.061.304.061.486.061h1.093c.183 0 .365-.06.486-.06.183-.062.304-.123.426-.184.121-.06.242-.183.364-.305.06-.06.121-.183.182-.305a.884.884 0 0 0 .122-.427c.06-.183.06-.366.121-.549 0-.244.06-.488.06-.793 0-.305 0-.61-.06-.793 0-.244-.06-.427-.121-.61Z" fill="#026"/><path d="M15.018 6.96c-.364-.426-.91-.731-1.518-.975a5.33 5.33 0 0 0-2.004-.366H1.96v2.867h8.26c.304 0 .607.061.911.122.304.061.608.305.85.61.183.244.365.55.426.793.06.244.06.55.06.793v1.16H5.18c-.425 0-.911.06-1.458.122a3.12 3.12 0 0 0-1.579.854c-.607.549-1.032 1.159-1.215 1.891a14.907 14.907 0 0 0-.182 2.318c0 .305 0 .671.06 1.098 0 .427.062.794.183 1.22.122.428.243.855.425 1.22.182.367.486.733.79 1.038.486.427.972.671 1.518.732.547.061 1.033.122 1.519.122h8.017c.425 0 .79-.06 1.215-.122.425-.061.79-.244 1.093-.549.304-.305.486-.671.547-1.098.06-.427.121-.793.121-1.098v-8.786c0-.976-.121-1.769-.364-2.44-.182-.671-.486-1.16-.85-1.525Zm-2.49 11.837c0 .122 0 .244-.06.366 0 .122-.122.244-.243.305a.55.55 0 0 1-.426.183H6.272a1.22 1.22 0 0 1-.668-.183 2.12 2.12 0 0 1-.547-.366c-.242-.244-.364-.55-.425-.916-.06-.366-.06-.67-.06-.976 0-.61.06-1.037.182-1.28.121-.245.182-.428.243-.489.182-.305.486-.427.729-.488.303-.061.485-.061.607-.061h6.195v3.905ZM33.24 8.425a5.975 5.975 0 0 0-1.215-1.464c-.486-.366-.972-.61-1.458-.854a7.392 7.392 0 0 0-1.579-.366c-.547-.061-1.032-.122-1.58-.122H22.49V.25h-3.705v19.462c0 .366.06.67.122 1.037.06.366.303.732.607 1.037.364.366.79.55 1.275.61.426.061.912.122 1.398.122h5.284c.486 0 .971-.06 1.518-.122.547-.06 1.093-.183 1.58-.427a4.38 4.38 0 0 0 1.457-.854c.486-.366.85-.854 1.215-1.403.364-.55.607-1.281.79-2.197.181-.854.303-2.013.303-3.416 0-1.098-.06-2.135-.182-3.111a6.843 6.843 0 0 0-.911-2.563Zm-2.916 8.42c-.121.548-.243.915-.364 1.159-.182.427-.486.732-.79.976-.303.244-.607.366-.91.488a2.506 2.506 0 0 1-.973.183c-.303 0-.607.06-.85.06h-2.672c-.183 0-.365 0-.547-.06a1.819 1.819 0 0 1-.486-.244c-.121-.183-.243-.366-.243-.55V8.548h4.07c.303 0 .546 0 .91.061.304.061.669.122.972.244.304.122.608.305.85.55.244.243.487.548.669.914.06.122.182.489.304 1.099.182.61.242 1.586.242 2.867.061 1.22-.06 2.013-.182 2.562ZM61.118 8.486c-.243-.671-.547-1.16-.91-1.525-.365-.427-.851-.732-1.52-.976a5.33 5.33 0 0 0-2.004-.366H47.15v2.867h8.26c.303 0 .607.061.91.122.305.061.608.305.851.61.182.244.365.55.425.793.061.244.061.55.061.793v1.16h-7.288c-.425 0-.911.06-1.458.122a3.12 3.12 0 0 0-1.58.854c-.607.549-1.032 1.159-1.214 1.891-.182.732-.243 1.464-.243 2.196 0 .305 0 .671.06 1.098 0 .427.062.794.183 1.22.121.428.243.855.425 1.22.182.367.486.733.79 1.038.486.427.971.671 1.518.732.547.061 1.033.122 1.519.122h8.078c.425 0 .79-.061 1.215-.122.425-.061.79-.244 1.093-.549.303-.305.486-.671.546-1.098.061-.427.122-.793.122-1.098v-8.664c0-.915-.122-1.769-.304-2.44Zm-3.401 10.31c0 .123 0 .245-.06.367 0 .122-.122.244-.244.305a.55.55 0 0 1-.425.183H51.4a1.22 1.22 0 0 1-.668-.183c-.182-.122-.425-.244-.547-.366-.242-.244-.364-.55-.425-.916-.06-.366-.06-.67-.06-.976 0-.61.06-1.037.182-1.28.121-.245.182-.428.243-.489.182-.305.486-.427.728-.488.304-.061.486-.061.608-.061h6.195v3.905h.06ZM42.168 5.68c-.425 0-.85.06-1.336.183-.425.122-.911.244-1.336.427-.425.183-.85.488-1.276.793-.729.61-1.215 1.342-1.397 2.196-.243.854-.303 1.77-.303 2.685v10.493h3.704v-9.456c0-.61.061-1.22.183-1.83.121-.55.364-1.099.668-1.526.425-.549.972-.854 1.579-.976a8.41 8.41 0 0 1 1.64-.183h1.58V5.68h-3.706Z" fill="#026"/></g></symbol><symbol id="address"><g fill="none"><path d="M2.05 12.5H0v-2h2.05C2.5 6.33 5.83 3 10 2.55V.5h2v2.05c4.17.45 7.5 3.78 7.95 7.95H22v2h-2.05c-.45 4.17-3.78 7.5-7.95 7.95v2.05h-2v-2.05C5.83 20 2.5 16.67 2.05 12.5Zm8.95-8a7 7 0 1 0 0 14 7 7 0 0 0 0-14Z" fill="#FF812E"/></g></symbol><symbol id="arrow" viewBox="0 0 18 16"><g fill="none"><path d="M1.8 8.307h14.4m0 0L10.161 1.96M16.2 8.307 10.161 14.2" stroke="#828282" stroke-width="2.16" stroke-linecap="round" stroke-linejoin="round"/></g></symbol><symbol id="brushing" viewBox="0 0 45 48"><g fill="none"><path fill-rule="evenodd" clip-rule="evenodd" d="M43.126 46.078a4.4 4.4 0 0 1-6.069 0l-9.587-9.277-.357.346a1.26 1.26 0 0 1-1.541.153l-2.362-1.5a2.065 2.065 0 0 1-.335-3.155l.144-.14L3.875 13.982a1.135 1.135 0 0 0-.794-.318 2.972 2.972 0 0 1-3.064-2.969A2.97 2.97 0 0 1 3.08 7.727c.075 0 .7.08 1.258.162.315.046.6.088.692.1.056.007.111.017.166.03L12.933.533a1.258 1.258 0 0 1 1.452-.2c.378.2 9.329 5.008 16.861 18.386a1.157 1.157 0 0 1-.21 1.406l-5.961 5.77 2.392 2.315 2.156-2.086a1.957 1.957 0 0 1 1.615-.533 1.925 1.925 0 0 1 1.422.912l1.535 2.549c.11.18.168.388.167.6-.002.164-.04.326-.109.475l1.409.228a4.091 4.091 0 0 1 2.2 1.1l.236.229a3.858 3.858 0 0 1 1.08 3.67 1.52 1.52 0 0 0 .428 1.449l3.527 3.412a4.061 4.061 0 0 1-.007 5.863ZM13.982 2.873 7.494 9.15l.046.025.369.208c.065.036.127.077.185.124.165.134.328.274.482.424l.022.022 6.52-6.31c-.449-.32-.836-.58-1.136-.771ZM17.05 5.13l-6.718 6.5 1.275 1.234 6.791-6.572A41.753 41.753 0 0 0 17.05 5.13Zm3.1 2.826-6.805 6.587.345.334c.01.008.019.016.027.026l.9.873 6.762-6.544a53.224 53.224 0 0 0-1.232-1.276h.003Zm2.836 3.079-6.632 6.419.178.172.038.038 1.058 1.024 6.481-6.272a64.5 64.5 0 0 0-1.126-1.381h.003Zm-3.624 9.33.853.825.027.027.395.381 5.959-5.766c-.34-.5-.68-1.01-1.02-1.48l-6.214 6.014Zm9.29-1.293c-.24-.41-.483-.78-.725-1.172l-5.556 5.377.968.936 5.313-5.141ZM6.84 11.607a4.065 4.065 0 0 0-.242-.216l-.3-.17c-.373-.212-1.328-.754-1.678-.9-.164-.02-.4-.053-.646-.09-.4-.058-.849-.125-.98-.138a.6.6 0 0 0 .088 1.193 3.616 3.616 0 0 1 2.528 1.011l19.144 18.526.974-.941L6.84 11.607ZM30.875 28.26l-2.544 2.461-3.424 3.314 1.178.748 5.51-5.332-.72-1.191Zm10.514 13.623-3.527-3.412a3.845 3.845 0 0 1-1.081-3.67 1.519 1.519 0 0 0-.426-1.45l-.237-.228a1.612 1.612 0 0 0-.869-.432l-3.026-.49-3.02 2.922 9.586 9.277a1.885 1.885 0 0 0 2.6 0 1.782 1.782 0 0 0 .002-2.517h-.002Z" fill="currentColor"/></g></symbol><symbol id="cart" viewBox="0 0 15 14"><g fill="none"><path d="M12.882 3.135h-2.668L9.5.533c-.13-.39-.52-.586-.846-.456-.39.13-.586.52-.456.846l.651 2.212H5.335l.65-2.212c.065-.39-.13-.78-.52-.91-.39-.066-.78.13-.846.52l-.715 2.602H1.17C.521 3.135 0 3.655 0 4.306v1.366c0 .586.455 1.106 1.04 1.172l1.237 6.18c.13.586.586.976 1.171.976h7.157c.585 0 1.106-.455 1.17-1.04l1.107-6.182c.65 0 1.17-.52 1.17-1.17V4.305c0-.65-.52-1.17-1.17-1.17Zm-2.407 9.499H3.643l-1.106-5.79h8.978l-1.04 5.79Zm2.212-7.222H1.43v-.846h11.256v.846Zm-7.482 5.595c.39 0 .715-.325.715-.715V8.21a.722.722 0 0 0-.715-.716.722.722 0 0 0-.716.716v2.082c0 .39.325.715.716.715Zm1.821 0c.39 0 .716-.325.716-.715V8.21a.722.722 0 0 0-.716-.716.722.722 0 0 0-.715.716v2.082c0 .39.325.715.715.715Zm1.822 0c.39 0 .716-.325.716-.715V8.21a.722.722 0 0 0-.716-.716.722.722 0 0 0-.716.716v2.082c0 .39.326.715.716.715Z" fill="currentColor"/></g></symbol><symbol id="cleaning" viewBox="0 0 47 46"><g fill="none"><path fill-rule="evenodd" clip-rule="evenodd" d="M45.318 24.616a37.4 37.4 0 0 1-12.266.452A34.983 34.983 0 0 0 44.267 27.6a1.265 1.265 0 0 1 1.225 1.263v.04a1.265 1.265 0 0 1-1.307 1.222 37.465 37.465 0 0 1-12-2.681 35.012 35.012 0 0 0 10.22 5.3 1.263 1.263 0 1 1-.725 2.42 37.4 37.4 0 0 1-10.9-5.62 34.906 34.906 0 0 0 8.514 7.7 1.264 1.264 0 1 1-1.318 2.159 37.398 37.398 0 0 1-9.109-8.2 34.84 34.84 0 0 0 6.271 9.61 1.266 1.266 0 0 1-.033 1.788 1.269 1.269 0 0 1-1.79-.035 37.232 37.232 0 0 1-6.717-10.242 34.726 34.726 0 0 0 3.611 10.88A1.267 1.267 0 1 1 28 44.439a37.245 37.245 0 0 1-3.88-11.587 34.75 34.75 0 0 0 .715 11.418 1.267 1.267 0 0 1-2.454.63 37.281 37.281 0 0 1-.786-12.222 34.819 34.819 0 0 0-2.23 11.254 1.266 1.266 0 0 1-2.533-.007v-.007c.117-4.115.915-8.181 2.361-12.034a34.78 34.78 0 0 0-5.033 10.333 1.266 1.266 0 0 1-2.446-.655 37.246 37.246 0 0 1 5.34-11.022 34.846 34.846 0 0 0-7.485 8.7 1.266 1.266 0 0 1-2.2-1.254 37.31 37.31 0 0 1 7.968-9.306 34.858 34.858 0 0 0-9.454 6.513 1.265 1.265 0 1 1-1.806-1.773 37.411 37.411 0 0 1 10.08-6.977 34.874 34.874 0 0 0-10.804 3.897 1.266 1.266 0 0 1-1.3-2.173 37.37 37.37 0 0 1 11.51-4.184 34.956 34.956 0 0 0-11.425 1.024 1.265 1.265 0 1 1-.7-2.431 37.51 37.51 0 0 1 12.225-1.116 34.968 34.968 0 0 0-11.339-1.92 1.263 1.263 0 1 1-.056-2.524c4.19.001 8.352.705 12.31 2.08.075-.168.185-.32.27-.483a35.155 35.155 0 0 0-10.355-5.526 1.265 1.265 0 1 1 .746-2.417 37.6 37.6 0 0 1 11.042 5.86c.085-.093.151-.2.24-.294a35.026 35.026 0 0 0-8.21-8.32 1.264 1.264 0 1 1 1.433-2.081 37.25 37.25 0 0 1 8.648 8.68 34.823 34.823 0 0 0-5.736-9.932 1.263 1.263 0 0 1 .112-1.808 1.264 1.264 0 0 1 1.804.157 37.222 37.222 0 0 1 6.14 10.569 34.74 34.74 0 0 0-2.999-11.041 1.266 1.266 0 0 1 2.275-1.111 37.246 37.246 0 0 1 3.243 11.779c.601-3.792.57-7.656-.092-11.437a1.267 1.267 0 0 1 2.484-.5c.393 2.043.584 4.12.571 6.2a43.95 43.95 0 0 1-.45 6.048 34.84 34.84 0 0 0 2.84-11.114 1.266 1.266 0 0 1 2.53.073v.077a37.193 37.193 0 0 1-3 11.87 34.825 34.825 0 0 0 5.573-10.026 1.266 1.266 0 1 1 2.406.787 37.314 37.314 0 0 1-5.925 10.718 34.795 34.795 0 0 0 7.945-8.284 1.268 1.268 0 0 1 2.131 1.372 37.3 37.3 0 0 1-8.458 8.859 34.855 34.855 0 0 0 9.79-5.99 1.268 1.268 0 0 1 2.119.992 1.26 1.26 0 0 1-.412.876 37.412 37.412 0 0 1-10.445 6.42 34.903 34.903 0 0 0 11-3.307A1.265 1.265 0 1 1 45.011 19a37.375 37.375 0 0 1-11.714 3.554c3.816.497 7.687.362 11.46-.4a1.263 1.263 0 1 1 .561 2.46Zm-15.134-3.86a7.138 7.138 0 1 0-4.526 9 7.15 7.15 0 0 0 4.526-9Zm-4.666 6.292a4.56 4.56 0 1 1 2.461-4.055 4.545 4.545 0 0 1-2.46 4.055Zm-.3-4.987a2.038 2.038 0 1 0-3.618 1.872 2.038 2.038 0 0 0 3.617-1.872h.001Z" fill="currentColor"/></g></symbol><symbol id="cutting" viewBox="0 0 46 46"><g fill="none"><path fill-rule="evenodd" clip-rule="evenodd" d="M45.203 22.737A22.581 22.581 0 1 1 30.36 1.384a22.746 22.746 0 0 1 14.843 21.353Zm-42.707-.013a20.207 20.207 0 0 0 1.884 8.5 20.066 20.066 0 0 0 37.107-1.583 20.111 20.111 0 1 0-38.99-6.917Zm24.397-.005a4.317 4.317 0 0 1-2.479 3.9 4.243 4.243 0 0 1-3.278.141 4.305 4.305 0 0 1 2.942-8.092 4.315 4.315 0 0 1 2.815 4.051Zm-6.077-.006a1.8 1.8 0 0 0 1.869 1.801 1.785 1.785 0 0 0 1.607-1.182 1.79 1.79 0 1 0-3.473-.621l-.003.002Zm2.46 16.751v.044a1.252 1.252 0 0 1-1.29 1.209 17.94 17.94 0 0 1-11.6-4.822 1.258 1.258 0 0 1 .334-2.058 1.243 1.243 0 0 1 1.368.223 15.467 15.467 0 0 0 9.981 4.152 1.251 1.251 0 0 1 1.207 1.25v.002Z" fill="currentColor"/></g></symbol><symbol id="debever"><g fill="none"><path fill-rule="evenodd" clip-rule="evenodd" d="M.958 22.51v-4.016h.638v4.145H.958v-.128Zm4.849 0v-4.358l.213.257 2.722 3.033v-2.905h.596v4.444l-.213-.257-2.723-3.034v2.949h-.595v-.128Zm7.87 0v-4.016h1.318c.213 0 .425 0 .638.043.213.043.383.085.51.17.17.086.298.172.426.3s.213.256.298.427c.085.171.127.342.17.513.042.17.042.384.042.598 0 .385-.042.684-.127.94-.085.256-.256.47-.468.641-.213.17-.426.299-.68.342a2.733 2.733 0 0 1-.852.128h-1.276v-.085Zm1.105-3.503h-.51v3.076h.553c.213 0 .425 0 .595-.042.17-.043.298-.086.426-.171.127-.086.212-.171.297-.257a.688.688 0 0 0 .17-.299 1.25 1.25 0 0 0 .086-.384c0-.129.042-.257.042-.428 0-.213-.042-.427-.085-.64a1.446 1.446 0 0 0-.255-.513c-.085-.128-.255-.214-.425-.3-.213-.085-.51-.128-.851-.128l-.043.086Zm6.679-.513h.51v2.692c0 .17.043.299.085.427.043.128.128.214.213.342.085.086.17.171.298.214.127.042.255.085.468.085.212 0 .34-.043.467-.085a.685.685 0 0 0 .298-.171.689.689 0 0 0 .17-.3c.043-.128.043-.298.043-.47v-2.691h.638V21.1c0 .299-.043.512-.085.726-.085.213-.17.384-.298.513a1.02 1.02 0 0 1-.51.299c-.213.085-.426.085-.723.085-.256 0-.511-.043-.724-.128-.212-.085-.383-.171-.51-.342a1.251 1.251 0 0 1-.298-.513c-.085-.213-.085-.427-.085-.683v-2.564h.043Zm7.316 3.29.34-.17.128-.044.042.129c.043.17.17.341.256.427a.762.762 0 0 0 .468.128c.212 0 .382-.043.51-.17a.235.235 0 0 0 .128-.214c.042-.086.042-.214.042-.3 0-.128 0-.213-.042-.299-.043-.085-.085-.17-.17-.213 0 0-.086-.043-.128-.086-.085-.042-.17-.085-.298-.17-.128-.086-.255-.129-.34-.171a.924.924 0 0 1-.213-.129c-.085-.042-.17-.128-.255-.17l-.213-.214-.127-.257c-.043-.085-.043-.17-.043-.299 0-.17.043-.299.085-.427a.665.665 0 0 1 .255-.342c.128-.085.256-.17.383-.213.128-.043.298-.086.468-.086.085 0 .213 0 .298.043.085 0 .17.043.255.085.085.043.17.086.255.171.085.086.17.171.213.3l.042.085-.085.043-.297.17-.085.043-.043-.085a.513.513 0 0 0-.213-.214.798.798 0 0 0-.34-.085c-.085 0-.128 0-.213.042-.042.043-.127.043-.17.086a.589.589 0 0 0-.127.17c-.043.086-.043.129-.043.214 0 .128.043.214.085.3.085.085.17.17.298.256l.298.128a.93.93 0 0 1 .212.128c.043.043.128.043.17.086.043.042.086.042.128.085.213.128.34.256.468.427.085.171.17.385.17.598 0 .086 0 .214-.042.3-.043.085-.043.213-.085.299a.893.893 0 0 1-.17.256c-.086.085-.17.17-.256.214-.085.042-.212.128-.34.128-.128.043-.255.043-.425.043-.128 0-.256 0-.383-.043-.128-.043-.213-.086-.34-.128-.128-.043-.213-.128-.298-.257-.085-.128-.17-.256-.256-.427l-.042-.085.085-.086Zm7.614.727V19.05h-1.148v-.556h2.935v.556h-1.149v3.589h-.638v-.128Zm8.55.128h-.51l-.043-.043-1.446-1.795h-.043v1.88h-.638v-4.144h.893c.468 0 .851.085 1.064.299.255.214.383.513.383.897 0 .385-.128.641-.383.812-.17.128-.383.214-.596.256l1.362 1.71.127.17h-.17v-.042Zm-1.829-2.393c.17 0 .298 0 .425-.043.128 0 .213-.043.298-.085a.333.333 0 0 0 .17-.171c.043-.086.043-.171.043-.3 0-.127 0-.213-.043-.298a.587.587 0 0 0-.127-.171c-.085-.043-.17-.086-.256-.086-.127-.042-.255-.042-.425-.042h-.17v1.239h.085v-.043Zm6.168 2.265v-4.017h.638v4.145h-.638v-.128Zm4.934 0v-4.017h2.297v.556h-1.659v.982h1.66v.556h-1.66v1.453h1.66v.555h-2.298v-.085Zm7.444 0V19.05H60.51v-.556h2.892v.556h-1.148v3.589h-.638v-.128h.042Zm5.87 0v-4.017h2.297v.556h-1.659v.982h1.66v.556h-1.66v1.453h1.66v.555h-2.298v-.085Zm8.763-3.547c-.17 0-.34 0-.468.043s-.298.085-.425.17c-.128.044-.213.129-.34.257-.086.086-.17.214-.256.3a1.523 1.523 0 0 0-.17.384c-.043.128-.043.299-.043.47 0 .512.17.897.468 1.196.17.128.34.257.51.342a1.758 1.758 0 0 0 1.32 0c.212-.085.425-.171.637-.342l.213-.17v.683l-.042.043c-.085.042-.213.128-.298.17-.128.043-.213.086-.34.129-.128.042-.256.042-.383.085-.128 0-.256.043-.383.043-.17 0-.34 0-.51-.043l-.511-.128a1.013 1.013 0 0 1-.468-.256c-.128-.129-.298-.257-.383-.385a2.303 2.303 0 0 1-.297-.555 3.774 3.774 0 0 1-.086-.727c0-.213 0-.384.043-.555.043-.171.085-.342.17-.513.085-.17.17-.299.298-.47a1.89 1.89 0 0 1 .468-.342c.17-.085.383-.17.595-.213.213-.043.468-.086.723-.086.256 0 .468.043.724.128.212.086.467.171.68.342l.043.043v.683l-.17-.17c-.086-.043-.17-.129-.256-.171a2.438 2.438 0 0 1-.297-.171.8.8 0 0 0-.34-.086c-.128-.128-.256-.128-.426-.128Zm5.827 3.547v-4.017h.639v1.581h1.999v-1.58h.638v4.144h-.638V20.63h-2v2.008h-.638v-.128Zm7.615 0v-4.359l.212.257 2.723 3.033v-2.905h.595v4.444l-.213-.257-2.722-3.034v2.949h-.596v-.128Zm7.826 0v-4.017h.638v4.145h-.638v-.128Zm4.892 0v-4.017h2.297v.556h-1.659v.982h1.659v.556h-1.659v1.453h1.659v.555h-2.297v-.085Zm6.636 0v-4.017h.638v1.666l1.659-1.623.042-.043h.809l-.213.171-1.872 1.795 2 1.965.212.17h-.893l-.043-.042-1.701-1.752v1.795h-.638v-.085Z" fill="#000"/><path fill-rule="evenodd" clip-rule="evenodd" d="M.745 14.905h7.146c1.404 0 2.595-.17 3.53-.555.937-.342 1.745-.897 2.468-1.538a7.723 7.723 0 0 0 1.702-2.35c.425-.898.765-1.838.935-2.863.298-1.58.383-2.777.17-3.632-.212-.854-.595-1.58-1.148-2.179-.553-.598-1.191-.983-1.914-1.153C12.655.378 11.72.25 10.869.25H3.723L.745 14.905Zm5.487-3.332 1.617-7.99h1.19c1.022 0 1.702.085 2.085.299.383.213.638.598.766 1.11.127.513.085 1.368-.17 2.564-.298 1.538-.809 2.607-1.447 3.205-.638.555-1.616.854-2.85.854h-1.19v-.042ZM19.632.25H32.52l-.638 3.12H23.8l-.468 2.349h7.487l-.596 2.99h-7.486l-.596 2.864h8.295l-.638 3.332H16.654L19.632.25Z" fill="#98C342"/><path fill-rule="evenodd" clip-rule="evenodd" d="M34.945.335h8.933c1.489 0 2.552.342 3.233 1.026.638.684.893 1.538.68 2.564-.17.854-.595 1.58-1.319 2.221-.468.428-1.063.727-1.871.983 1.063.256 1.786.684 2.17 1.282.382.598.51 1.367.297 2.307-.17.77-.468 1.453-.978 2.051a5.404 5.404 0 0 1-1.83 1.41c-.425.214-1.063.384-1.914.47-1.106.128-1.829.214-2.17.214h-8.209L34.945.335Zm3.658 5.726h2.084c.766 0 1.277-.128 1.617-.342a1.64 1.64 0 0 0 .638-1.025c.085-.428 0-.77-.255-.983-.256-.256-.723-.342-1.447-.342h-2.127l-.51 2.692Zm-1.191 5.682h2.467c.808 0 1.446-.128 1.83-.427.382-.256.637-.64.722-1.11.086-.428 0-.77-.297-1.026-.298-.256-.851-.385-1.66-.385H38.05l-.638 2.948ZM51.704.335h12.762l-.638 3.12H55.83l-.467 2.307h7.444L62.21 8.71h-7.444l-.596 2.863h8.253l-.68 3.29H48.726L51.704.335ZM66.082.335h4.934l1.319 10.34L77.822.335h4.807l-8.593 14.357h-5.104L66.082.335ZM84.203.335h12.633l-.638 3.077h-7.912l-.468 2.264h7.36l-.596 2.948h-7.359l-.553 2.82h8.125l-.639 3.248H81.268L84.203.335ZM96.751 14.692 99.686.293h7.87c1.446 0 2.552.128 3.275.342a2.646 2.646 0 0 1 1.616 1.324c.341.641.426 1.41.256 2.308-.171.811-.468 1.495-.979 2.05a4.871 4.871 0 0 1-1.786 1.41 7.394 7.394 0 0 1-1.787.556c.511.17.893.342 1.106.513.128.128.34.384.596.769.255.384.425.683.468.897l1.446 4.187h-5.317l-1.617-4.4c-.212-.556-.425-.94-.638-1.112a1.797 1.797 0 0 0-1.106-.341h-.425l-1.191 5.853h-4.722v.043Zm6.466-8.545h1.999c.213 0 .638-.086 1.276-.214.34-.043.596-.214.851-.47a1.7 1.7 0 0 0 .468-.855c.085-.47 0-.811-.255-1.068-.256-.256-.809-.384-1.702-.384h-2.084l-.553 2.99Z" fill="#000"/></g></symbol><symbol id="delivery"><g fill="none"><path fill-rule="evenodd" clip-rule="evenodd" d="M22.624 2.42A.675.675 0 0 0 22 2h-2.664V.666A.671.671 0 0 0 18.664 0H7.424a.665.665 0 0 0-.664.666V2H3.32a.667.667 0 0 0 0 1.334h3.44v1.332H1.984a.667.667 0 0 0 0 1.334H6.76v4a.665.665 0 0 0 .664.666h1.44a1.948 1.948 0 0 0 3.696 0h5.648a1.947 1.947 0 0 0 3.696 0h1.432a.671.671 0 0 0 .672-.666V6a.868.868 0 0 0-.048-.248l-1.336-3.333Zm-11.912 8.246a.614.614 0 1 1 .005-1.228.614.614 0 0 1-.005 1.228ZM18 9.334h-5.48a1.946 1.946 0 0 0-3.616 0h-.808V6h1.896a.667.667 0 0 0 0-1.334H8.096V3.334h4.56a.667.667 0 0 0 0-1.334h-4.56v-.666H18v8Zm2.056 1.332a.613.613 0 1 1-.012-1.226.613.613 0 0 1 .012 1.226Zm2.616-1.332h-.808a1.955 1.955 0 0 0-1.808-1.228c-.247 0-.492.047-.72.14V3.334h2.216l.264.666h-1.152a.664.664 0 0 0-.664.666V6a.664.664 0 0 0 .664.666h2.008v2.668Zm-17.352-2H.648a.667.667 0 0 0 0 1.332H5.32a.666.666 0 0 0 0-1.332Z" fill="#000"/></g></symbol><symbol id="drilling" viewBox="0 0 45 46"><g fill="none"><path fill-rule="evenodd" clip-rule="evenodd" d="m43.884 41.13-4.33 4.466a1.2 1.2 0 0 1-1.74 0l-16.42-16.944a3.2 3.2 0 0 1-1.414-.935 3.434 3.434 0 0 1-.818-2.406l.016-.3c.016-.266.052-.53.108-.79a5.453 5.453 0 0 1-3.417-1.642l-4.088-4.219a1.277 1.277 0 0 1-.349-.924 10.083 10.083 0 0 1-3.875-4.66A5.492 5.492 0 0 1 4.9 11.26L.814 7.044a1.261 1.261 0 0 1-.172-.241 2.166 2.166 0 0 1-.263-.211 1.382 1.382 0 0 1-.389-.95l.076-4.2A1.251 1.251 0 0 1 1.297.196h3.997a1.214 1.214 0 0 1 .871.373l3.339 3.445c.233.241.362.564.361.9v.025l-.011.617a3.948 3.948 0 0 1 2.257 1.149l4.422 4.565c.134.145.233.32.287.512 1.4 1.21 3.158 3.107 3.266 5.008l.475.039a3.944 3.944 0 0 1 2.514 1.192l.044.047 4.314 4.417c.32.178.607.41.85.683.156.186.293.387.41.6l15.18 15.558a1.262 1.262 0 0 1 .37.9 1.3 1.3 0 0 1-.359.905Zm-17.27-15.904-.49-.5-4.339-.311a2.855 2.855 0 0 0-.149.739l-.016.3a.8.8 0 0 0 .722.832l3.472.2a.77.77 0 0 0 .81-.744l.02-.3a1.454 1.454 0 0 0-.03-.216ZM4.78 2.738H2.505l-.04 2.188.042.012 4.78.386L4.78 2.738Zm5.587 5.764c-.256-.266-.6-.43-.968-.46l-.864-.07c-.834.02-2.1.02-3.411-.075l1.517 1.567a3.052 3.052 0 0 0 1.942.919l3.6-.011-1.816-1.87Zm4.45 4.877-4.354-.313a9.92 9.92 0 0 0 3.2 2.781c.195.108.357.267.469.46l3.439.277a9.181 9.181 0 0 0-2.754-3.205Zm5.547 5.979-4.483-.36 1.728 1.784c.52.537 1.218.866 1.964.922l3.713.267c.031-.013.057-.035.09-.046l-2.041-2.104a1.537 1.537 0 0 0-.971-.463Zm8.3 7.965a3.222 3.222 0 0 1-2.98 1.7l-.48-.027 13.48 13.909 2.58-2.665-12.6-12.917Z" fill="currentColor"/></g></symbol><symbol id="feedback"><g fill="none"><path d="M10.5.5h-8a2 2 0 0 0-2 2v16c0 1.11.89 2 2 2h12c1.11 0 2-.89 2-2v-12l-6-6Zm4 18h-12v-16h7v5h5v11ZM9.04 17v-2h-4v-2h4v-2l3 3-3 3Z" fill="#E9E9E9"/></g></symbol><symbol id="file"><g fill="none"><path d="M18.5 14.5h.5v-11H2v11h16.5ZM10.146 2.354l.147.146H18.5A1.5 1.5 0 0 1 20 4v10a1.5 1.5 0 0 1-1.5 1.5h-16A1.5 1.5 0 0 1 1 14V2A1.5 1.5 0 0 1 2.5.5h5.793l1.853 1.854ZM12.5 8.5h-1.793L13.5 5.707 16.293 8.5H14v4h-1v-4h-.5Z" fill="#828282" stroke="#828282"/></g></symbol><symbol id="filing" viewBox="0 0 50 51"><g fill="none"><path fill-rule="evenodd" clip-rule="evenodd" d="M49.617 46.49a3.683 3.683 0 0 1-.985 2.684c-.74.756-2.543 1.77-6.263.064A26.252 26.252 0 0 1 35 43.788a24.526 24.526 0 0 1-5.832-8.769c-.072-.208-1.621-4.574-6.314-4.538h-.012a1.278 1.278 0 0 1-.356-.072 1.314 1.314 0 0 1-.58-.323L.91 8.709a1.371 1.371 0 0 1 0-1.915L7.026.567a1.31 1.31 0 0 1 1.88 0l20.997 21.377a1.384 1.384 0 0 1 .388 1.03 6.86 6.86 0 0 0 4.459 6.363c.018.007.032.02.05.028a24.303 24.303 0 0 1 8.55 5.925c3.803 3.882 6.267 8.28 6.267 11.2ZM29.302 30.424c.115-.186.248-.362.398-.522.159-.161.334-.304.523-.428a9.207 9.207 0 0 1-2.201-3.718l-2.386 2.424a8.985 8.985 0 0 1 3.666 2.246v-.002ZM7.957 3.44 3.722 7.75l19.115 19.464 4.235-4.313L7.957 3.44Zm23.63 28.383a1.178 1.178 0 0 0-.206.771c.021.532.122 1.058.299 1.56a21.51 21.51 0 0 0 5.193 7.716 23.596 23.596 0 0 0 6.578 4.897c1.79.82 2.963.828 3.295.491.156-.225.229-.497.205-.77 0-1.776-1.719-5.439-5.495-9.284-4.699-4.786-9.062-6.207-9.87-5.386v.005ZM42.37 44.967a1.614 1.614 0 0 1-.074-2.253 1.597 1.597 0 0 1 2.212 0 1.615 1.615 0 0 1 0 2.253 1.547 1.547 0 0 1-2.138 0Z" fill="currentColor"/></g></symbol><symbol id="flexifoam"><g fill="none"><path d="M15.039.833c.684-.657 1.787-.546 2.51-.017 1.33.922 2.787 2.02 3.156 3.696.202 1.435.089 2.906-.26 4.308-.488 2.057-.897 4.134-1.404 6.188-.36-.81-.596-1.723-1.233-2.368-.38-.445-1.15-.413-1.504.05-.561.644-.763 1.51-.992 2.316-.396 1.56-.808 3.118-1.15 4.693 1.253.647 2.499 1.31 3.737 1.983-.682 3.214-1.359 6.428-1.977 9.652a198 198 0 0 1-4.007-.65C9.837 40.955 7.994 51.275 5.887 61.541 4.08 62.11 2.317 62.817.47 63.25c1.994-11.206 4.507-22.31 6.577-33.5-.89-.302-1.784-.601-2.678-.893.788-4.186 1.62-8.365 2.491-12.533.793.324 1.58.67 2.361 1.026.746-3.92 1.558-7.84 2.961-11.584.68-1.775 1.423-3.627 2.856-4.933ZM58.925 4.275c.419-.759 1.123-1.543 2.06-1.508.82-.077 1.928.423 1.906 1.372.069 3.482-.276 6.953-.414 10.43-.36-.522-.755-1.311-1.53-1.113-.808.326-.973 1.322-1.094 2.087-.229 2.064-.36 4.141-.445 6.216.837-.112 1.681-.12 2.525-.112-.209 3.714-.426 7.425-.66 11.139-.893.02-1.784.084-2.675.146-.584 9.88-1.238 19.758-1.71 29.645-.053.386.024.816-.173 1.172-1.051.097-2.125-.128-3.158-.338.647-10.148 1.403-20.292 1.87-30.452-.465.022-.93.052-1.393.082.19-3.595.399-7.19.675-10.78.494-.085.99-.166 1.484-.243.032-2.744.295-5.484.539-8.219.384-3.231.675-6.586 2.193-9.524ZM18.239 30.345c1.664-8.226 3.047-16.506 4.777-24.718 1.165.683 2.317 1.388 3.476 2.08-1.026 5.148-1.888 10.328-2.803 15.495-1.977 11.131-3.949 22.263-6.049 33.372-.125.633-.219 1.273-.396 1.894-1.383.52-2.88.685-4.305 1.07 1.762-9.731 3.66-19.439 5.3-29.193ZM51.108 9.541c.34-1.47.758-3.066 1.932-4.102.795 1.039.884 2.384.948 3.64.066 2.324-.052 4.66-.473 6.95-.222 1.177-.672 2.46-1.794 3.054-.441-.665-.793-1.397-.88-2.2-.322-2.439-.16-4.926.267-7.342ZM67.703 21.066c.52-.356 1.182-.203 1.664.139.913.662 1.521 1.664 1.92 2.707.864 2.304 1.337 4.74 1.585 7.185.594 5.85.21 11.75-.462 17.575-.653 4.144-1.438 8.407-3.607 12.058-.792 1.14-1.767 2.478-3.27 2.59-1.31-.055-2.078-1.311-2.49-2.412-1.243-3.782-1.511-7.795-1.654-11.749-.032-5.979.352-11.987 1.5-17.861.553-2.745 1.142-5.556 2.609-7.974.566-.89 1.29-1.724 2.205-2.258Zm-.465 10.62c-.657.741-.889 1.733-1.157 2.663-1.002 4.035-1.607 8.2-1.408 12.367.148 1.805.239 3.687.994 5.358.436.843 1.531.378 1.908-.27.997-1.513 1.29-3.37 1.595-5.125.502-4.097.768-8.263.19-12.367-.138-.839-.305-1.712-.803-2.419-.278-.393-.977-.625-1.32-.207ZM77.143 22.391c1.13-.633 2.585-1.142 3.81-.472 1.677.814 2.268 2.767 2.694 4.443.605 3.01.645 6.11.512 9.166-.133 7.56-.296 15.122-.244 22.685-1.162.186-2.334.255-3.5.391-.042-.53-.082-1.06-.109-1.59-.657 1.175-1.565 2.64-3.086 2.609-1.138.12-1.866-.945-2.238-1.874-.94-2.406-.982-5.052-.95-7.601-.067-1.464.066-2.925.157-4.384.24-2.443.407-4.918 1.11-7.282.498-1.421 1.143-2.974 2.538-3.723 1.022-.62 2.295-.29 3.232.336-.049-1.498-.206-3.073-.984-4.389-.401-.717-1.317-1.11-2.095-.818-1.012.282-1.6 1.236-2.188 2.027.155-2.833.327-5.664.433-8.5.005-.52.537-.774.908-1.024Zm1.888 19.625c-1.034.779-1.334 2.153-1.543 3.365-.182 1.528-.217 3.162.413 4.599.276.72 1.354.808 1.768.173 1.236-1.706 1.172-3.941 1.112-5.951-.083-.737-.1-1.625-.723-2.132-.266-.314-.717-.282-1.027-.054ZM50.212 23.032c.947-.228 1.897-.445 2.85-.653-.817 13.544-1.878 27.074-2.72 40.616a23.399 23.399 0 0 1-2.828-.551c.231-4.851.64-9.693.925-14.539.468-8.3 1.128-16.588 1.773-24.873ZM45.173 23.778c1.046-.227 2.092-.45 3.14-.667-1.356 5.514-2.793 11.003-4.12 16.524-.234.853-.202 1.743-.116 2.613.613 6.607 1.194 13.218 1.723 19.832-1.124-.264-2.254-.502-3.38-.771-.383-3.607-.661-7.227-1.073-10.832-1.137 3.142-2.178 6.317-3.305 9.465-1.29-.18-2.543-.53-3.808-.824 1.578-5.709 3.473-11.322 5.272-16.964.205-.72.564-1.436.473-2.205a878.58 878.58 0 0 1-1.002-15.26c1.034-.171 2.063-.372 3.1-.527.282 2.596.474 5.202.792 7.796.797-2.72 1.585-5.44 2.304-8.18ZM26.893 28.778c1.032-1.941 2.184-4.142 4.345-4.982 1.548-.512 2.838.89 3.298 2.23.835 2.331.914 4.853.946 7.306-.121 2.96-.185 5.93-.562 8.871-2.49-.002-4.97-.262-7.456-.346-.15 2.312-.354 4.782.64 6.943.397.945 1.504 1.538 2.496 1.222 1.507-.487 2.47-1.833 3.55-2.903-.29 3.269-.78 6.515-1.15 9.774-1.346 1.525-3.443 2.64-5.506 2.111-1.334-.212-2.353-1.216-3.07-2.302-1.12-1.622-1.437-3.62-1.555-5.548-.817-7.65.797-15.441 4.024-22.376ZM30 31.136c-.857 1.143-1.233 2.56-1.497 3.944 1.24.096 2.484.109 3.727.08-.062-1.36.219-2.869-.532-4.09-.401-.638-1.297-.488-1.698.066ZM86.65 23.769c1.1.484 2.176 1.02 3.242 1.582-.008.425-.013.853-.018 1.278.751-.507 1.736-.991 2.602-.442 1.75 1.053 2.24 3.204 2.799 5.026.783-.57 1.844-1.085 2.762-.487 1.637 1.059 2.37 3.007 2.929 4.792 1.45 4.905 1.61 10.063 1.93 15.134.005 4.325.081 8.657-.249 12.974-.984-.89-2.011-1.733-3.143-2.426-.017-5.41.037-10.82-.126-16.225-.138-1.978.013-4.017-.613-5.926-.18-.589-.723-1.078-1.36-1.011-.968-.003-1.328 1.176-1.293 1.978.059 1.575-.175 3.147-.025 4.72.118 3.454-.115 6.918.118 10.37.067 1.567-.083 3.127-.125 4.692a47.104 47.104 0 0 0-3.222-1.194c.09-1.998-.116-3.99-.072-5.986.003-5.271.008-10.543.008-15.814-.045-.78-.148-1.739-.891-2.174-.54-.37-1.335-.096-1.586.492-.47.975-.428 2.092-.492 3.148-.216 6.616-.32 13.233-.492 19.85-1.054.024-2.105-.122-3.156-.008-.056-4.962.126-9.917.138-14.877.187-2.141.002-4.29.16-6.431-.034-4.35.202-8.689.175-13.035Z" fill="#17981A"/></g></symbol><symbol id="grinding" viewBox="0 0 45 45"><g fill="none"><path fill-rule="evenodd" clip-rule="evenodd" d="M25.567 22.445a3.172 3.172 0 0 1-6.047 1.336 3.169 3.169 0 1 1 6.047-1.336Zm-3.869 0a.692.692 0 1 0 .173-.46.692.692 0 0 0-.173.465v-.005Zm-5.718 9.564a3.172 3.172 0 0 1-6.043 1.336 3.17 3.17 0 1 1 6.043-1.331v-.005Zm-3.869 0a.7.7 0 0 0 .99.63.7.7 0 0 0 .338-.924.7.7 0 0 0-1.328.302v-.008Zm14.517 3.859a3.17 3.17 0 1 1-6.229-.84 3.17 3.17 0 0 1 6.229.848v-.008Zm-3.868 0a.707.707 0 0 0 .45.652.7.7 0 1 0-.45-.646v-.006Zm13.7-5.631c0 .196-.018.392-.054.585a3.145 3.145 0 1 1 .051-.577l.003-.008Zm-3.867.008c0 .14.043.276.122.392a.692.692 0 1 0-.125-.386l.003-.006Zm5.912-11.122a3.172 3.172 0 0 1-5.626 2 3.111 3.111 0 0 1-.7-2.32 3.17 3.17 0 0 1 6.326.326v-.006Zm-3.866 0a.688.688 0 0 0 .626.689.693.693 0 1 0-.623-.76c-.005.033-.005.056-.005.08l.002-.01Zm-3.316-8.747v.058a3.143 3.143 0 0 1-.968 2.22 3.174 3.174 0 0 1-4.484-.08 3.094 3.094 0 0 1-.888-2.253 3.17 3.17 0 0 1 6.34.064v-.01Zm-3.867 0a.7.7 0 0 0 1.179.5.69.69 0 0 0 .213-.49.662.662 0 0 0-.194-.492.7.7 0 0 0-.985-.02.696.696 0 0 0-.213.489v.012Zm-7.462-.17a3.17 3.17 0 0 1-6.333.2 3.1 3.1 0 0 1 .781-2.293 3.171 3.171 0 0 1 5.552 2.103v-.01Zm-3.866-.007v.048a.7.7 0 0 0 1.357.178c.03-.087.04-.179.033-.27a.678.678 0 0 0-.236-.474.7.7 0 0 0-.982.063.68.68 0 0 0-.172.465v-.01Zm28.661 12.39a22.394 22.394 0 1 1-44.787-.045 22.394 22.394 0 0 1 44.787.055v-.01Zm-42.336-.073A19.931 19.931 0 1 0 34.231 6.549 19.917 19.917 0 0 0 2.453 22.526v-.01Zm10.091-2.05a3.17 3.17 0 1 1-.037-.476c.024.16.037.323.037.486v-.01Zm-3.867-.006a.7.7 0 1 0 1.111-.557.695.695 0 0 0-1.111.567v-.01Z" fill="currentColor"/></g></symbol><symbol id="hanko"><g fill="none"><path d="M128.255 12.236c0-1.971-.095-3.23-.333-3.777-.214-.546-.665-.808-1.33-.808-.57 0-1.022.214-1.307.665-.309.428-.451 1.735-.451 3.92v19.72c0 2.447.095 3.967.309 4.537.19.57.665.856 1.401.856.737 0 1.212-.333 1.426-.998.214-.665.309-2.233.309-4.728l-.024-19.387Zm10.976 13.875c0 4.253-.095 7.247-.285 9.005a10.324 10.324 0 0 1-1.877 4.846c-1.045 1.45-2.471 2.59-4.253 3.374-1.781.784-3.872 1.164-6.248 1.164-2.257 0-4.3-.38-6.082-1.117-1.806-.736-3.255-1.853-4.348-3.326s-1.734-3.088-1.948-4.823c-.214-1.734-.309-4.799-.309-9.123V18.89c0-4.253.095-7.246.309-9.028a9.762 9.762 0 0 1 1.877-4.823c1.045-1.45 2.471-2.59 4.253-3.374C122.101.88 124.192.5 126.568.5c2.257 0 4.3.38 6.082 1.117 1.806.736 3.255 1.853 4.348 3.326s1.734 3.088 1.948 4.823c.214 1.734.309 4.775.309 9.123l-.024 7.222ZM112.598 1.38l-6.296 19.054 6.89 23.164H101.86l-4.443-18.104v18.104H86.44V1.38h10.976v16.417l4.87-16.417h10.311Zm-30.553 0v42.218h-9.622l-5.725-19.196v19.196h-9.171V1.38h9.17l6.154 19.006V1.38h9.194ZM43.557 28.535c-.57-4.776-1.116-10.692-1.663-17.724-1.116 8.078-1.805 13.97-2.09 17.724h3.753Zm5.797-27.156 6.296 42.218H44.413l-.547-7.602h-3.944l-.641 7.602H27.924L33.508 1.38h15.846ZM26 1.379v42.218H15.024V25.874h-3.279v17.723h-11V1.38h10.976v15.086H15V1.38h11Z" fill="#00B0BD"/></g></symbol><symbol id="heart"><path d="M17.487 1.8c-2.3 0-4.3 1.588-5.1 3.706V5.4v.106c-.8-2.118-2.8-3.706-5.1-3.706-3 0-5.4 2.541-5.4 5.612 0 1.906 1.9 4.553 3.4 6.247.9 1.059 1.9 2.012 2.9 2.753l4.1 3.388 4.1-3.388c1-.847 2-1.8 2.9-2.753 1.7-1.8 3.6-4.341 3.6-6.247 0-3.07-2.4-5.612-5.4-5.612Z" fill="currentColor"/></symbol><symbol id="icon-close-search"><g fill="none"><path transform="rotate(-45 16.005 2.659)" stroke="#000" stroke-width="3" d="M0-1.5h13"/><path transform="rotate(45 -3.162 2.28)" stroke="#000" stroke-width="3" d="M0-1.5h13"/></g></symbol><symbol id="icon-contacts"><g fill="none"><path d="M11.694 3.75c-1-1.7-2.7-2.8-4.6-3.1h-1.6c-1.9.3-3.6 1.4-4.6 3.1-1 1.9-1.2 4.1-.4 6.1l4.8 11.8c.2.4.6.7 1 .7s.8-.3 1-.7l4.8-11.8c.9-2 .7-4.2-.4-6.1Zm-1.5 5.2-3.8 9.3-3.9-9.3c-.5-1.3-.4-2.8.3-4.1.7-1.1 1.8-1.9 3-2h1c1.2.1 2.3.9 3 2 .8 1.3.9 2.8.4 4.1Zm-3.9-3.8c-1 0-1.9.8-1.9 1.9 0 1 .8 1.9 1.9 1.9 1.1 0 1.9-.8 1.9-1.9 0-1.1-.8-1.9-1.9-1.9Z" fill="#221F1F"/></g></symbol><symbol id="icon-instagram"><g fill="none"><path d="M6.6.408H15c3.2 0 5.8 2.6 5.8 5.8v8.4a5.8 5.8 0 0 1-5.8 5.8H6.6c-3.2 0-5.8-2.6-5.8-5.8v-8.4a5.8 5.8 0 0 1 5.8-5.8Zm-.2 2a3.6 3.6 0 0 0-3.6 3.6v8.8c0 1.99 1.61 3.6 3.6 3.6h8.8a3.6 3.6 0 0 0 3.6-3.6v-8.8c0-1.99-1.61-3.6-3.6-3.6H6.4Zm9.65 1.5a1.25 1.25 0 1 1 0 2.5 1.25 1.25 0 0 1 0-2.5Zm-5.25 1.5a5 5 0 1 1 0 10 5 5 0 0 1 0-10Zm0 2a3 3 0 1 0 0 6 3 3 0 0 0 0-6Z" fill="#FF812E"/></g></symbol><symbol id="icon-search"><g fill="none"><path d="m21.475 19.8-4.3-4.3c3-3.7 2.8-9.2-.7-12.7-1.9-1.8-4.3-2.8-6.9-2.8-2.6 0-5 1-6.8 2.8-3.7 3.7-3.7 9.8 0 13.5 1.8 1.8 4.2 2.8 6.8 2.8 2.2 0 4.3-.7 6-2.1l4.3 4.3c.2.2.5.3.8.3.3 0 .6-.1.8-.3.4-.4.4-1.1 0-1.5Zm-17.1-5.1c-2.9-2.9-2.9-7.5 0-10.4 1.4-1.4 3.3-2.2 5.2-2.2 2 0 3.8.8 5.2 2.2 2.9 2.9 2.9 7.5 0 10.4-1.4 1.4-3.3 2.2-5.2 2.2-2 0-3.8-.8-5.2-2.2Z" fill="#221F1F"/></g></symbol><symbol id="icon-telegram"><g fill="none"><path d="M16.971 1.592 13.875 14.32a.96.96 0 0 1-1.372.624l-3.915-2.016-1.852 3.021c-.504.824-1.779.467-1.779-.496v-3.367c0-.26.11-.509.298-.69l7.63-7.267c-.005-.09-.102-.17-.2-.103L3.58 10.348.52 8.774c-.716-.37-.685-1.405.055-1.726L15.66.49c.723-.315 1.5.333 1.311 1.102Z" fill="#FF812E"/></g></symbol><symbol id="icon-vk"><g fill="none"><path d="M13.77.408H7.63C2.03.408.7 1.738.7 7.338v6.14c0 5.6 1.33 6.93 6.93 6.93h6.14c5.6 0 6.93-1.33 6.93-6.93v-6.14c0-5.6-1.33-6.93-6.93-6.93Zm3.08 14.27h-1.46c-.55 0-.72-.45-1.69-1.44-.88-.83-1.26-.95-1.47-.95-.29 0-.38.08-.38.5v1.31c0 .35-.11.57-1.04.57-1.54 0-3.25-.94-4.45-2.67-1.81-2.54-2.3-4.46-2.3-4.84 0-.21.07-.41.49-.41h1.47c.37 0 .51.16.65.56.72 2.1 1.92 3.9 2.41 3.9.19 0 .27-.09.27-.55v-2.15c-.05-.98-.58-1.07-.58-1.42 0-.18.14-.34.37-.34h2.29c.31 0 .42.16.42.54v2.89c0 .31.13.42.23.42.18 0 .34-.11.67-.45 1.05-1.17 1.8-2.98 1.8-2.98.1-.21.26-.41.65-.41h1.43c.44 0 .54.23.44.54-.18.85-1.96 3.36-1.94 3.36-.16.25-.22.36 0 .65.15.21.66.65 1 1.04.62.71 1.1 1.3 1.23 1.71.11.41-.09.62-.51.62Z" fill="#FF812E"/></g></symbol><symbol id="icon-whatsapp"><g fill="none"><path d="M10.29.408c-5.46 0-9.91 4.45-9.91 9.91 0 1.75.46 3.45 1.32 4.95l-1.4 5.14 5.25-1.38c1.45.79 3.08 1.21 4.74 1.21 5.46 0 9.91-4.45 9.91-9.91 0-2.65-1.03-5.14-2.9-7.01a9.816 9.816 0 0 0-7.01-2.91Zm.01 1.67c2.2 0 4.26.86 5.82 2.42a8.225 8.225 0 0 1 2.41 5.83c0 4.54-3.7 8.23-8.24 8.23-1.48 0-2.93-.39-4.19-1.15l-.3-.17-3.12.82.83-3.04-.2-.32a8.188 8.188 0 0 1-1.26-4.38c.01-4.54 3.7-8.24 8.25-8.24Zm-3.52 3.66c-.16 0-.43.06-.66.31-.22.25-.87.86-.87 2.07 0 1.22.89 2.39 1 2.56.14.17 1.76 2.67 4.25 3.73.59.27 1.05.42 1.41.53.59.19 1.13.16 1.56.1.48-.07 1.46-.6 1.67-1.18.21-.58.21-1.07.15-1.18-.07-.1-.23-.16-.48-.27-.25-.14-1.47-.74-1.69-.82-.23-.08-.37-.12-.56.12-.16.25-.64.81-.78.97-.15.17-.29.19-.53.07-.26-.13-1.06-.39-2-1.23-.74-.66-1.23-1.47-1.38-1.72-.12-.24-.01-.39.11-.5.11-.11.27-.29.37-.44.13-.14.17-.25.25-.41.08-.17.04-.31-.02-.43-.06-.11-.56-1.35-.77-1.84-.2-.48-.4-.42-.56-.43-.14 0-.3-.01-.47-.01Z" fill="#FF812E"/></g></symbol><symbol id="icon-youtube" viewBox="0 0 21 15"><g fill="none"><path d="m8.3 10.408 5.19-3-5.19-3v6Zm11.56-7.83c.13.47.22 1.1.28 1.9.07.8.1 1.49.1 2.09l.06.84c0 2.19-.16 3.8-.44 4.83-.25.9-.83 1.48-1.73 1.73-.47.13-1.33.22-2.65.28-1.3.07-2.49.1-3.59.1l-1.59.06c-4.19 0-6.8-.16-7.83-.44-.9-.25-1.48-.83-1.73-1.73-.13-.47-.22-1.1-.28-1.9-.07-.8-.1-1.49-.1-2.09l-.06-.84c0-2.19.16-3.8.44-4.83.25-.9.83-1.48 1.73-1.73.47-.13 1.33-.22 2.65-.28 1.3-.07 2.49-.1 3.59-.1l1.59-.06c4.19 0 6.8.16 7.83.44.9.25 1.48.83 1.73 1.73Z" fill="#FF812E"/></g></symbol><symbol id="logo"><path d="M23.52 1v21h-8.4V7.09h-3.36v7.86c0 .72-.05 1.51-.15 2.37-.1.84-.43 1.64-.99 2.4-.54.74-1.39 1.36-2.55 1.86s-2.8.75-4.92.75c-.62 0-1.2-.04-1.74-.12C.89 22.15.42 22.08 0 22v-5.88c.22.06.44.11.66.15.22.04.44.06.66.06.7 0 1.24-.12 1.62-.36.4-.26.69-.6.87-1.02.18-.44.29-.93.33-1.47.04-.56.06-1.14.06-1.74V1h19.32Zm14.99 21.63c-2.06 0-3.85-.31-5.37-.93-1.52-.64-2.78-1.47-3.78-2.49-1-1.04-1.75-2.23-2.25-3.57-.5-1.34-.75-2.72-.75-4.14 0-1.42.25-2.8.75-4.14a9.99 9.99 0 0 1 2.25-3.54c1-1.04 2.26-1.87 3.78-2.49 1.52-.64 3.31-.96 5.37-.96s3.85.32 5.37.96c1.52.62 2.78 1.45 3.78 2.49a9.465 9.465 0 0 1 2.25 3.54c.5 1.34.75 2.72.75 4.14 0 1.42-.25 2.8-.75 4.14a9.739 9.739 0 0 1-2.25 3.57c-1 1.02-2.26 1.85-3.78 2.49-1.52.62-3.31.93-5.37.93Zm0-6.72c.54 0 1.05-.09 1.53-.27.5-.18.94-.45 1.32-.81.4-.38.71-.84.93-1.38.24-.56.36-1.21.36-1.95s-.12-1.38-.36-1.92c-.22-.56-.53-1.02-.93-1.38-.38-.38-.82-.66-1.32-.84-.48-.18-.99-.27-1.53-.27s-1.06.09-1.56.27c-.48.18-.92.46-1.32.84-.38.36-.69.82-.93 1.38-.22.54-.33 1.18-.33 1.92s.11 1.39.33 1.95c.24.54.55 1 .93 1.38.4.36.84.63 1.32.81.5.18 1.02.27 1.56.27ZM53.511 1h14.7v6.09h-6.3V22h-8.4V1Zm28.242 21.63c-2.06 0-3.85-.31-5.37-.93-1.52-.64-2.78-1.47-3.78-2.49-1-1.04-1.75-2.23-2.25-3.57-.5-1.34-.75-2.72-.75-4.14 0-1.42.25-2.8.75-4.14a9.99 9.99 0 0 1 2.25-3.54c1-1.04 2.26-1.87 3.78-2.49 1.52-.64 3.31-.96 5.37-.96s3.85.32 5.37.96c1.52.62 2.78 1.45 3.78 2.49a9.465 9.465 0 0 1 2.25 3.54c.5 1.34.75 2.72.75 4.14 0 1.42-.25 2.8-.75 4.14a9.739 9.739 0 0 1-2.25 3.57c-1 1.02-2.26 1.85-3.78 2.49-1.52.62-3.31.93-5.37.93Zm0-6.72c.54 0 1.05-.09 1.53-.27.5-.18.94-.45 1.32-.81.4-.38.71-.84.93-1.38.24-.56.36-1.21.36-1.95s-.12-1.38-.36-1.92c-.22-.56-.53-1.02-.93-1.38-.38-.38-.82-.66-1.32-.84-.48-.18-.99-.27-1.53-.27s-1.06.09-1.56.27c-.48.18-.92.46-1.32.84-.38.36-.69.82-.93 1.38-.22.54-.33 1.18-.33 1.92s.11 1.39.33 1.95c.24.54.55 1 .93 1.38.4.36.84.63 1.32.81.5.18 1.02.27 1.56.27Z"/></symbol><symbol id="mail"><g fill="none"><path d="M10 13.5c.81 0 1.5-.3 2.11-.89.59-.61.89-1.3.89-2.11 0-.81-.3-1.5-.89-2.11-.61-.59-1.3-.89-2.11-.89-.81 0-1.5.3-2.11.89C7.3 9 7 9.69 7 10.5c0 .81.3 1.5.89 2.11.61.59 1.3.89 2.11.89Zm0-13c2.75 0 5.1 1 7.05 2.95C19 5.4 20 7.75 20 10.5v1.45c0 1-.35 1.85-1 2.55-.7.67-1.5 1-2.5 1-1.2 0-2.19-.5-2.94-1.5-1 1-2.18 1.5-3.56 1.5-1.37 0-2.55-.5-3.54-1.46C5.5 13.05 5 11.88 5 10.5c0-1.37.5-2.55 1.46-3.54C7.45 6 8.63 5.5 10 5.5c1.38 0 2.55.5 3.54 1.46.96.99 1.46 2.17 1.46 3.54v1.45c0 .41.16.77.46 1.08.3.31.65.47 1.04.47.42 0 .77-.16 1.07-.47.3-.31.43-.67.43-1.08V10.5c0-2.19-.77-4.07-2.35-5.65S12.19 2.5 10 2.5c-2.19 0-4.07.77-5.65 2.35S2 8.31 2 10.5c0 2.19.77 4.07 2.35 5.65S7.81 18.5 10 18.5h5v2h-5c-2.75 0-5.1-1-7.05-2.95C1 15.6 0 13.25 0 10.5s1-5.1 2.95-7.05C4.9 1.5 7.25.5 10 .5Z" fill="#FF812E"/></g></symbol><symbol id="map"><g fill="none"><path d="M15.75 19 13 16l1.16-1.18 1.59 1.59 3.59-3.59 1.16 1.41L15.75 19ZM18 0a.5.5 0 0 1 .5.5v9.84c-.63-.22-1.3-.34-2-.34V2.7l-3 1.16v6.94c-.8.47-1.5 1.11-2 1.88V3.87l-4-1.4v11.66l3.05 1.07-.05.8c0 .46.05.92.15 1.35L6.5 15.9l-5.34 2.07L1 18a.5.5 0 0 1-.5-.5V2.38c0-.23.15-.41.36-.48L6.5 0l6 2.1L17.84.03 18 0ZM2.5 3.46v11.85l3-1.16V2.45l-3 1.01Z" fill="#E9E9E9"/></g></symbol><symbol id="materials" viewBox="0 0 34 45"><g fill="none"><path fill-rule="evenodd" clip-rule="evenodd" d="M30.78 44.564H2.8a2.763 2.763 0 0 1-2.81-2.71v-26.6a9.071 9.071 0 0 1 3.31-6.96 1.2 1.2 0 0 1-.61-1.022V1.406A1.262 1.262 0 0 1 3.97.17h25.64a1.256 1.256 0 0 1 1.28 1.235v5.866a1.2 1.2 0 0 1-.61 1.024 9.067 9.067 0 0 1 3.31 6.959v26.6a2.763 2.763 0 0 1-2.81 2.709Zm-28.23-2.71a.243.243 0 0 0 .25.239h27.98a.241.241 0 0 0 .23-.145.243.243 0 0 0 .02-.093v-4.93H2.55v4.93Zm0-7.4h28.48v-4.171h-6.54a1.456 1.456 0 0 1-.32-.04c-.101.025-.205.039-.31.04H17.1a1.222 1.222 0 0 0-.62 0H9.72c-.104-.001-.209-.015-.31-.04a1.368 1.368 0 0 1-.31.04H2.55v4.172Zm26.48-6.642-1.16-1.953-1.17 1.953h2.33Zm-7.38 0-1.17-1.953-1.16 1.953h2.33Zm-7.39 0-1.16-1.953-1.17 1.953h2.33Zm-7.38 0-1.17-1.953-1.16 1.953h2.33ZM28.33 2.645H5.25V6.04h23.08V2.645Zm2.7 12.613a6.874 6.874 0 0 0-6.98-6.747H9.53a6.874 6.874 0 0 0-6.98 6.747v1.712h28.48v-1.712ZM2.55 19.437v6.772l2.06-3.44a1.35 1.35 0 0 1 2.21 0l2.59 4.327 2.58-4.326a1.305 1.305 0 0 1 2.22 0l2.58 4.325 2.59-4.326a1.273 1.273 0 0 1 1.1-.618 1.287 1.287 0 0 1 1.11.619l2.58 4.324 2.59-4.324a1.35 1.35 0 0 1 2.21 0l2.06 3.439v-6.772H2.55Z" fill="currentColor"/></g></symbol><symbol id="menu-open"><g fill="none"><path d="m28 5.839-5.359-3.581-5.359 3.58-5.358-3.58-5.36 3.58L1 2.259M28 14.194l-5.359-3.581-5.359 3.58-5.358-3.58-5.36 3.58L1 10.614M28 22.548l-5.359-3.58-5.359 3.58-5.358-3.58-5.36 3.58L1 18.968" stroke="#000" stroke-width="3" stroke-miterlimit="10"/></g></symbol><symbol id="mirka"><g fill="none"><path fill-rule="evenodd" clip-rule="evenodd" d="M.745.25h112v22.738h-112V.25Z" fill="#FDC300"/><path fill-rule="evenodd" clip-rule="evenodd" d="M2.878 20.845 15.441 2.433h6.084V12.71l6.677-10.277h6.716v18.412h-6.716v-9.523l-6.677 9.523h-5.768V11.64l-5.254 9.206H2.878ZM36.775 2.433h7.15v18.412h-7.15V2.433ZM51.59 7.393v4.722h4.069s2.568-.158 2.568-2.5c0-2.222-2.568-2.222-2.568-2.222h-4.07Zm-5.65-4.96h11.022S63.64 1.48 63.64 9.02c0 7.183-3.398 6.865-3.398 6.865l3.872 5h-7.27l-2.33-4.405h-2.884v4.405h-5.65V2.433h-.039ZM65.22 2.433v18.412h6.202v-7.341l5.136 7.341h7.94L77.19 11.48l6.834-9.047H76.4l-4.978 7.5v-7.5h-6.203ZM91.57 7.234v6.27h4.74l-4.74-6.27Zm-6.124-4.801h9.956l15.21 18.452h-8.06l-2.528-2.54H91.57v2.54h-6.163V2.433h.04Z" fill="#1D1D1B"/></g></symbol><symbol id="norton"><g fill="none"><path d="M97.59 46.342H.745v.82H97.59v-.82ZM61.675 39.24h-1.578v-.933h4.085v.933h-1.493v4.98h-1.014v-4.98ZM65.957 41.192H63.9v.99h2.057v-.99ZM69.055 41.193h3.634v.113c0 1.698-1.38 3.027-2.902 3.027-1.634 0-3.014-1.33-3.014-3.084s1.352-3.056 2.986-3.056c1.38 0 2.366.99 2.648 1.868h-1.211a1.64 1.64 0 0 0-1.465-.849c-1.296 0-1.944 1.16-1.944 2.066 0 .933.62 2.037 2 2.037.676 0 1.296-.396 1.606-1.132h-2.366v-.99h.028ZM80.858 41.504h.817c.93 0 .957.68.957.934 0 .594-.535.764-.985.764h-.817v-1.698h.028Zm-1.014 2.716h1.746c.395 0 1.042-.028 1.465-.368.338-.254.676-.679.676-1.386 0-1.019-.563-1.33-.93-1.471.17-.113.62-.368.62-1.132 0-.425-.197-.82-.45-1.075-.48-.453-1.127-.453-1.747-.453H79.9v5.885h-.056Zm1.014-4.98h.704c.648 0 .845.283.845.651 0 .623-.676.623-.93.623h-.591V39.24h-.028ZM90.632 38.307h-1.07v5.913h1.07v-5.913ZM76.21 38.193c-1.662 0-3.07 1.358-3.07 3.056s1.408 3.084 3.07 3.084c1.746 0 3.07-1.386 3.07-3.084 0-1.698-1.324-3.056-3.07-3.056Zm0 5.093c-1.099 0-2-.905-2-2.037 0-1.103.901-2.037 2-2.037 1.127 0 2.084.934 2.084 2.037 0 1.132-.957 2.037-2.084 2.037ZM83.675 44.22l2.338-5.913h.817l2.281 5.913h-1.07l-.535-1.5h-2.197l-.564 1.5h-1.07Zm2.732-4.414-.788 1.924h1.492l-.704-1.924ZM91.647 38.307h1.042l2.422 3.876v-3.876h1.014v5.913h-.957l-2.507-4.074v4.074h-1.014v-5.913ZM44.379 42.523c.056.565.648.763.958.763.394 0 .845-.282.845-.735 0-.594-.45-.793-1.155-1.047-.507-.17-1.465-.396-1.465-1.613 0-.962.789-1.698 1.803-1.698.648 0 1.662.481 1.718 1.698H46.07c-.056-.566-.45-.707-.732-.707-.31 0-.733.254-.733.594 0 .538.507.707 1.099.905.45.17 1.55.481 1.55 1.783 0 1.245-1.015 1.896-1.888 1.896-.789 0-1.916-.538-1.972-1.811h.986v-.029ZM54.069 38.307h-1.014v5.913h1.014v-5.913ZM47.083 44.22l2.366-5.913h.79l2.309 5.913h-1.07l-.564-1.5h-2.169l-.563 1.5h-1.099Zm2.76-4.414-.732 1.924h1.465l-.732-1.924ZM55.083 38.307h1.014l2.451 3.848v-3.848h1.014v5.913h-.958l-2.507-4.102v4.102h-1.014v-5.913Z" fill="#646363"/><path d="M95.647 35.336 112.745.25H17.844L.745 35.336h94.902Z" fill="#0070BA"/><path d="m23.619 15.586-.226.452-4.056 8.093h-2.704l6.225-12.507h2.676l.789 8.602 4.479-8.601h2.479L27.055 24.13h-2.62l-.816-8.545ZM31.562 24.16c-.563-.057-.845-.623-.648-1.218l5.042-10.299c.62-1.018 1.747-.99 1.662-.99h7.888c.676.056.816.707.648 1.217L41.11 23.169c-.45 1.103-1.605.99-1.55.99h-8Zm6.76-2.151c-.197-.029.79.141 1.155-.708l3.324-6.734c.113-.368.141-.792-.45-.849h-3.465c.197.029-.733-.028-1.183.708l-3.324 6.734c-.113.34.14.82.45.849h3.493ZM46.464 24.13H43.9l6.113-12.505h8.169s1.605.028 1.296 1.16c-.31 1.131-2.761 5.857-2.761 5.857s-.366.933-2.31.764h-.873l.845 4.725H51.9l-.76-4.697h-2.367l-2.31 4.697Zm6.93-6.479c1.154.029 1.548-.622 1.548-.622l1.212-2.292c.422-1.047-.648-.99-.648-.99h-4l-1.888 3.904h3.775ZM66.689 13.69h3.944l.76-2.037H61.365l-.789 2.037h3.718l-5.21 10.47h2.422l5.183-10.47ZM67.703 24.13c-.564-.056-.845-.622-.648-1.216l5.042-10.3c.62-1.018 1.747-.99 1.662-.99h7.888c.675.085.816.708.647 1.217l-5.07 10.328c-.45 1.103-1.606.99-1.55.99l-7.971-.028Zm6.732-2.15c-.197-.028.789.142 1.155-.707l3.324-6.734c.113-.368.14-.792-.45-.849h-3.465c.197.028-.733-.028-1.183.708l-3.325 6.734c-.112.34.141.82.451.848h3.493ZM86.492 15.586l-.226.452-4.056 8.093h-2.676l6.225-12.507h2.648l.817 8.602 4.45-8.601h2.48L89.928 24.13h-2.62l-.816-8.545Z" fill="#fff"/></g></symbol><symbol id="pferd"><g fill="none"><path d="M.777.25H8.86c1.188.076 2.42.267 3.436.927.813.515 1.403 1.34 1.695 2.25.35 1.06.407 2.197.305 3.303-.082.946-.286 1.899-.768 2.725a4.567 4.567 0 0 1-2.147 1.918c-.978.432-2.057.56-3.111.56H4.663v5.818H.777V.25Zm3.93 3.036v5.35H7.7c.622-.007 1.27-.052 1.842-.318.47-.204.844-.597 1.028-1.074.223-.565.26-1.188.229-1.791-.038-.61-.254-1.258-.768-1.633-.61-.45-1.41-.514-2.14-.534-1.061-.006-2.122 0-3.182 0ZM15.675.25h12.95v3.24h-9.057V7.37h6.471v3.888h-6.47v6.486h-3.887c-.007-5.826-.007-11.663-.007-17.495ZM29.92.25H42.88v3.24h-9.062v3.24h6.477v3.887H33.82v3.24h9.062v3.894H29.92V.25ZM44.17.25h9.424c.775.044 1.55.178 2.274.483a4.933 4.933 0 0 1 2.292 1.9c.686 1.054.94 2.337.915 3.582-.013 1.169-.222 2.389-.89 3.373-.577.877-1.479 1.487-2.419 1.919 1.162 2.083 2.33 4.16 3.493 6.244-1.575 0-3.156.006-4.731-.006-1.035-1.944-2.064-3.888-3.118-5.82-1.118.014-2.23 0-3.34.007v5.82c-1.302-.007-2.598.006-3.9-.007 0-5.832-.006-11.663 0-17.495Zm3.893 3.24c0 1.734-.006 3.462.006 5.196 1.442-.006 2.884 0 4.319-.006.68-.026 1.41-.083 1.981-.496.495-.355.711-.972.775-1.55.076-.654.076-1.36-.235-1.963-.229-.463-.673-.787-1.156-.946-.8-.28-1.664-.229-2.502-.235h-3.188ZM60.364.25h7.583c1.422.057 2.87.337 4.102 1.074 1.22.711 2.14 1.848 2.724 3.119 1.525 3.24 1.321 7.273-.654 10.278a6.507 6.507 0 0 1-3.36 2.554c-.977.336-2.012.457-3.041.476-2.445.013-4.896-.013-7.341.013-.026-2.11 0-4.218-.013-6.327V.25Zm3.887 3.24v11.028c1.098 0 2.197.006 3.295-.007.991-.006 1.995-.298 2.788-.902.781-.584 1.34-1.429 1.664-2.344.413-1.143.477-2.401.26-3.595-.177-.972-.584-1.912-1.244-2.65a4.452 4.452 0 0 0-2.407-1.397c-.54-.127-1.099-.133-1.657-.133h-2.7ZM.777 19.27h75v45.648h-75V19.27Zm.876.85v43.935h73.222V20.12c-24.411-.007-48.817 0-73.222 0Z" fill="#0080FF"/><path d="M34.847 22.897c.483-.502 1.1-.928 1.804-.991.762-.064 1.48.33 2.007.85.584.598 1.054 1.297 1.48 2.015.666 1.137 1.054 2.42 1.378 3.69.54 2.16.927 4.352 1.225 6.563.635-.108 1.27-.23 1.912-.343.863-.16 1.72-.343 2.597-.375 1.188-.07 2.375.159 3.544.298 1.41-.825 2.89-1.62 4.515-1.93 1.048-.21 2.121-.223 3.182-.147 1.25.089 2.495.229 3.74.343 1.562.159 3.175.216 4.693-.241a6.989 6.989 0 0 0 1.67-.769 8.082 8.082 0 0 1-1.105 3.754c-.527.877-1.168 1.716-2.026 2.294-1.447.984-3.257 1.308-4.978 1.168-1.283-.076-2.483-.641-3.779-.654a5.48 5.48 0 0 0-1.238.203c.47.77.673 1.658.863 2.522.248 1.087.432 2.192.788 3.253.152.47.324.953.673 1.315.45.495 1.111.75 1.765.845.655.089 1.315.114 1.975.133.109-.013.147.108.204.172 1.772 2.407 3.55 4.815 5.328 7.222.654-.228 1.308-.463 1.956-.692.844 1.702 1.69 3.398 2.527 5.101-.698.356-1.397.712-2.089 1.074-.546.273-1.086.61-1.702.698-1.099.197-2.204-.222-3.105-.838-.851-.572-1.53-1.353-2.248-2.077-1.505-1.544-3.004-3.094-4.516-4.631-3.073.031-6.179-.572-8.922-1.989-1.556-.8-2.909-1.982-3.976-3.367-.736.21-1.46.458-2.19.674-.293 2.052-.63 4.104-1.074 6.13-.33 1.48-.711 2.96-1.39 4.326-.496 1.023-1.08 2.026-1.912 2.814-.47.445-1.08.782-1.74.813-.578.032-1.124-.254-1.556-.622-.864-.737-1.473-1.715-1.969-2.725a12.364 12.364 0 0 1-.94-2.573c-.533-2.18-.85-4.396-1.117-6.62-1.397-.133-2.788-.374-4.14-.774-.109-.045-.223.019-.325.038-3.194.87-6.395 1.734-9.59 2.604-.12.032-.209.127-.31.197-1.804 1.378-3.607 2.75-5.41 4.13v1.638c-2.059.794-4.11 1.595-6.161 2.389.178-1.989.35-3.97.527-5.959 0-.114.12-.171.184-.248l6.878-6.594c.095-.089.216-.12.33-.177 2.426-1.087 4.858-2.18 7.284-3.26.108-.056.26-.076.292-.209.369-.858.756-1.709 1.112-2.573-1.093-1.213-2.166-2.445-3.252-3.659-1.397.502-2.794 1.01-4.191 1.512-.127.05-.292.064-.343.21-.432.762-.978 1.518-1.79 1.906-.884.419-1.944.235-2.782-.216-1.048-.566-1.76-1.544-2.426-2.497 2.514-4.923 5.042-9.846 7.557-14.776.038-.038.044-.178.12-.133.972 1.416 1.937 2.84 2.909 4.256 1.511-.159 3.055.044 4.49.54 2.165.724 4.16 1.886 6.103 3.062.965.578 1.924 1.169 2.877 1.766.279-1.525.616-3.043 1.028-4.536.318-1.112.654-2.223 1.207-3.24.47-.75.978-1.454 1.568-2.083Zm.972 1.797c-.413.426-.743.928-1.035 1.442-.533.953-.8 2.027-1.054 3.081a50.566 50.566 0 0 0-.851 4.765c.902.597 1.88 1.13 2.96 1.302 1.682.267 3.397.153 5.086.05a73.177 73.177 0 0 0-.527-3.703c-.216-1.264-.438-2.528-.826-3.748a10.434 10.434 0 0 0-1.206-2.534c-.324-.451-.699-.934-1.264-1.087-.464-.133-.953.102-1.283.432Zm-21.033 2.402c-1.81 3.544-3.62 7.095-5.43 10.64.318.477.693.978 1.258 1.169.336.12.75.102 1.01-.165.361-.375.438-.921.47-1.423 2.438-.909 4.87-1.83 7.309-2.745 1.658 1.874 3.309 3.755 4.966 5.635-.635 1.563-1.264 3.126-1.899 4.688-2.75 1.207-5.5 2.414-8.255 3.621-.14.064-.299.108-.413.223L7.4 54.723v2c.572-.196 1.144-.387 1.715-.584V54.97c2.286-1.753 4.56-3.525 6.852-5.266 3.76-1.029 7.52-2.039 11.285-3.055 1.016.432 2.09.717 3.182.876 1.454.197 2.921.248 4.382.127 2.12-.171 4.197-.641 6.268-1.111a90.49 90.49 0 0 0-.007-9.281c-1.473.127-2.959.165-4.432.044a11.01 11.01 0 0 1-3.512-.87c-.858-.35-1.607-.883-2.388-1.366a446.675 446.675 0 0 0-3.683-2.287c-1.925-1.175-3.906-2.3-6.071-2.96-1.442-.445-2.979-.483-4.465-.254a341.454 341.454 0 0 0-1.74-2.471Zm41.742 7.4c-.819.064-1.613.292-2.375.597-1.022.4-2.007.89-2.96 1.423-1.46-.28-2.965-.508-4.45-.285-1.284.197-2.554.47-3.824.724.159 2.947.203 5.895.083 8.842.927-.324 1.848-.654 2.775-.972.546.75 1.137 1.468 1.778 2.141a10.21 10.21 0 0 0 2.947 2.135 17.425 17.425 0 0 0 3.804 1.283c1.536.318 3.105.432 4.667.47 1.9 1.956 3.798 3.913 5.69 5.87.616.673 1.321 1.34 2.23 1.581.317.083.673.083.965-.082.374-.203.749-.413 1.117-.616a303.4 303.4 0 0 0-1.054-2.001l-1.81.61c-1.822-2.516-3.626-5.044-5.449-7.56-1.193-.197-2.47-.222-3.562-.807-.864-.457-1.518-1.258-1.848-2.172-.311-.896-.42-1.849-.553-2.783-.19-1.124-.419-2.274-1.01-3.265a12.97 12.97 0 0 0-1.454-1.963c1.01-.565 2.058-1.124 3.214-1.283.794-.083 1.581.076 2.362.19.845.128 1.67.382 2.528.445 1.175.115 2.413.038 3.473-.508.8-.407 1.43-1.086 1.861-1.868-.698.197-1.422.318-2.153.293-1.213-.032-2.42-.185-3.626-.35a17.046 17.046 0 0 0-3.366-.089ZM36.791 49.47c-1.29.19-2.591.235-3.893.197.216 1.76.495 3.52.883 5.247.254 1.093.552 2.205 1.143 3.17.304.502.635 1.01 1.08 1.398.406.349 1.035.413 1.479.108.533-.35.902-.902 1.213-1.449a11.7 11.7 0 0 0 1.2-3.195c.477-2.09.781-4.218 1.048-6.346-1.372.35-2.75.673-4.153.87Z" fill="#0080FF"/><path d="M14.329 30.462c.673-.14 1.365.33 1.543.979.172.616-.171 1.308-.75 1.569a1.335 1.335 0 0 1-1.428-.204 1.347 1.347 0 0 1-.451-1.308c.102-.521.559-.947 1.086-1.036Z" fill="#0080FF"/></g></symbol><symbol id="polishing" viewBox="0 0 43 43"><g fill="none"><path fill-rule="evenodd" clip-rule="evenodd" d="M42.26 36.35a1.28 1.28 0 0 1-.28.209l-10.67 5.869h-.01c-1.4 1-3.84.309-7.67-2.21a77.886 77.886 0 0 1-11.39-9.577C10.69 29.09-2.59 15.627.45 11.585L6.33 1.004a.958.958 0 0 1 .12-.136.875.875 0 0 1 .09-.14c.02-.016.04-.02.06-.035a1.05 1.05 0 0 1 .32-.2c3.67-2.187 15.92 7.584 21.94 13.582 5.43 5.419 13.99 15.936 13.99 20.622a2.245 2.245 0 0 1-.59 1.653Zm-28.25-7.466c8.05 8.025 14.24 11.6 15.76 11.527a.088.088 0 0 0 .01-.05c0-1.6-3.6-7.727-11.56-15.671-8.05-8.025-14.25-11.6-15.77-11.526v.048c0 1.595 3.59 7.728 11.56 15.672ZM27.09 15.84C18.54 7.317 10.21 2.505 8.31 2.593L3.7 10.882a18.006 18.006 0 0 1 4.89 2.47 87.959 87.959 0 0 1 21 20.932 18.162 18.162 0 0 1 2.48 4.882l8.33-4.587a.028.028 0 0 0 .008-.013.029.029 0 0 0 .002-.014c0-1.99-4.84-10.255-13.32-18.711Zm9.72 16.475a1.256 1.256 0 0 1-1.71-.453 41.156 41.156 0 0 0-2.87-4.212 81.15 81.15 0 0 0-1.88-2.368 1.246 1.246 0 1 1 1.92-1.587c.7.842 1.35 1.659 1.95 2.449a43.945 43.945 0 0 1 3.05 4.468c.109.19.167.404.17.623a1.253 1.253 0 0 1-.63 1.08Zm-20.04-6.184c1.77 1.767 2.91 3.492 2.55 3.853-.36.36-2.09-.777-3.86-2.543s-2.92-3.491-2.55-3.853c.37-.362 2.09.777 3.86 2.544v-.001Z" fill="currentColor"/></g></symbol><symbol id="scroll-saw" viewBox="0 0 38 36"><g fill="none"><path d="m3.86 35.985-3.1-3.173L32.74.52l5.048 5.04-3.393.59.083 1.895-2.364.408.07 1.895-2.364.407.14 1.91-2.364.407.083 1.895-2.364.407.084 1.896-2.364.407-.028 1.895-2.364.407.084 1.896-2.364.407.07 1.895-2.35.407.083 1.896-2.364.407.07 1.91-3.518.575-6.493 6.613Zm-.32-3.173.362.35 5.562-5.615 2.42-.436v-1.88l2.35-.408-.07-1.895 2.35-.408v-1.895l2.35-.407-.07-1.895 2.364-.422-.084-1.895 2.364-.407-.222-1.896 2.363-.407-.07-1.839 2.35-.407-.083-1.895 2.364-.506-.07-1.895 2.364-.421-.083-1.896 1.39-.224-.973-.983L3.541 32.812Z" fill="currentColor"/></g></symbol><symbol id="send"><g fill="none"><path d="M0 0v7l15 2-15 2v7l21-9L0 0Zm2 3.03 7.53 3.22-7.53-1V3.03Zm7.53 8.72L2 14.97v-2.22l7.53-1ZM20 12.5 16.5 16l-2-2-1.5 1.5 3.5 3.5 5-5-1.5-1.5Z" fill="currentColor"/></g></symbol><symbol id="separator"><g fill="none"><path d="M3.966 1.023 1.035 4.084l2.93 3.061-2.93 3.061 2.93 3.061-2.93 3.179" stroke="#FF812E"/></g></symbol><symbol id="sidebar-arrow"><g fill="none"><path d="M8 0 0 8l8 8V0Z" fill="#000"/></g></symbol><symbol id="subway-chernaya-rechka"><g fill="none"><rect width="20" height="29" rx="10" fill="#2F80ED"/><path d="m6.936 10.288 2.928 5.376 2.928-5.376L14.504 18H12.84l-.72-3.552-2.256 4.096-2.256-4.096L6.888 18H5.224l1.712-7.712Z" fill="#E9E9E9"/></g></symbol><symbol id="subway-staraya-derevnya"><g fill="none"><rect width="20" height="29" rx="10" fill="#9B51E0"/><path d="m6.936 10.288 2.928 5.376 2.928-5.376L14.504 18H12.84l-.72-3.552-2.256 4.096-2.256-4.096L6.888 18H5.224l1.712-7.712Z" fill="#E9E9E9"/></g></symbol><symbol id="time"><g fill="none"><path d="M10 18.816c4.42 0 8-3.58 8-8s-3.58-8-8-8-8 3.58-8 8 3.58 8 8 8Zm0-18c5.5 0 10 4.5 10 10s-4.5 10-10 10c-5.53 0-10-4.5-10-10s4.5-10 10-10Zm.5 11H9v-6h1.5v4.26l3.7-2.13.75 1.3-4.45 2.57Z" fill="#FF812E"/></g></symbol><symbol id="tool" viewBox="0 0 51 46"><g fill="none"><path fill-rule="evenodd" clip-rule="evenodd" d="M50.222 3.568a1.293 1.293 0 0 1-1.78.208c-.02-.019-2.558-1.865-3.668-.784L42.275 5.43l2.33 2.272a1.22 1.22 0 0 1 .05 1.7L26.31 29.296l10.456 10.187a1.215 1.215 0 0 1 0 1.746l-3.279 3.199a1.285 1.285 0 0 1-1.79 0l-5.607-5.462a14.272 14.272 0 0 1-3.029 4.293l-.89.875-1.74-1.693a12.478 12.478 0 0 1-16.363-.827 11.715 11.715 0 0 1-.85-15.94l-1.74-1.692.9-.873a14.948 14.948 0 0 1 14.535-3.541L36.627 1.625a1.29 1.29 0 0 1 1.76.029l2.089 2.038 2.509-2.44c2.18-2.126 5.448-.629 7.027.593a1.204 1.204 0 0 1 .48.967 1.17 1.17 0 0 1-.27.756ZM32.59 41.803l1.489-1.448-9.427-9.183-.72.7-.4.44a.6.6 0 0 0 .09.755l8.968 8.736Zm-11.216-1.942.75.726c.87-1.053 1.55-2.25 2.009-3.537l-2.31-2.243a3.135 3.135 0 0 1-.45-.567l-3.458 2.244 3.459 3.377Zm-1.91-7.35-6.038-5.883-3.388 5.408 4.058 3.955 5.368-3.48ZM5.858 39.863a9.884 9.884 0 0 0 12.766.81l-2.87-2.792-1.119.726a1.294 1.294 0 0 1-1.6-.155l-5.497-5.356a1.21 1.21 0 0 1-.19-1.516l.74-1.171-3.06-2.976a9.279 9.279 0 0 0 .83 12.43Zm-.74-15.84 4.329 4.218 2.659-4.238c.06-.095.13-.181.21-.259l2.379-2.16a12.385 12.385 0 0 0-9.577 2.439ZM37.457 4.237 15.005 24.676l6.408 6.236.15-.166c.078-.112.165-.217.26-.315l.26-.254 7.407-8.033-2.48-2.416a1.22 1.22 0 0 1 0-1.746 1.3 1.3 0 0 1 1.8 0l2.379 2.322 1.31-1.422-2.31-2.251a1.22 1.22 0 0 1 0-1.746 1.287 1.287 0 0 1 1.79 0l2.219 2.158 1.31-1.423-2.14-2.084a1.22 1.22 0 0 1 0-1.746 1.287 1.287 0 0 1 1.79 0l2.049 1.99 4.758-5.158-4.508-4.385Z" fill="currentColor"/></g></symbol></svg>