<svg xmlns="http://www.w3.org/2000/svg" xmlns:xlink="http://www.w3.org/1999/xlink"><symbol id="cart" viewBox="0 0 15 14"><g fill="none"><path d="M12.882 3.135h-2.668L9.5.533c-.13-.39-.52-.586-.846-.456-.39.13-.586.52-.456.846l.651 2.212H5.335l.65-2.212c.065-.39-.13-.78-.52-.91-.39-.066-.78.13-.846.52l-.715 2.602H1.17C.521 3.135 0 3.655 0 4.306v1.366c0 .586.455 1.106 1.04 1.172l1.237 6.18c.13.586.586.976 1.171.976h7.157c.585 0 1.106-.455 1.17-1.04l1.107-6.182c.65 0 1.17-.52 1.17-1.17V4.305c0-.65-.52-1.17-1.17-1.17Zm-2.407 9.499H3.643l-1.106-5.79h8.978l-1.04 5.79Zm2.212-7.222H1.43v-.846h11.256v.846Zm-7.482 5.595c.39 0 .715-.325.715-.715V8.21a.722.722 0 0 0-.715-.716.722.722 0 0 0-.716.716v2.082c0 .39.325.715.716.715Zm1.821 0c.39 0 .716-.325.716-.715V8.21a.722.722 0 0 0-.716-.716.722.722 0 0 0-.715.716v2.082c0 .39.325.715.715.715Zm1.822 0c.39 0 .716-.325.716-.715V8.21a.722.722 0 0 0-.716-.716.722.722 0 0 0-.716.716v2.082c0 .39.326.715.716.715Z" fill="currentColor"/></g></symbol><symbol id="delivery"><g fill="none"><path fill-rule="evenodd" clip-rule="evenodd" d="M22.624 2.42A.675.675 0 0 0 22 2h-2.664V.666A.671.671 0 0 0 18.664 0H7.424a.665.665 0 0 0-.664.666V2H3.32a.667.667 0 0 0 0 1.334h3.44v1.332H1.984a.667.667 0 0 0 0 1.334H6.76v4a.665.665 0 0 0 .664.666h1.44a1.948 1.948 0 0 0 3.696 0h5.648a1.947 1.947 0 0 0 3.696 0h1.432a.671.671 0 0 0 .672-.666V6a.868.868 0 0 0-.048-.248l-1.336-3.333Zm-11.912 8.246a.614.614 0 1 1 .005-1.228.614.614 0 0 1-.005 1.228ZM18 9.334h-5.48a1.946 1.946 0 0 0-3.616 0h-.808V6h1.896a.667.667 0 0 0 0-1.334H8.096V3.334h4.56a.667.667 0 0 0 0-1.334h-4.56v-.666H18v8Zm2.056 1.332a.613.613 0 1 1-.012-1.226.613.613 0 0 1 .012 1.226Zm2.616-1.332h-.808a1.955 1.955 0 0 0-1.808-1.228c-.247 0-.492.047-.72.14V3.334h2.216l.264.666h-1.152a.664.664 0 0 0-.664.666V6a.664.664 0 0 0 .664.666h2.008v2.668Zm-17.352-2H.648a.667.667 0 0 0 0 1.332H5.32a.666.666 0 0 0 0-1.332Z" fill="#000"/></g></symbol><symbol id="heart"><g fill="none"><path d="M16.6 1c-2.3 0-4.3 1.588-5.1 3.706V4.6v.106C10.7 2.588 8.7 1 6.4 1 3.4 1 1 3.541 1 6.612c0 1.906 1.9 4.553 3.4 6.247.9 1.059 1.9 2.012 2.9 2.753L11.4 19l4.1-3.388c1-.847 2-1.8 2.9-2.753 1.7-1.8 3.6-4.341 3.6-6.247C22 3.542 19.6 1 16.6 1Z" stroke="#000" stroke-width="2" stroke-linejoin="round"/></g></symbol><symbol id="separator" viewBox="0 0 5 17"><g fill="none"><path d="m3.931 1-2.93 3.06 2.93 3.062-2.93 3.06 2.93 3.062-2.93 3.178" stroke="#FF812E" stroke-miterlimit="10"/></g></symbol></svg>