<svg width="140" height="45" fill="none" xmlns="http://www.w3.org/2000/svg"><path d="M128.255 12.236c0-1.971-.095-3.23-.333-3.777-.214-.546-.665-.808-1.33-.808-.57 0-1.022.214-1.307.665-.309.428-.451 1.735-.451 3.92v19.72c0 2.447.095 3.967.309 4.537.19.57.665.856 1.401.856.737 0 1.212-.333 1.426-.998.214-.665.309-2.233.309-4.728l-.024-19.387Zm10.976 13.875c0 4.253-.095 7.247-.285 9.005a10.324 10.324 0 0 1-1.877 4.846c-1.045 1.45-2.471 2.59-4.253 3.374-1.781.784-3.872 1.164-6.248 1.164-2.257 0-4.3-.38-6.082-1.117-1.806-.736-3.255-1.853-4.348-3.326s-1.734-3.088-1.948-4.823c-.214-1.734-.309-4.799-.309-9.123V18.89c0-4.253.095-7.246.309-9.028a9.762 9.762 0 0 1 1.877-4.823c1.045-1.45 2.471-2.59 4.253-3.374C122.101.88 124.192.5 126.568.5c2.257 0 4.3.38 6.082 1.117 1.806.736 3.255 1.853 4.348 3.326s1.734 3.088 1.948 4.823c.214 1.734.309 4.775.309 9.123l-.024 7.222ZM112.598 1.38l-6.296 19.054 6.89 23.164H101.86l-4.443-18.104v18.104H86.44V1.38h10.976v16.417l4.87-16.417h10.311Zm-30.553 0v42.218h-9.622l-5.725-19.196v19.196h-9.171V1.38h9.17l6.154 19.006V1.38h9.194ZM43.557 28.535c-.57-4.776-1.116-10.692-1.663-17.724-1.116 8.078-1.805 13.97-2.09 17.724h3.753Zm5.797-27.156 6.296 42.218H44.413l-.547-7.602h-3.944l-.641 7.602H27.924L33.508 1.38h15.846ZM26 1.379v42.218H15.024V25.874h-3.279v17.723h-11V1.38h10.976v15.086H15V1.38h11Z" fill="#00B0BD"/></svg>